<mxfile host="app.diagrams.net" modified="2024-06-19T12:17:38.990Z" agent="Mozilla/5.0 (Windows NT 10.0; Win64; x64) AppleWebKit/537.36 (KHTML, like Gecko) Chrome/121.0.0.0 Safari/537.36" version="24.5.5" etag="In6-6oScIGTciAfvt69x" type="device">
  <diagram id="XS_IAhaMVd_04yrFd0K2" name="PÃ¡gina-1">
    <mxGraphModel dx="2261" dy="772" grid="1" gridSize="10" guides="1" tooltips="1" connect="1" arrows="1" fold="1" page="1" pageScale="1" pageWidth="827" pageHeight="1169" math="0" shadow="0">
      <root>
        <mxCell id="0" />
        <mxCell id="1" parent="0" />
        <mxCell id="K_bhXb7PA7aRwvR4aPhx-1" value="" style="rounded=0;whiteSpace=wrap;html=1;fillColor=#e51400;strokeColor=#B20000;fontColor=#ffffff;" vertex="1" parent="1">
          <mxGeometry x="-180" y="120" width="900" height="520" as="geometry" />
        </mxCell>
        <mxCell id="K_bhXb7PA7aRwvR4aPhx-2" value="TELA PRINCIPAL" style="text;strokeColor=none;fillColor=none;html=1;fontSize=24;fontStyle=1;verticalAlign=middle;align=center;" vertex="1" parent="1">
          <mxGeometry x="200" y="130" width="100" height="30" as="geometry" />
        </mxCell>
        <mxCell id="K_bhXb7PA7aRwvR4aPhx-3" value="&lt;font style=&quot;font-size: 18px;&quot;&gt;&lt;b&gt;CADASTRO DE PRODUTO&lt;/b&gt;&lt;/font&gt;" style="rounded=1;whiteSpace=wrap;html=1;" vertex="1" parent="1">
          <mxGeometry x="380" y="240" width="310" height="40" as="geometry" />
        </mxCell>
        <mxCell id="K_bhXb7PA7aRwvR4aPhx-4" value="&lt;font style=&quot;font-size: 18px;&quot;&gt;&lt;b&gt;CADASTRO DO FORNECEDOR&lt;/b&gt;&lt;/font&gt;" style="rounded=1;whiteSpace=wrap;html=1;" vertex="1" parent="1">
          <mxGeometry x="-140" y="250" width="310" height="30" as="geometry" />
        </mxCell>
        <mxCell id="K_bhXb7PA7aRwvR4aPhx-5" value="&lt;font style=&quot;font-size: 18px;&quot;&gt;&lt;b&gt;GERENCIAMENTO DO FORNECEDOR&lt;/b&gt;&lt;/font&gt;" style="rounded=1;whiteSpace=wrap;html=1;" vertex="1" parent="1">
          <mxGeometry x="-140" y="300" width="310" height="40" as="geometry" />
        </mxCell>
        <mxCell id="K_bhXb7PA7aRwvR4aPhx-6" value="&lt;font style=&quot;font-size: 18px;&quot;&gt;&lt;b&gt;GERENCIAMENTO DE PRODUTO&lt;/b&gt;&lt;/font&gt;" style="rounded=1;whiteSpace=wrap;html=1;" vertex="1" parent="1">
          <mxGeometry x="380" y="300" width="310" height="40" as="geometry" />
        </mxCell>
        <mxCell id="K_bhXb7PA7aRwvR4aPhx-7" value="&lt;font style=&quot;font-size: 18px;&quot;&gt;&lt;b&gt;ENTREGA&lt;/b&gt;&lt;/font&gt;" style="rounded=1;whiteSpace=wrap;html=1;" vertex="1" parent="1">
          <mxGeometry x="380" y="440" width="310" height="40" as="geometry" />
        </mxCell>
        <mxCell id="K_bhXb7PA7aRwvR4aPhx-8" value="&lt;font style=&quot;font-size: 18px;&quot;&gt;&lt;b&gt;FINANCEIRO&lt;/b&gt;&lt;/font&gt;" style="rounded=1;whiteSpace=wrap;html=1;" vertex="1" parent="1">
          <mxGeometry x="380" y="370" width="310" height="40" as="geometry" />
        </mxCell>
        <mxCell id="K_bhXb7PA7aRwvR4aPhx-9" value="&lt;font style=&quot;font-size: 18px;&quot;&gt;&lt;b&gt;CADASTRO DE MATERIA PRIMA&lt;/b&gt;&lt;/font&gt;" style="rounded=1;whiteSpace=wrap;html=1;" vertex="1" parent="1">
          <mxGeometry x="-140" y="370" width="310" height="40" as="geometry" />
        </mxCell>
        <mxCell id="K_bhXb7PA7aRwvR4aPhx-10" value="&lt;font style=&quot;font-size: 18px;&quot;&gt;&lt;b&gt;GERENCIAMENTO DE MATERIA PRIMA&lt;/b&gt;&lt;/font&gt;" style="rounded=1;whiteSpace=wrap;html=1;" vertex="1" parent="1">
          <mxGeometry x="-140" y="440" width="310" height="40" as="geometry" />
        </mxCell>
        <mxCell id="K_bhXb7PA7aRwvR4aPhx-11" value="" style="shape=image;html=1;verticalLabelPosition=bottom;verticalAlign=top;imageAspect=1;aspect=fixed;image=data:image/png,iVBORw0KGgoAAAANSUhEUgAAAUAAAACdCAYAAADFR6HvAAAAAXNSR0IArs4c6QAAIABJREFUeF7sXQW4FdXaftfUztPBoTl0lzRIioBYCCgqGGBh67Wu18IuDBTELrAVDESRkpLu7jyc7l1T67/fmr0Ph1JQvL81z+MDstesWbNm5l1fvN+7GP45/pYzwDlnlW+cMcaPnAi+vzQFRiAOhYU1oZiZZklZjWChfrpt6f6CQH5KcaDIL0ML5mXlu6yyCDRVQm7hXo8sc0uxNa5CBSyAKzILuUzJ0E0mh2SW6I9DaVkBvIkehPUQV2WV62XgLo8bYdkAg81cEQWapMAGR8QK8ggCiuZ22XFaalDx+GC4LDs+NcFWFVlJ8CWEva40xedzFSiuyBxfkmc7vCnbAKUQCTWzWY34gqPurdL9H+ve/5Yvxd/wpg/7CP6G9/+XvuUoyB31jINZWa3ssF33wO49fUqKDzYqzS9IDxcEfIV798dFigri3B6Nl5o2S6xSrahG7ZqFkGF6fNqe9LT0LL8rKRfAgcRqiTsVjRUCagkSEnJQnmqwTBb+X0woz8ryIuLRYOanAMEEMyyllhRF6ulGuBbn5eklhbkZWXuzqnAu+w7ml7kDRYXJRl6eVwGXk9KqFCTXrlHiqZVRymW1uEHdhovjPP6V/qTEzahZZWN0/BWLwT/g+L94ov9/1/gHAP//5v53uzLfsqV9YF9+r9Ki0vOydu+vnXVwf/K+A/s8XGOIz0gLpVWtdiA5MT03vVb1dXKif3tqRtoCD/McYNVT9v1ug/oDdcyzCmsFDSutvKCgQ/Hefc3zD+5vEC4LZGTt31un8GBOnG2YaNy4YVZaRpWijGpV98YlJn4fX6vGQta43vI/0G38M5RTMAP/AOApmMT/dRdk2ZVv3960tLi4V97BA4P3b96cnr15S21T133xVVJKqtWoXVCzev28qilV53hS0mfAn7KB1Y8jy+2f4wRngB88mIbsQEO9ILtHbkFenz3796Xt3bMrOTc3t4o73ltYs1HDPSk1q+U3aNT8i+TU1PmsevUtJ9j1P83+QDPwDwD+gR7GsYbCt+yrbpcUn7tj587zNq7f0Dhv177amtetV2tSf0d6vdrra2ZmfplUJXUxq1Jlx+91K/zHzZnQOGedm+w+3jX4rl3uvLc/fnLL4uUjbIZIp3P6T3TdeNXDx7ynrCxvzmvvP7bjp6WXKJyxel3af5hy01X3s5SU0qNiddnZvqKJ7z+9dvGSobrNI13P6veq79ZrHv25e+WLN7dEJFLGerTa9bvNSWFhrf3bt/fbv2ffgAMbt9XNWb8tk1l2XI2G9bY0P6311sy6mVOQ5JnO6tbN+b3G8E+/v30G/gHA3z6Hp6QHEa/Lzm66c+PWoRtWrDwre8eeelw3PfUbNd6TUa3Kjnr1637tSs/4FvWq7T8VcSm+Z08S4m3OkjKLjwtq02ecNenGh6dpJWFEFBsBL3D143cNV4YNm1z5HL5vX/Wxnbrvb8g1VNf8sCwb+4OlKMpIxsiFPySzxMSiWHu+JSv1+X598urrNqpKGhQoOGCEsMUn4fbpM9NYo2r5FW03bqz96pmDdtcI2UhQNaheH7KtMLL8rvDoOdPSWHp6eeVxFL/y6l0fPz3uKVfQhMplKDWr6Be++EgP1q3b4uPe444dCUgCWHK9klPxIPnu7MzI3n0Dt+3YefbB7Oxqm9ZuaCC71dx6rZpsbNym1ZK0mtWn+OvWXXMqrvVPH799Bv4BwN8+h7+qB75jR62CnXtHb9+wq++GTZuaBbjNG7RstqFhqyazambW/EirUWP1r+r4F07iU7678Isb7vjY1g0Y3ERGgzrBXg/efwYb0POnw0Dtu5n937j4qulNvemIkzREFI4wC+FgYTaGjrlvJLvl+rdj7T/vf+6BhD0HqqWGLWi2DNuwIcsK9jMTSvcOC3pNevX0WNs5g4av5cvXtUiXZLhMG4bNAZcLWZEgPJ3abuk65b3Gsbbv9+iXW3V3Tlod2QPGGUrLy8DdCvK9Grw9u37X7dXnBsTaFj/46DPfvfDCHY1r1IJZFoRP8SDP0LGFGbjqo8ltWZf2qw67vy+/uGDqQ098bhwogBmxUb1Zs/zu/77zXHbO4fNwqp5B2d69zfdu3zl03/odp69ZsqyVi8Ps0b3b6qr1qk6v0qjBJ6xWraxTda1/+jnxGfgHAE98rn51S7LuQrt3d9i6fv2dWxctbVOYlVO3Rt06e1q1aruqRv0mY1nz2gt+decAQlOnXTn/86kPZO3dU6dh29arOw8edC/r1nn6kX3qn0+96tPhN79+emp1SLoJAybKVY5lkSJc+c2ULqxj2woQfLd+c97SVOG1FHDLBlMAWeYwQyVYAxMXZe8R7w5fsibzzUGDdrZwe5Gg25AlNySLQTJtlHtULDEDGPX9nDjWLL2cFxUlvt+sc1E75oYHHLBs2EwCk1VYFscyvRQXr5pVncCAL1vW/LULhq/roMYjIWiCMRmSQgQZGwdhYjW3MHrJDB+rVi3IdxUlTurcuqijywNm2pBsBpekIAggT2JgHVqt6/L55Jax+YhMmzL4rcuv/6y9PwXJIQlexYecUBgbmY5hU97pxrq3X3jk3EW+nTNk3kdfPJC3bVeTRi2brWl7fr//sAG9v/8tz40v23rGjp0bR23esL7lhpWrmzZp1WJVvXatlzVo1WKC9o+V+Fum9oTP/QcAT3iqTq5haMHqXgf3775hxaJFPQpKilPrt2vzU+N2p71fvWH7ySyFHRXrOrneD7Vee9UtS7d+Oa19ksuFOM0NFjKxPVSOc58a85jv2uH3Ve53XI2mvK3kRXWuQDVt6JEA4GHY75Kwu0ZG2WXzZsQLUMvZWeX95j2z23viYSkKYJtgwQj8qgwGHcsiIVwwfVYL1r7pej5jQbvJI4Yva+GPgxYMw6X4oMkaeMRAiSpjpRXEiC8+rMs6ttrFN26s/VGfQbs7KD7Ipg7YFrgsA5DAbYbVRjkGffdRC9a+/Xr+zXenvzf61nltFB/8wQgkLkFxadAtHXkyx0bLxhVTv6nKOmRml0//od8Xl4387jTVjXjJC5gcNixYRHXUNMwLFOKKwt0V7/qTDZryDpIfKYEIvJxBgQwON/b9F1RzaqdlX/jT11Urz9v6ux+evPqVyZc0TEgG14CScDlKwgGc9a8bX/bde/tNv/bZHXkezy5L379h1UXb160dtGrZ8h7J8QkHu3XrPqte/aYTWccmh1nop+qaf/d+/gHAU/QGlO3Z03TDyjWPrF+wpHdZbl5ivz695zZs2GiC0qXNpyd7Cb5medt5L70/fuX0Hzv5PV50Pv/ML5vdcPkVLPPweF3gm+9HfjPypjebyRo8bgUIRVDNk4w9gQDm6CW4bv6cpqxFnU0C1GYt6zD58quXNPPFQyosQqLmAoMJixvId8lYaZi4ZtaUNNaoUT7fua7KR53Oz27t9iEicXDLRJrLCzNYDkkFVhgRnP/ZZy1Zl3br+Kpdia+f3aeovTsOqRaHbnJEIgY0SUap34sFoSLcnLXdsRZ37XKPb9ktdEZ6VWi6Dmaa4JxD88Uhp6xcWGDD1yzws4yMAN+4seor/c7N6qjEIUW3RTvTsqBpGgo0BT+Fy3DDgc2iX3P2grM+GX75tE6+ZNglYbgVF0JGGJrbA3AJ8wP5GF60wxnDsmXNJw65Yl0LyYfqigZTL4cdsSBzN/TEJCw1SnH515+msGY1C515W9j97WEjf+zmTkWcYaCYB+GO80AvD2JFsBQXfz+lE+vcbknlZ8z3b6ux8tl33l7w6bdneNxudD6/79fNb710NKvZ6MDJvAs8N9dvbdlzwbr1G66cN29Bz/iM9F1tunT8tkmrVuNdDZ3n+s/x22bgHwD8DfNXvmjJJXO/+/r2Hbt3tmndrevahq3afJDRofOzvyVJwWfP6/PWiFEz6yhJSJI8MAwDe0tyUZKiYNT3XwqAig15wVW3r+NzFzRPN3UEQFaSDU/Ahq35sAcMXW+55qG4u0ePER/yvEUdXrt41JIGkoZqigauh6BpCkJhHZG4eKwpC+LKr7+qxtrVOUjtv2jaidcoDsGlqNC4DZUACCZCXMdKM4JROYcsqoU33zqjbPLXfRtrPhjMAtdkmAawzQ6jyQ2jXmh43923xca8764xbyx57c1R9bw+pKgauGmhDBxb9BBaXXbJx/XHPjos1nb+VdctKfj42w7t0quhNFwOWVVgBkxsNcJo/e8bn8q8+9Z7xL1t2xb/Xo9zSlpKHrg4F26w2+tHaTiEMJcht2m0rt10xwUmi/XNEdcsaxOfDLW0GF4FcGsaSsosBOLjsLA0H7d++3lV1qFZNrXffPO9U3d+Nu28upoHaiQEXbLAuQUXJOy2bTS6/pp3ajxw25WxMfOlS1u/NHDwqrZxNeEKcZSbEfBENzaXZmH0t583YKedtv3XvnJ8377k/N27r1yxaMH5S2bNPK1dx04LT+vW58OMfr3f+rV9/t3P+wcAT+IN4PtyG6xYvOD2FUuXDDUjkci5/ftPqtG2/liWUf+EOHYls2dfUpadn5malrra3bf3tGNd+qXUmrybOxl+W4PKGVRZQ0gysV8vQpUzT5/X5L03esTO+7L/RaUpW3bFxQfLweIVKKoEqzgExeXHwbCNFiOGvp369L0jxYe/b59nbM++wQ6ueFSxOMKFhfC63IDqw0HOsFVTcdXWBRXvA//0h54f3nrnnFouLzyWDUm2UWpGkGWFMOzpJ4ezSy84LBO88MyLtu5fsKSBO8GNkGUgDAlNB/T9qcO7E7oceZ+LL716wbbZ87smWhxGKIiwz4P0bh03nvHZ+82ObPtj/4t27F+6oq7qUiDLMpgloX6fnrNaTnrpjMptS596+fGvnhz776YZGWCGgZBlw3B5saWwCFd/O7U+a9eggib0cvWmvKs/Fe6iAvg0IBAOQfYlI9utYiXTcevmFRXz8NPQy9faK7e08ISDiFNlKDJDJBhCgs+PNQWFyLzs0h8avfjwmbGxfNOp564qB4vq+AJAijcOtqKgMFSKoGwgr3ry1rOW/NjoWM+97ItvLggGyuqmN22yjp3W+oRii3zXrjrrFi29Y+a8+ecwVeHde/b6pG3nbi/9XQjtJ/HpHrfpPwD4C7PIl29qsXnZ2kd/+OH7/qd1bf9Tww6tXk07vcuHJzP5fMaMPm9decPM5DIDXkUB1Yt56lYv7TvhmeasQ4eK6gu+enWHT/sPXnIaXFAkl7hEOGLA5XcjbIWwJFyKy/P3VTyzVXc/MiX/vc/Pb+z2oDhcCFllkGUVIVvC/rIwBo65+3Z208jnY2Pd9epz98x94JknTvMmI96wIFkywqaGFXoIgyaNP9d9Tp+vK98X/2bu6e/efv88tagEMrOQJxsY/crYC5Tzz5lyrPvn89f13Lh08Rkms1nT9h1+UE9vM/d488R/XNt907z5Z3h9Hla7RZNZrG/n47YNTJt/9s5NGzvDttG8XfuvWO/DXc7YNXJefnX0tOfHTpACQYQgI65R44JLx4/rw5o3Oox2cvDV1+9cfveTT5/miwe3y2GoEkqYhqWBQlz27ivnuwae+2Wsz5LHnn5h7ouv3ZKmqYhjDF5FgxXWoesm9rlUdHjo7gdTrrlM8B35qk11pp5/wa6mBoPGXNDDEchMgdujIRguwwY3w/nzpldlmZnCuhTnzJ7d6t3hV6+uqktwcQlFkTCsWlUw+P1XTtpa3D9zzrUrZi0atX7lmnaXXnLJpNrNWj3O2mVuPpl39e/W9h8APMYT57uz2i6YPuvRVUuWDOjasfPMtm1bP8w6Npv/a14Ovn17zRc69tp7ZkI1JJYFIdkchsKQ/99M6iavjEt3ra94BmWz5/WYefHIuR1kD3QbEHIFigpVlVFWUojV3MDFq+Yns9q1Ba+Ob9zR4M3uA7eeFpcImAGoKoMh08csYX1xKW5YON3NGjSIVB53+Uvj7/nwwUefSFc1MEuGydwY9OIzQ9glAz8/LlgtWl2dfmNdWp9UDOvXzNepOIcvnlMDCRkh1qTJUSIIsf6Nx5+/68tnXnhKkQzYmowCLuOqsU9fyS698J3DFoElSzJfH3zZzob+OPh1A7LJRTxS8vmxpDQf1/z4bQJr0EAktfiitS0+PvvstV39SSgP6/B6vbDCJige4HIrWBAqwYULvstkTRxCOS8oiH+rTaeS1paCqpYCtyUjYJooiHNjvlWCG1cvimdpaWW/Zk74ik0X/Dhj1r9+mDe3S//zzvnitNM7P+1t1vCwWOWv6fevds4/ABhbiXfua7n0mxn3r1i64uzm7drM7tT3jP+oTeusOV48j2/I9Qd+/P6G8IGcxp6kxP3es86YwJo68bPKx5ab7v9m99RvB1ZnElI1F0pKiqCqKjweD+bmHMDAiS9dET/8vHfFB7FhV8bbHbsc7JGYCs5lMElCxLahmxHE+9xYZekYvGfDYc+Mf/7tkNdu/tenaSaHCgsBbgue3A2fvEvW5YZjvbB8G3chZ2kLuOUIa9du3V/tpT6Z++HLf+oIk4VYp05rj3de+dRv+n16+33fpURMRCgOqDKR4R49+Y1O7PTTK0CFc65NSqkT6RqXCMNi0An4VDckCTCtMJYGynBZ0d6K57f7xbeeW/n4k7c1UTQRa2UmwC2gXFGwg1no86+b/hN/65WPHzkuvmZno5Lp312lB0OZaQ3qLUbbBuNYs2b68cYfWrupx/oFS/41c9r0AX379v3ktD7dH2UtGv6TRKFF/WRelr9aW15cnLT2u1kPzP3u++tbN2n5Y/eB59/Jmtf4RZY+nz6n56tX3TwnzeKIl4AQs7E1FMDNE1+6Srvw3Dcrz9PCM4aXylt3xXltHZIVgUtVwCwTUsTEAY8LVa4d9VbD+24cFTtn9w13fLpxytdDUtxxYBR701RYMsPOg/sw7ImHrmXXX/3aUR/Erl1ue/rCUaGC4uq+GlXW4oohnzDG7L/a8/r/vB/OuWyMe/uyYCBc31staafatd2kI61rGl/BA0+8MP+VN26pkpAMF5NFEoupMg6UFqDP6GueiX/o7rti9zH98ls2+OcvbFolFISpMEiKG0a5AdWfgF3BIJoMPXdhnZcf7Fb5vvPHvfHIZ488dV91lxMjLgzZCCb4MeqLdxqyNk23/dIc8YXrBv7ww8x7Vm9c13bABee93vysXo+w+KPlwn6pn7/K739LACycMWP49Ok//FtSVbP/kAvHJHVo/cWJPlC+ZUvqq2eel9eCeZAMBkPSETQNMMWPdXoQo779uAlr2bIi7rJh6A2bCxcsa+SVDPgUQNIj0CQJVjiELRJD3XvverbxbdfceRhoXnPj3NVfzeiRwDTYElAq2xhw3RUP1rv3rmPW1p7o2E+2HdFWoOt+lJV5URpKQ2nAi9JIGsoDyQiWauFIIL20POAxwpE0M6S7rWAwIRIoTQ8Ul6brwVA8t2xvSaBcg2lBiuiCG2iatiBWS7BBCG3KDk4rlgSJTCWXAuaSYbs0yDJDvM+nuxU15HV7y7xxCXmKPyFP9ntKmNsTVlxant8fF9I8rhwpLjGCOG8BfK48JPhDSPDmweMpgMtlsMzM/4lMV2x+V/77gXfmv/fp5emyC5ZloQQG2g89a3KHF54bXvkZzL/rgdmRj77olWmaCBExXHHCEnD7kBUIo93lwz5LeurOobFzgtOnD/3wotGfdE3NQMAoEkkhSfeizKVhrRXA6L1rTup7PjBz0aiZX0+9G+GQ3Xdg/8eqnTvw/ZN9R/7s7U9qwv7MN8tziut+N/ndF1YvW3zGyCtGPFCl31nPHu9+eF5e3PFiL7nPvvjEnOcn3NNMcSHOthCRDCgq8cKAPYqEatcM+6TFA3dfVPHSjp98x9ePP/tMvfg4eHUdajgM0wjBkxyHObkHccX071uzjs2Psjr5wjXNjU2bT5NUFpA7tJjzc/Gsk3kuQksvGPSjqLyOlZufHjqQVaOspKRWfl52rcLsg5klWQcblR7MS4mUlwGGJbLQVNWhmhZcnEHmHDK3YXELtm0jPilJ0E7oN4+sgGRVycKVOVWOMNgSE3FPl8Gh2hTYlABmgzHnN1Mi39+CajJxLv2/LgOWwsXvPKKD2RyMSbAlVSSQdGIwUmmKxFBSXgImS2CQYdG5sAV3UVcYmAyEgkFoLhfiU1KQUrNGVlzNatvi0qtkxyUnbXT54gsSa2TskxOTc5CQuheJWglVlpzMfB73HVq3vWbxjwt7J8b5w2jdbClr1fgoYYayb2YM/fzykZ90SUqDpVvCAgxzIKho2FhYiJHvTjybnd29gi3ww5U3bEj7aX3TpKJihOQAZE2FZnlRxCVsssMYNvbRa9jF571+rDHRYna8hYDv2pWYs3Hjky+8NuHaLj3P+OKcCy+8lVWv/reQRvvLA2DRtPkjPvnms4c8yXG7R9x04y0sI2P98V7a/DEvTvjm7TdGhwpLkJCYiovvuv1RduPw+yu333rnozPXvf9hn6aJftglxfBqLphhCwrzg4rDzJ7tdp/x4fjMyud8cek16wu/ndusuS8RKS4XCgLF2BUpRo+brhlb7eH77zgVH1ysD2G1lZZWxd6s2sjJbxQ4kFu7YP++tvs2bmuXvXtPSqSkXHD63FRaxgG35BZAwr0aFI8GlyQJACNQIlih32AT6AFUB6IwBplxWNzRDOUmROyK3DGXLMFmEOAofpMl6OLvNlw2VVwQkMngdGEAlkSlcM7IVbIALSfBYDIOm3Pxm0uVxb8RcFqiDkUMB2RDEoi6aIj0D6QjDQ6DMRiMw5AoiWRDU6jMzgFrm863OSK6Bdvk4n5MI0K2F8Lcgs5suBMSULVu5v6aTRouSapWdau7atoepKdvRs2qe5Dozj7V1uTKkTfN2jnlm96N49Khhw2Uu1VsM0JoNnzQzE7PjOlb+d14vGZL3t5Q0dDthmGUCRI7VAVB2Y2NRaUYMua+Z1w3j6hwsencg3ePffPbt94a6fPICHATw2695QHfv6595HjvXMGmdV1mffblY1nb99S4dNhlD6QNOP2kGA+n8l3+X/T1lwRAXliYsPbTuf9ZOHfW5QPPO+v52sMGPvlLkzntzAu3Y+PWesncQKKLXE8XlmcfRNULzlp05nuvdI2dn//sa+NnPffy9fU1FfGmAdkioFBhGCqyvR4kDz1rTrOx9/Q+8noFL7z1yMy3P7gvlFeIzKb1D3S/bNgd7LILPvqlcR3fwsiph327a5ftXdc2d8+2zls3bGm9f9fuuqGSMrgsGx4OaIaNOKYiTlaQIGnwMAUeSRJgRSBHIMBsVYBGRGWwVYAJsCGKDBcuqSlDAIQANLL+BEhZApwIzGRJhWQD5MlKjIFzEjiwHBAjYFXIxLOh0O/ccXctcFjM6UNAGYErVwUgOeUadI4DYNwmWIten/qj2mFG7WRIjIPpptMvnUNgzWTYZHmK853zCPzIupSp5I5TZQuBJoNC2VzbgkIgS2ANG2FuIwBTZGNLbB1BsipVGUFYiMgMcalJyGzUcHO9xo1+SqhabXV8zdrrUbfBZtb414sZ6C++c8P89z57sqyo2G+lxgf6jR45xn/lkGeOfPbfDbn6gH/N9mppoQgUKwBZ4SjTw0BSMtYWl2HwmPvvcl87rOK8j/pdsllevrZRI58Plh6A5VawqzyARoPPntHy1ef7/dy7x3dx9+Yfp/z7vUkfPDDkshFPtx1x7gOMscMYBb/23f0jnfeXAkCelVX7+5feeaO0LJAx4PJhN8W1b3Fcblnlh5Dz/me3z7vjkbGZlgVPggzdCIn6VNPnx9pAACPffasv69V5pvgoF69q8MbgS7e2l/1INW1YVkRYFe64FPyYn40h7447yz2o31FCBL/2oVNmGDt3NzY3bOywd9PWdns2bR+Qu3e/n0UM+DUFzAzDrcnC0pFkGjWDSkorsgSZSTANA0rUSjJNHbYAbOILSlCYLPiGpsURIljilgAqqqagAD65sAQEFKCPWWoEgIw7IATGhNUkgJFqapkkQFCAHJPAZR4FH7K9CAAdwKO+7KgVqETBCVyOApYk+o8dwhKUoiBIrjOP9UNADKiyQvRAkJqYsAPJwiSQ41wALYE4nS1AkzFx7/QbASiTOJhE1qHpWInUnsjWiiz6MSnGa5pQNJcA87Bhiv+nwxTZeRO6aYm5MzUV1erXz63ZsN6sOq1a/oTamWuRWWcza3Hq9ACzX59889w7H32xrScBftkWoRTZ5UaeKmFWfhZuXzk3kdVzZL2Cr3948+cPPfliC78PcrAUilsV86TAg0UF2bjiy/f7sR5dZ5zIe1m4YNVZX48dP6F+Zq1VXW4cft1fSePwLwGAwW27O7/31oTx6R7f3kEXDL+ZNa+390QebKzN7Gv+tdk746dGVYMRGH5SSdFFBjYiqThgMbS67KLXqz963zWx9uE3Jt/20d1jnquleuH3aKLcKasshAG3Xf9myoO3XnUy167clm/enKmv3tJx76Yt3fau39R705KfmsSZgI8sOosjSdGQ5PWBQMOM6OJjpnESrYb+ow+YQM7kDigRIBAoQpYca0oARBSgomos3HRAgtpQUF2lBIVpQzEt4YZabtWJyRGIkiCBsBoZTNkBLOqXFFpssiopji8sPXJvJed6jg0WNeEsKARUzBZcSGrhcvAEOvUFCYSOMoFT1Oyja5BFR+cIa5FxKPRbNAZpUi90kSgoS5ITh1QIUAk8o/ajRbszRUE4Zn2KcduWuH+F5kB068ydA7RMZHEpDkqLijhfckDeMjkMMyJqk3XbEFa0qSooCYeFCk0QDOUMKOUcrXv3WlutRZOZ1Rs3mqfVa7yWtarzq4VaV11y0/yt02Z2q5kUB1gmyg0DB2wDV7w3YQjr37uCy7ns0utWlC9c3jbFiMBHWo52RMh+JSsp2GxGUP2mEe+1uP/Oy0/mXSX6zVfvv/Z6rhFKHHL51SOS2h4duz6Z/v4Ibf/UAMjnrezx7uQPXm6k5HqzAAAgAElEQVTQusXiLhedcwdLTj5K1JJ/8d15JWvXd7UMzpK795jC+nVYdOTEz7zsul2e75fWqcskRNQIwkYQHtkFQ3Vhr8FR54KzP6770qEaVfGhLF/ebcmnX91zYP3WTlVr1VzX+aILH2c92/9wog+VL92Qgf372+nr1ndZM2f+kJ0bNjQgq0uluBe5rD4vuGHBI8mw9AjcEllYgG3owoJSNEXAi2q5QCBGFgwBH4GYQgouwkpx4m8irhYFRWEFKc7HTGosPgIybsGEY61RPE3E+2wukgoByYZJklKMXEYZLpuAVkJQdSwudxTbCCSF+ApJYdlRSyzqhhLQ0MG44wrT9ag9jU2zCPMkGOJ8WVxbIaClmCCXKlxpku6yhU1mQ2U0TieuR2Mk4KTxCcBjjjuu2JL4kyoxxPOKsYKYDYvZiGgCa6HSeKOLAvUXA0ACPKqqEcka2tmOYohkQtF6AuZYlozmhm7MFoFJWhhk1YWwqSNCMVZNBTQVxeVlKA8GwDQFZaEwJLeGNl07rq7bpu3nUtvW89Go9uqY5XYi74/59ZwhC7+eflNO9oG6GY0a/HT6yBH3sSb1tlY+d27/wVvitu9vmBQKwAULYRjw+JJgFHNRwWIP6v1N93GPnXPk9fh3c3uVrll/tl0W4IndOk5j/XvOOapNTk6VH9///IXNq9e2HzXyslFq7y4/nsi4/4ht/pQAeHDZygEfj3vtubN69f2y4cjBoiD+qIeUm+v/asToFaWr1zRMogyiBeRxGy0HD5rT/tVnDovRbX/8+Ynbxr19bWOmwOYhyAqBjeZk18IGBj86ZrR83QUTf8sD5IsXtyxdvbpHeP3eXjO+mDqIqyJFiaoWR5qiglRfuMGFi0oAJowcssBIAUVVwWwLlm2QCUJ+bjS5wKDYLvGRxwBAWC9RMBDJAzigWAEQ0Y9YWDN0DeInklsoLDDnICuLgIisPkOTBDiSxh9sWXzkZTJDjpv4j4DbchIfYcWJ7WmWFLUCHYuKTiOQol03yarSojE9AkCyzgQgxrLBBC4EWlyCbAqnWQCMyBYLk9Ak9S74FAUeEmigLLVpiaROzGkmS48sUEqqCGszapkKAKR23BbUm5DmjNdtKc69Ra272DOOudGxeYu5zGRp2pT5ETFHLmKklqHDp3qEsAOFHQzieWouRGzdqRoRViuHHIuRkqiEZSDPNpAjaShhQFqNamjRteMXdbq2ne5u3HAOa9HuN21xUPDwuOfnPvfira0S46EEy2DLHJLiRXmQYYNtYtDb46/Wzu/1RuV3eso5lyzLWbasXQolx2yOfIkj9ew+c85587WjYtpiUcnN9a/+8Jux38+fd/bwf982osZprWb/lm/k/+PcPxUA8hUbO73wyviPWnft9E6vK0c89HMTtvyiaxfkzZrXNT3JA1gRmKYJ1e3HrtxiDLjnX89677m+gnvHtxXEv96zc0kHTzy08mJ4aRW3FRyUVOyMSwqN2viD92QfDp+3oiVWbeqxd+aPgzYtW9arqLQAifFx8DEJbvqAKXtsROAWSQDHsnA+49inTKYNxcOioCTcyFgs7RDHmaynykc0tFbxT7Hzj/WgBcgSrkXBT/xJoT2RlHCSFsLC4lRlogn7K6io2GKW4/kD60B6UWTIUWSc/qMMLVUwuyvdBXm4ZIfGRunYrQRlzjn0dy16LrWJ/U790vioT6K+RG1W+AEkAujgy8DpdRugnqwB+QVCtdrQw5A0AiZReiHAqPL2x0TfofABgWFQdSbWY1AS5/A5FM8iOmEVuydH6Ttk/Tou/ZHzHnX2o3NpkYxYNMlDFiLNpUTZl2jIgH7TqdJH0WAQ4FuUnTZRZuooDATgS01Dp95nfFa1fbuZaNt6But4NI3m595Jnp3te7nNmeXt3SqSI0G4ZCDIbWSbMnKrVAlftGaOp/L5m4ffMm371G/OyqyWDNsIIxKJgPn82FZUjO43Xzex2gN3jT7e9ehas7/6/omfZs666D//unUg69j2T7N73p8CAHN3bGzw5ctvft6mSbMP210z8olfAiO+bVva593Oy21u0Qumw+13waNoKMgrRKI7GQv1cgzP23J4Sdmi5Y2/vuW2FYF9e7zM4rBcHnjrNdp1/sTJ7VmTX2bK8w0bMrB5R/+l02YPXDt73hA5txB1PQnIdMfBLg/AdklgbgXhcFC4Ty5NES+ZrDoWlANGDujRIRINh+1dTgQ7J2NKbqDgD0fjerEExbGA8HgPmECOuhfJiujHTB83WTRHZm3JctK4BgMSyjUFq1gQj+5eBar7E2RmQWiOYoKD03CRFaZICBDxmdx6sgKd0J1oT8AKmXhDdEM0Ac4oKGlMbagbYZjFkC+KSm6LIwEQQEgFyoMT66JvvYYw9uUgUdOEW2pxExHTgKKpFckR4RqT+r5J/rmNiEL2H4PLVAQAirmvALYYwIm0iANahwHfIQCMLTixxcNZoqKJGsqEi4fpgG4sjkktKNvOKW5ocWgkZKtb0CMR+LxxkBQVhaWlMDUXsoMBHDRDYNXS0a5vr49aDew7Fc0azIjVg/8sCK7aVeejkVestg/uTUjyaMgtLka9zt03dXvx8R6sQYO8Cmt3c17cp527lnbxxCOgl8AT70XI1CHJGgwTWBQoxlWFjgL4L4Hu4kkfv7B49dJOtz56/7mszsmB9i/1/3v8/os39Xtc9ET7JKnzjyeO/ywuI3H7WcMvuvNEC8ONebO7Th142YIeyVUFC5/cIisYQpLbD6YzrLDDGLjoq/TKL0HFy7BhVeui/XtqJtWovY81a/Oz+3Lw2TN6lM9d1GfzvJ9G712+IZVoJskZ6UJfTgrowkVjYUO4sLLLBcu2RVBdUhUBgpFIGKosO7adwL3oxyPcwFi207HQLMbBKbgWtQTp98qJghOd0yPbEdBSrE24dsShE66p0Gh2rsVsIQDgsTVYXEK56sJKKYQH9i7Dfie/AmLUWUQnIVAn91BwUKJXIpOO4nrkvUdtWLIkxf8wcs0VcKqkEbAYxX+BENFbpXNlBaZFY3GyOrJpgEzyNACkLTW6SVdUK9JRXVJgGWGRvSbdQq6qTtSQ3FLK83DAY1Im2YaumI61ayvR7PSxATA26mP9SQsRBQjodsW8RRcwcuFdphODpEETkEcUh+TtLG4UK6XAAyWPOCRS2mYMQT0MS6HsvAQ5YooMN43R1BSEVYYyI4z8okIEJRuZ7VrvbdG76/i409vNYV3PWPbzQLi0ff6Bg+mpqVX2HavmmS9Z2W7qwGHLOrjiELBDgOq48bQA+2Q3FgcLceHir2qyBq3okf/iwYv3JH34+EtTNS4bg2+75dxTRS7/xQv/igZ/WABc+PJ7r+7ZvrPhxXfdPpRVi68QARUfycaNtYs2bWqeVLNuLuvQ5qiHz1cvbfZ13yvWN7NUSHEqwmYYimXC5/KipDSM1czAxYXbTvre+ea8OGvD4nO2LF14wfeTPhicbgOpESBDdiNV8YjgeCk3RHzOJWlwq5p4+an8CxTfoytSAoL4bNHYkCD/VrihMesPUKPfu7hf8YE5lhRZEY6L6vx5KPrlPP1jWYMV4B51b2NuLv27sCjJBeMEeVTaRxUXTjKEAFdcz3IA0OYSAooLy6Uw7t+7FCTMRaBCLi+5pTR6clnJ5Y1NLsEaYSABFt0HybOEmQSLYqAWobwC2dDhhy3axNzl2PlkANLfKbtF2VVTo+CdKcAlVZLhtwycISfg6gZtkVYcAg+VC3VsAqQIZYolFaZEAMjEOR7KYpO0q3yIhC2y1XT/Ym4diy9WsRKzyGNzWDnE4AAg9UPE6xhVyImBaqYi5obZjlWt0+8UzwQtOBSjdOaOyRzBSBi2IkH1ak4mXzdEdtxLdeAE1pYjwkAVLz7NLSpdcswwCpmOUtlAuUtF32EXf5rZ+rQPlcGDjylV9rMAuSs34+3mpx3s7E2EL15DaWkJEv3xCNO+MVzCslAxRqyc4zkWCZzPXdDLioQT5LptZrMGh29rynfsazBuzEOftejQfkXvG68TupR/tOOkQeD3voGS7xZc8urEif+5Zcy9F7laNT2qamPdkOtn7Jwzr6/NIwjLFpCQiGEvvtiJDTykykFj/KHpwOLq+aUJihyCJOmQye2RGfaEdDS8cOh7mS8/ekIUAL5hQzIWrRyycfqMKzYsWtRZ0U343S6kp6bACITgsRUoFgXzHeeHyrZiyQdy82jVlyDDbToUirBiI2xFBNXE53IJqaQYyJE7SlaYA0yx+J/jolbE52zJcRWjYUDKaB7mKf/MA6I+6OOr/KcDdvRBKo6LWuHCETA7lhJZKeQCm1AEAK6Uwrhv11JkU+muDVQBcGlGc/DcQtgeGYZEvDpDWGLk4lJG189dCMf7ML1wF7bwCEJqdKAc8JpAF18ymvvi4QsF4aZEDWVYKbkqu1CqqVhUsBdUm0Wb7HIvKVA4CwDFD2v91xoc3/ZMVM8rgysUgEejrLKNCCUjqJ6a+JASWWQMLsFjtAXIUyWKs2hQaMHJ6gpr+ChX+PiTWpmzKIzeIzQoYlb6kT04oQzH0qZsPSnMKLIGjUICVPUiAUFTF3QhmkevRRU4VC9NepKO6o9Jm1QRfZtBKHuHDBtlFkfP8877vlqvnm+hbddvaTOqE/lmF/e/dLO8cVMjnxmCnxZYXYbt9WOXYSG1f6/5Td95unvlfvikqZdMHH3j5GQ3bUQFhEyg/7Uj36vy7L+P+q5yFi8+8/n7H55820233l7l3DP/UPXGfxgA5AcPpj15971fDe177uT6Iwa9fKyH9sPQaxYHps7p2DYpFS6fgiK9FMXgWBkpxugfvsxkbdpUbNzN52yv/+FFI7Z5zWJUSfQIQdFcy0CkSpWSEe9NqfFzLwYFdYu/nn3hmhkzbt27ZElLV0kpWqRXAy8PwCdr0HUd3KXQpmbihXQAz6F5aNyhSNDHZXAbYdMS5XJui4nsoU6Wh8QhEcGW2kZdRUEOFvE4+vPQv9Mn4sSfnCMGjOJDFbGpQwH7E3nRK7ehDz5GD1EoGxr98GLZWpuZYj9gskpkaLAgIyS5sVKK4P5dy3BQdrK2dTjwYttzEZ9fBp6kIsgiMGTKRnP4mQtywIA7xFCa4MMru5fjh+IclMbiezaQZgMjajRBz7RqSAkFEUfWrUTldmSRqsiTZWxTbLyxaj72ywCJISoku6+TGQWk6cDYBh3ROqIgzgpD4jqCzBR0H0lkcSRYlCmncj2qcCFCTSUAPFbs78gkR8W8VbYQnSci/qNn71iDAlIrwFXY6DGwq8hIx3oj6gwX90LxVVGuF3T4iqrfKyw9KuujMIMWsYSYhEjGS7JQmia2AFX0aORRGLogZksuF8pgY78RQTbjaD1gwJKWvXu+5DlCwfvId4Uv31h1wnkXZFXnFlIhIUH2Y3dRGcrq1MbFH79VsUeKWKznzj39nUEj5nVOzIDL5ggHDWieRKwuzUfmFYPfb/vCw5cd613c9cHUJz76asqQex57oN3J0H5O9r0+mfZ/CABcMGHCM9uzsppffu21F7CaNakM46iDz1rU4a1LRy3plFAFruIyUYRKIMN8bmwOlaDm+QOmtZnw4tmHrVLbCuJ3fjLp4U3LFw6V3Gph424d36l7w81jjzdBfPJX5+2Y/v3Nq2fN7e22LcQrCvxCdohDLwvA7/bDp2iIhPSKSgiTU6WA7FQ3UODY4qJInYRJI0SiZYpYuQktidJCPD9FcawNEQ+UtIrEh3i5oh+Q+JAqrAnHUjk8w1spC1mpcuLIe3OKwo53EADGgnWySIhQZpJ6dtPHBBs6VXPAgsYpnqZCZx6s/q8Ncv/eFdhDDTWgRhh4q9XZqFJqIFcLIoeXwyaJfkWCVBhCTS0R8UUcJX4XXs3ZiBnFWcKlZURsNLmI5Y2q0gw90qrAX1YMn2WQooLAJctQoWRUxV6fCx9tWoWvi/eilNxbuq2of1zVAMbW6oC2BtU5RADZQAkLQ1FVSCa5vnQnivjTsZwdKoxD7naSSseO9R0KZR6awcOzwBWLU4yoLfzpWKz20FnONEdJ2+JBOzFA4TFQjNpkcHk9YJKGUCQiskFkRVN8lFxhcpdNPeKAuqyKckNOVCFLcUjwtgmuUOkhUG7SDjEkq+VHSTCEMBhKdAs9Bw36pMrA/q+wc3ods0KK6sg3fvr5/QdWr75UDtisabfT38oYeeHzLOVw1/aj7r33V9ufX70q7QEdpmSJCu7yIts0sckM4ZqZX1c7ljamuO09e5Leenrs9y0bN1jc/qabbj4ZsPo92v6/AmBg27Y2Lz/8yHujrrzq1tTe3Wf93A3q49++Zdojz75Am9P4xSpuCm6YwYFSnwurImUYvcfZJexkDr5sWZst30y7as7bH16fHrZRXfUgnpxWy4LXpYn4DD1gsSWjboLrNjyqBpviV8RtkwHDNgRICL4d8ecobkMuF8kVEWWMuHlUoUC2nGE4pFki/kq0HaMiUM+hFVcGwChwVf6wKt1YLNbnuGzHP5wP73gf+KHcJhlKZIE6lDhJ1BM7lowoXoPGZVicgJ5oMCE8c3A9SNedYn7V/puVfbZJH/gjFr7fsx5zrXwUR4dE6tb9m7dHuu5GnsTxdvYmzCnYj4D43XG6UwBcVq0FelSvDnegBD4ibZJ1atlim82scBglaSl4dclsbISBXFB8kjibJmkBoKYBTGzeG/WKQ5B1UklhKJUpfsVpcwFIItHhhBTEIiLI0LF5+XlRzCNjrEfO9OEx1+hCFV10yCqMWZIVdclRa77C1SaKkarCCEdEPJQsO3KJaRGl8AgtvmRlc9qalMLHkuKU43EORXZDYW6EQhHQnikUWmEavWUGVE2CHgk5FSxcQtjmKLUZDho6Cr0azrrhmqeqDej/GmvZcOdJfS8bNmiv9xsYae1OhC8QhouI96qGklAEpj8BOwMBDHn+6fPZsP4V2wocq//InAUXPfjYo+PGjH+lh6vR/59s/0kDxslM1s+1nfvsi+OLy0uTz3/o/otPpE/+8vujp973yITmCUnQrAjCVhjMpSFsyChze7DTbWHEhiUndD/k4uKzHy6d/ea7jxYc2JsWrylIUt3wMgmKQWYHFdhThtNxSQ8/DnHznG/4ULF+5XaHAMr5VwIX4oJVHqDT97EA7Air7ee0TX8BAGNjPCyoHw3yixhUNPbFKZATjQBSCRiZEmQRCg+ygsfmfNAhRUIpZXxlZ09dleKiNhNKJlMO7sQ3xdnCTSUDra03Be1r1IE3ZCDsc+HLnJ1YU1zguPrCCpKQBhld06uhUUIC/Ixks0zB2xRVGDJHxOXC3B07sCEcQAlItEAWpGKF6/ABaPHf5Mn9rbuiekEIXossRxMhWYFBiw5lVG3JkeIitZiY/iCFGaNgePQzPpE38gTaxJIpJ9I0miQ6nNcZoz3FOjiaf+gkaRyr9Ejvgd5hCscIQj2RwiUZOmMoswwU6xGUWAYatWm9qe3FFz7ERl30yQkMUzSZWD2Tt/UlIo5EGWxTlBGaloqQ249NgQAufGd8Lzbg9BOqw3/nxjvm1a1da3P3O2+uKDU90XGcinYnBBin4kKxPviug3UevPXmb8b8594rj5XBPd61+MbdVd/uMSCrnS8Bfj0ISbMQJPdBS8XKvDx0u3XU05lj7rj758bKt26tu3Lim/esnvLN1WmlOjLjEiHpOjSKuUVfFFFORQmNaPH8qbz3P1pfMQqM4M7JDmWZgEJkRKmASliEVCVCdpAeBfCopUpyAlRuZjgWbkTjOBjvwRdF2fgqZ5+gyFD1RAoswdkj1i1Zi1kAnE0uHPCjKhYCsgTYog1ljCtRwQU5hmIiFMknHcBQtIUGjiToSAdweYPG6KTGIz1kQCZrSICfhohI+Khi0fEIEQOOiOrQbSgx87sD4B/kgVeuahF131GFHGIrWC4NO0OlKEyJQ9sh5z/f+qorn2W1fl7ZZv7wK+aGflrbo4ppIEEyoYfCgJqIPFXD8nAIt2StPSlcKZ057/wHH37k9edemNCUtT3ET/xfTN9JDfS3Dmj5q+/ds2b3ts6jnnjkvMp98ekz+qz+eMp9O1av6ZqYmrK++yWDJmojRx4l/b71qVceXvn0uPtbeYg4Wgjb7UGOnYANEsMNi7/wHY9vxCd9f/a6SR88vmXZkhaqypGemADNNMADQSS6/ELQM1bnSeOKCQb81vv9o59fGQAJGDijDcIdAJQtqulwAFBYhkwo8UGK1tvaxOEjvpulCkuZTOYDLgUf5O/FZ0X7cRCqIAl6ST+QFGuiFBdyfckSsUjDT5QeOlw6uopGhGmh9efE3px0gAOIpAUYIU4dZHg9XiBUIlzv66o0RUd/EtK4BTkcoJwqZKLWULzSZrCi4ggaiR4QZ09UYlD/To1whVDDH/1h/YbxVQbA2MLuWNcMReEyMJ+XkurILy6HqsahRbfTf6x90QVj2EVH1wHTMPjmzdUm9L7wQBvNjTSrTCRiSiQf1lgmznzyoStqXD5E7HFT+Sh+auy/1/ww74bcgznV2/buNbXuDZffzhofIkrTlgMvX3XTwj5dT/+x6ciLftaQ+Q1TcdSp/zMAnHjF6O+GXXrpW4l9ux1maueOe/Xmb59+7sU6NkOCLMNUONaW5KHRxUNmdxv/Sp8jR8wnfnbdp0899rJsFMskI97l3OFvZt5w863HyuoWv/H+tdNemPiiJ6fIVYsryPD5EWBhROwwXEROpk8iYoJFa0ErvxyVX5pTOeF/pL6OBEBLcgBQsUgVxknOEABSWRcIAIkUbROfkSKWFLtUwCkeS2glM+T5NXyavx9TBGVFA/e4wEQxvi3oKrHSNgpmkaAqpVscmdJoiV+0LM6ZI4qPOhlb+pVkSylTSoIJVCpCJYQDa9TF5cn1kVlmwB0ph2SHIIZN8THBOiY+IGV/OTSKoUVJ5MTHs6BUhCX+SM/k9xrL4fXhzhwRFYi2HyBFm0jQgGRIiIMbecEw9qk27DpVs8+5++bb2NABR+lW8oXb09dPeOm9dbO/7mfpOtKatMzvd9ut17DBZx7FQ/ysb7+NfPWWJo38SbAiOvJsE9sQwfVvjh/ABg78rvI9b3z7w4dnzZh57k0fvtn695qLyv3+7gDIl21v/vzTj79w2+NvDmQNDhdU5Ot2Vnmjz4DsLv5EqOVl8HtdKLUCsOPjsL6gCEMfHjOcXTPisA24Y4Pn27a5jrUpDV+T7cN3X1436ZmxzyZwhkS3hoz4eMjhEIzycri8bmHt0YbcqkZqyOpRZOIY+NG1/srWYGUANGUTXLKgWI5CigBASIhQkkdQd8h1tAWBlwQRCNKIM8hUDUErLLLFhXEapuWTC7xHJEiINxgHU5SuiXK5qCtLtb0uSRbBfmH5ASKWFyNL07+pAh4lRGCKWmCK/YVo43eK5VFw0bKRbgGDpGRc0bwT3DkHke5WQTsCC5EF2lsjals6gqsxAHQSTbrkWICH9AX/F5/b//4aMXGMyu9xBW1LKN0Y4nvQ3C7xrusByjTT4uVBsakjJxxC0O/GhXfecQ0bffGx5fY5dx1PLLXooWcenjfu1fsbJCeChYKwdAO+pCSU2DaWR8oxau8mOvewHe0oTHbb0IuXPj9+YseTrYE+2Rn+XQFw0yfTbl/307IuFz7/0JBjDWzv6x/eu+bexx5rxkkggN5ShjI9gAgpFCteKO1br2rz5XttT+SmaK+L7Nc+vOuH8a8/mBwyUC8pGTLRUNwSQnpI+FFCCJT2r1BUaExGmPh8JJkeFRQ4EviE5FEl9ZQTGcefqc2RAEjUE6KJKFEAJOeUSrhiAEjWoWY4sT+LNuFkCkxSdiYlGA9DkU/FN/t3YnreQZEFJohp4kpCi9p1RLC8RAUW5e7HxoIikdE0SZkZQPJ/ietdkzPQMCENLluGLGRonDgsad5vKDiAReW5oOLVIOEa0WdoRz4TqAFgaGIdnJtWC0mhICI8CEmRoNHYiEkdq62OVm2QHSqsWirBE0KxR9KL/kxP8OTGWhn4hCyaSCQ5ddihSFDUZLu8LrEwGVSKp7lh2Bymx421OdkIpSTgsoceuFm7cvBLJ3rlD6q35K0sDRqzwGwdvjgvykpKRXHAajOCsye9cY57YK9vjtXfxJG3ruh65hlftBh29mMner2Tbfe7AeD3j734WXqV9MVtrrr4uJsP7R77xtgNjz93e3PN46j+EvmVqircHpTrwMHqSblnLplOhQY/e+hPj79t0mPPPlfDE4/kODcU0xByScShIq6dRg+V9rrgHD5bhRRxOHik/EueUiwLWPkFIfATcZK/MAA6BF6nBMySKAbouKIiuWErAjIIAJ1/N0V5lkdnon42HF04CBQlhcNQTeRIOmYc2I75EeKeOcow3ZCALo2awq+5hIX49q41+OFgjpCapzAhZUYyOHBFzYbokVJdlBb6uSLI5kyjrKWJMr+GBSW5eH/rWpDSLW14RMKsFFektauqDUxo0xvJ2QViIeW2AUVRhU4iJWJivDwqWaPUjCP9Ra5xlMD8u6WBf+nN/f1/P9L1jV1RhHtocbCYkPHyqxo5QygxgyLzrsmyEJTgquLswyJrMBUXDuYWIeBScfF9d17NbhxxmJzWse7mncRG/HRfOvRAKfw+NyyuQ5GZ2MpgrRVB66fHXF915LBXjjcT8196+5Py/Py4AWPuHPB7zNbvAoBPjxg598Zrb7jH2+20xT836NIPpl4585a732pKiruyJojCkqQixCTkmSbqDD5rUt0Jj4w4Xh/5b3xy45RHHnopI6ijni8FPBQB1xyyl9iZjNQ+FBVBgyoTZKiSCiXiaNsRi55Ajjh8sWqImJsQswRFvW40a/Z7TP4foU9GcbwoAMaI104ShP5dqhAuJRdSCKWaMiKyjDyPCxFZEXxJt6kjTg9C9mrYr5rIpeoELQ68LIQMLqOaPw7lRSXIT/DgnbztmFGQj8KoTiBVyxQuM+wAACAASURBVKWZwPUZ9dEnsQrSSiJIYBLKIyFImgwLOorcCnKqpOL15T9hvhkSFBsCVzrCElDDBp5p1AFNghb8xH8LlQtJe5WpwroRlBsB8NGThFUYc4Edqsnf4ajMbBCLvVDfJmVYLgj6JIsbkXRRYKASx5U8MRJFUDVwLsEI6ojT4kXCZLcZQGG8zx7+6CPD2LAzPz3e/P3Y+6Jdvs376iRJDFTpHAiWwuVSxbMgF3jo55N6s56djhJdrdxfzrRZIz6aNPmeWz58q9mpfk6nFAApk/P4kIuX3PvcU31PRK6Hbub1qvV4R1cc3OUWfJoPEQsoi/NiYXEuRn/9YVPWucVRO9jzz749Z+rd9052l5bHVfX7BWmXYlP0Igtl4egsiViS0F1yZJ9i6sFkBQjXJ6Z48rPVEqd6yv9Y/REAOqovjgVIhwBA8mtFFpiSEJYox9IljqCiYLMVxvN7Ngo9QAIiMtGfbdQR/tJyhKhEkMq0uCIghtSbKd5KfRUk+PFB9k5MK8wRVBiit1BGNo0D12Zkol9qdcQVlsFH6tQUd6QKFIkhxzAQqFEdn23biilFWcitUA2kGgoT9f7bzwM1W6ONQnWpYSg0XloHKZFiOxafE8OMurvEfYwCIP3t75AJPtZb54RASI1IgkElj1R9QzNDoQ7LFlugxgRtYzXipLRNqSkSzQgrEvaVFSKxRZPtXe+/+1LWp/vSI6/Dv5zT/40rRk9vl5gKbzAotDBNFdhZlg+9VaO8gbOnE5PpF4/IsmXNH/rXf2Y9MW/GL3qEv9hZpQanDAD5zp1VHr7jvukPfvHBCcXsYmPgG1bUf+3MC7bV4Qmwy3SEZQV5bgWXPTnmPPcV531V+Wb4/GV1l48b98neuQtOa6S5QUkOUnWLVTA4QgJRFhmn0qeo4oZw86IKx0K26JCaSkyM9GQm7a/VllxBBwBjlR80h0IcQWSBKaVA234CYZmj2KVhJQtjzNb1yK1UC/x6656oWULJECr5o5XIIbPEXGtN8yLH68LkvdswoyhbVIIQANJVqRTu2ur10CetJvylAZGxNZgldo4zSSorKQn7VA2Tli/HTwihVBS82VDEnsNhIYbwUNVWaCF7oFEyhxtixztFEbLPUb6fc3/OQR9xZRrMz5UL/rWe9pF3QwugI9fl1IWLLQkoKSIMisOFNsRCEu2A1IPE+4IICmUb68MRnDb4/G9bXn/ncNayNhnpFUfhC2/c+MVTz79U0+WBXlKKAiOImt3a5vd++tGGrGXLw9r+3GzzHTsSrr945P4JS+YmMibQ+jcfpwQA+YZtTZ98+NE3//3xu50rgG3tnqR9r781ft0nX14cLC1By3PPnNPw2uG3sd6nH7UJOJ0TnPTJRXqRnql71Ny0Xn0/Z/UO398j/+5HH/nx7ffvS/W64eUm4sUq5dRU0p4VVJ1AK1NMkl22DylpEmnDEQCl2taoxl00tldZhPQ3z+afsgPHAqQYnzM/zjxSHLCiPpZbYptNUu0rdalCDuvB7euQTadaQK3/Kro83bIPqociQkuOSgFpXw9aj3QeEbFWCj9kyQwfHdiJ2bl7EQEJrAoBLkFmHlG1Prqm14AvbIq9iS2ZiQy06ZWRpYew8MB+zMre52SD4RIASBICRKCmTZifrNMJdSi8IVvChYuIrQFkkdBxPmqnvM6J+R7aeS4mUvqnfHS/ddAxTmRsb5No/Je6jSkGUVJMbHkaVREiFR/BehKRJmJl6gDtdQIN+SEDZVzFOTeM/pd633XPHWa8bNqUkr1o2TCjpDypZrMm61m/XlOPNXz+1YweKye8/dLuhctbUFlgz9FXTky94M6bWTvmyCb9V1Ltpi599o6b/EZLlpkZq7j81TPxmwEwsmJFy4kvjn/llvfeqtg7l6zBcb2HZDcJAQ0MBo8qI0s1sRpBXPnBaz1Z9+4nvIkK//HH7uNGjf6xcVBCddkp+vZ73aJ2koQjicRM+0uQOU6WoMcg64UemrPHrKOyQntcOCucs0EPGf2Oo0yf0S/Ve/7q2f0TnOiU6FFQwAFAShY5mnXR0IGQy3IAkGqBSQ5rxX/jRPfvWoUDYo1xIcGyMCy1DvxlpY7VZttQJQ0S7eUBZ18M1ZZRrCn4KVyOHUYQJLJPTi5tPhkHjg5uP+q5af8KhxRNZOmQxFFih5ATCWIfN0CikCGoiND4FAbVDIs64p7Mh7uadEZSQQlFsQC3LOLIhkX1LMRpJAFSR1FbWKhi46TKmyX9TS1A8S2QZqKjfC1oTRXeEmlEkoK2A370n/OdORvak6EhcVPUAodCIYdwrrphmAzZFOurk551wbhn+rN2Lded6GdQ/MHHg7/81wOftYQHaTptiCVjRbAYRZkZZaPefT6FtWtXAYJ39zxz25MvPtOLtToxkdbjjeE3AWBk256mr7z0zCu3jnu5R+ULzDhv1E/YsadTfFkpkomZbxlCHSXLtrHeNHDzwRMTLdhz9d1vL/r0syvqJiVAs3Vnr1rICIdMuDx+sTWkKtSOSHyARkA1n45WnogJCtkjcn0PCQsQEDornKMJ/3e3AGMAqJCSc0yGPmoBCr5cNBYnKjS4jJDswmqYjhoMnaB4hUJzBtFhaA+RqKNZ4SpFa4IpVkhvL+n5EQVF5ZSictxkkWGOlsuJLHS0CqQyLNG5lNYqE3wmAjMTXguoSaVwtRrhHE864gtJCMoAc8sIEKme3habOI0QMli03BGlh2LBZOHGvIIT/UD/au1igq70DMgHiG2RQPfp1E+TsKuzEBL4UXw9tgueajqqQbLkRsDUxaJDWf0AJaBUDbrJsS8cwDk3XP+s96HbKvbfOd4ckhLNm93ODTVzaYjXI2ITMJc3DqWWgr2mhRYXnv9+3bH/Pkxm645+Z21/+NmnenlbtCCpyF91/GoADK7ZVuOZsU98/GAly49GwOdw5e2L2xi1ZQkZHg0wyimULjTfI5oPmwJBDPv4g5asx/FXBv7j0i4Th16xsI03Dr5ACHEaQ5DrkFVFUDC4LUMnlWKPB6YRPkyEMqaWHBMMFbJTlRIjsX1rHRA8WlH5V83in/ikmEiDmK8KlRSymKhSgkRknUiPyBJyGRGJ5LAIAJdhD30Csps0qwDJWZzF9h7iC3IUn2P7lxDNk4xK4njS0kSCC8y2ITMVBo84dD1hspNgtiRkoajig1kGqJpXxHrJSqEd8yxdWKS1AfRKrYb+NeqjVnEQSWEdjLbxBEeQ3FzVTQnOqCXjAK1Osa7oB+4U+f19D0cMw6E+idJDIcjrzEfMkIhqRwgAjEn6i/RSVEk8GDThTUpAwAwIgRJ/nFtoE7otGaURA7tsA3rdmsVD3325beXStyNnnX808+wvb7796zoeFT7ZEn2ZRHWS4lAsKVheXIibSrYehVc39eybNe71CY1Zgwalv+ZJ/ioA5Hl5cc/fef/M29+Z2PGoG1myKeXN887L75CQAqWsFKYdhi/Oj2DYQFD1YEtZACPefOV0dm6vBccacN7dDz8168137qrt9iJBVoX0lEn0FsOEy+VCOBiCy6NB1mQUlZdCc/mieyz8H3tvAWZV2XcPr7332Scn6ZAawoEBhgaRkBAVRaVLFBSwEEUwCRFEFMH2MUGl7UdELNQHFZUQFBQDBCxCGKZO7/pc933OMCgwA+rj+77/b18XF8qpnev+xfqtldR1k7U+KTNPCgRHuSTQSc9Y2RxhN0tGPIdFQU/mBP7v/0xS345rlIyYGWB5DSnfRS8NprVCuo/Rt+rDZsXE1N0b8LMgkBMEhWGxOBWc6mB5lURp2YdlTGgmHD8k+UQ8bEnFA9slSOmWw6peUg6MF0z6wjGO49AGv92tuqDGTSG/T0OkjnoGetdtglocdyO9wpHioCYlxywXoLkRdkmtRg8pVolmj7wP5L7/vwyASR5o0reEohdJgQiZKR3ZBEm6Bcq6u7zzvW4fQqEQ/AGvFAqmDQGXK5Y9fH5ELEuQ4r+PRnDBteNuyLj1mqPygoP3P3PxijvufrZBmh9+k6OqqtBKVKKKbLxZYYz56euj4tW4tqcHH1r/UfrJNEZOGAAdx3Hd2n/I+tkvP3fMbu9DDZo4zcMK6ugeqJqDwlAQLo8PBV4PPgsX4ur3P0n/g3/A5l0ZK6+7epPnm531qisKUlP8orYgC9YuobTsUjXheGiYMZj0s3VTpFMWtEmFOaz1Jk29pboyHyq2QQ7XtugClvTcSNYFk+9NAlqSMyZ6JqVQLvnAHNaBS8hcJWonyX9Prpwlfh/Cj8MWvyuBN+GXe5QnsDQvrfTv8HOHXzucIMqVXIqsHj7mw2NefP2w+Kf8/T8er7zZ+T6+n6Y+/C3Wexh98byLkrfiETSYe37+QqSzIlpIpKxJJZfDxBIFXjHDKwGMG1Nd/jY7wPybn+W/yWqUVIzhv/O7kt+X9Bnhe6kY085fGR1r1MGp3hRUCBlQw2G4fAosMyoG9Li4edlkoYmTSxoi6TZnlqXIq2j6JGqc/1Pqv8ko7PcyaklWwxHS+qWu85/jMCafCf66bIYJmwBObSRrwozGaVTPslKiGSKaZQl+rIdk+UgUPq9XjCkKLUOvnBASntZkEvA+cvvxdWEBap7TfV27qTPOVLIrS1GgxOZ8uqnJ00Mu/ipb0VCRikSGKWr8usuP7+0Ywq0aftv71ZeyjxVwjG59WvCpzz6h8NAJbScMgDf3HfDN7JdfyDke2v66aMG4D26Y81BTx490qiPHorB0FZtj+ah2af/HOs6Zd4THqLN6decnB136QYv0KkizmBpJgVGaByVXqeTMpvg78cBI8JKpWxJwxMOdqPmVBo/DOHNYGLO085qIdIT2XeJhTERCrB8JsEwCXCJ6kc0VSFI1IxUxHuYIbwcSSL1xZnA2aIAuzLPZiLEtpERlLSrkUWBSwdfiyBcrmxxNSviJsLsmfLwdWJps0shU9TB/UYptyk0QlKl6nEj3Rd2Tg+70zDClWAFTGI4CehLkgeTxym84/F1J4C/9YJWelGH9jg2nQl1FWKe+SsLkRwBMYuZXTSpL8/dIrZDie3IOIwm08jeFO5oA2iRNSdqBJl3VbJ2MGktM5FDc06vp8ECBN2bCHTcFE0B8pyZFFei9wikR+gEzpaNmIRs7PLey3ig9ekVTTDQAZIT4T2xJP2LBx2NLSFUSxHPposf83dFks0ZnU080q6SIgSEMqw5nPSez/+J6aCoUS4M3Jr1TIq4YbI2xPssaCmKcnHI0kdLyPhfFCAJgwrZB1HKppiSKt7zulqAwJbmjbhbALAuOqiNuKYgYDnaYIQxftTxX6dB6S+n9fnvokHXGOx+1O1VPRUDziAWsSHFhkxXC0CUP9dS7dz+maLKzbVv1qddOWnfHO6vIiir3dkKX/t5rr9kwYez4sUpOw81l/cLB2++9/637H782JW7C49IQVC20Gnbhs1mPzBtZ+rP7H7z/hlduv2tOl7RTkBaT0RqH60mD8Pi8cmQt8QSKEDxhCpQU+ExGPWXtz9FeF/BK31qCmpZIlUtxnURZSvzm4ZQ5GSXxoeJGxzTeGNyEQjWVoFUVflOBY9uIU3WDAEjxUMdGKt3AKQrgtgUAinpYQlGFhV8+lAQ3YVHEdE7VxY2Z9AmWoE3uo6TzUJggeV4E/SNhv8jUnqu2Ly73LUatKYoOJMbOBcWEPL7yOioRPhLeJ8lzKSCEgqNgo0GeDwG+iXOZnL0WhlGJa8h9lO52MiLm8XDjA2QmzYtECp6QwaLcO88v7SxZP0x8gOeMAJGc4xaLIJTD5lTs7rMTnJwEEb8pAVD0/ln7EgXCw77IJ3MP/ZnPiCsiwI+7ROBwBNeSm9vm/aIJgBb/z8CA+jgic5Ade7EAH8XUvbz7RCAlYFEbMRBPEQWLsDsOW4tBoa2ouC5+wNGh01pALGTSZlamwKrYR3EteJ4T95TJhYX3O69xXNpEQNfhc3mhBi0c0hWssw5h5NzZA10XDXqx9P5+cn7fz39euynXZ2uIORqKdA8G33bjtf5xFz9Y1nEdfP3NC155843bxjz0QLm5yOUGwI3PPPN0ht+/o8GgQeUeTHb27KmET7b0MuJxTW/S/CMlt+6u0gexe8LMJZ8senZYq0pV4DsQgh2OwZPuF9FilKq+TGncTGrkxp3lik9Akqv2n7t5xc2UUJ07nDraYkicv8N/I6CIGpIp0wCRaiZ8YMU+MfXmlAS7ZOIGIQdOgZ4wPEoaHYkxpESqSikoEfEwthN6eZRrKmV2LngHtFFURErIh4RpnSw8y5pl0tNCTnLI9xBcZPQn/4mRa4ARp6qgmD0FBQhQZMCRx5Xk+yVBqKwb7I8AeNi3JBkxJpTFoCYjFo6QiJQzUUrg+WMZI6E0nQRGyTOTtSX+NyNVHqsh5LhKRbslJQkJpBxx5Iy3lwsZhVm52LAsSbEzGrQL2S4ZnXPfpLcy76GEBFeJ+15ZR//3vk4DKQJgjE6HFCUQjQZNRE/StlSgpLjPHNWEKxFxKwyRj6oqXvb+0hgqRkVbEAD94ndMzYCtRAACoLBu9cFhYSFJpCAdT3XEdTJZ+6XBl+0kRDLkNeRxcBFk1J1Cugykp7GquOAGZ4o1FPtd+CI/D+dfO/GOSlPGTi29t86WLc2i3/3YylG1mK9zm9fL6wfO7/j88aceCqSnmw2HDJxQ9hk4vh1CyedDX37f9tWlC+4fduesEq6feOYOHEiFaXqV6tVLXObL86N8zyd9Rn928OMNrer6PfDFYshwsZtoI6wYwiM1Gg0jkJaKeDyaWPWShtLy75Iogl1hESElo4oT+zsJgOJ4eIuR95bwbZU0kERNSggEyFRYvDexdIi0VXVk5KVYYrUTannC5yMRNQk3sMRgvhgvkw0Z4baWpO3Q+0GggaRpGKIjy3RaRgBJQqr4TsHXS4wpHWMR4P5R2oopIf87xJFPoYws72RxXKyxCKCSUQhfKetvHkfyffITCYFR4XUuSceCOCt0A4G4Iid1SmqpCQBMnlexjCU+w/9mVJqslYrToUoA5GIgFhfxQMlj4APIVEwYnovJEwi7TYKrADlHFTQOgrGEj0SJIxGBiv0VI5GH76mTvY9O5nPcJy6gYr9ocalx0UsAtLDvlA5wPD+8/rzunNjgC7ooLfCDlHPj1M6J3fey7GDDpBAuFwrDJ1Z6i918JQ5NlamCYjMA0WEoLllqEnQpyRflIswROl5rf5z8W5nRyFSavTEFeoT2EjbcKSkI09TJVoTdaZhCCxUy8F1xMZr2O+/5nEfuGFxe7Ei+j5MhiEYjSk7OEXJas/oP+vHWqbN7Ki3qf1fWd5YrApzee/DO6aueyyr54Q1bsjZMvv3Vnes3NuXJ16tWRf9ptw5Shp93zKHo0jvyn679t7u2/9CgIk+MqggLRGEqHgrCl07Qi8PLsMrk6icvLFcreVPLeFBGELwX5CEkmeon8jcffHdiJIrPCKOEZGohxoJsAoh8mvh7pNMw5RAlY/Eg0tSMOnr0mpA7YYpox5JkbCZcQm2I6TDLzJpIGSjqyVqhmFxhy5Spb4KkLVMcmj0RaHjrHdatk/UrWQfiTSVc3Dh5oXACRnIfGTkla37ifCWi5ZKapRhvSwKgvHmFIOkJPEDcr5KyhMIapXyYGPUGTCmxxPcQ5GjtyAeC+5aM2IVfcmIREICZmOpJPpTJ6yn2S2E5ntMd/Ff6E/M/WCiQsla00eXnPEJgVYq3Eix5PRjj8fgYPcuaohyJJGeUJQHeUS6TQvvyvCanH/5bf3N//HTbc4AIJ1hctEPlfWcLSTBO1Bi6lO0i4EnQZ+TL+0saWklhV2mjeqL7LZ9JXksuBGxXUSWai00c7mQ7yqHsmQ6TAEhhWUsaMrHGx7o2I0gu3G5LF/VcnSpCqibqw2QP+IT6LJsjhqCtFRUGkZ6ZIRauYCQsQP9HK4YqPbt90GHhv47gEx8LvEL3P33Vyof/9Yhx8ABUTUOjnp3Xtr7rtvOSkyGOs1G/oeXE2NzP1yS5BsfEwTIB8Llrp348aNTIkUk0ddZurP9U/2E7clQXaro9sOIWClUN28NhDJwxpUyJnH+37vFj5T2HalXVVLhITdBdKI6wi+cBXBoisSgCHi8QNUR9zscTXxKxJDhLLPaXAODJ67lJ1RN5Cjh5IKdEZCRH3KPSScCUKzBTq2TUJFIrQQSVUwWJ3qtQjqGUkEgdEqN2lGXiZISYSRVpKQGQKiaS28ZUhwBI2Sd+lmUuReyL9LPl/smb+zBdR6g2i4hAfo+kdcjyACM+AoJsvCRLBYdDfcJECQCSqvAnCuksB7BuROP0eMI4KdWQjRpDtYR4guWWAHnYQDxp9J6YQEkAoADIRF1LBmwJUOICk/RdLuXTkrSjdFHXL1mbJG+QkY1iiQhEXMNENO83SYqW0QnBkaOTrJN62HAq1VAqK2L4K18XZGMCoG2L2h8XQdKIuJC4bU2Afki49R0uCQgeY0KZWy4zh0c+T3Tfkg3FpAWClD+zYCsxqFZELOSORg0X6V7IxVvoRSaKUhTQNUk8p64ga/O8xy1KzKki4yAfM6BqMMIh+L0+qULNe9aIw3YU+LyiRYIiOPi8sABVe5yxudfLi45bv8ub/fDcd+59aGJD1Y00jTVeGwe9LnypOrjyw1UlthjGu+u7vPbKK7f3e3h2t+Odl+MC4Pdvvz30wA/7W3YYM+LG5Jesv+Cyzb7vt7fIP/ADMgJuuEymem7orlR8UJiHS/P+SFZMfvaVM875sequX2tVMRzEjDj8HGkzDBiOAY8/gFgsBpfmhmM48JH8FTXhE4oVh1NR8WgoTBcSOnW/c1o7kZuAD2achXBGofS4oPmP6MQyIpPpa0mVMWEanmx+cERI1LVokUkP3Zgj3LEIgrzwJTScBBBK1n3CfIkpLOskgggsH2AqMjMSZkpKYDEZaZoK/I5H/I7hMkXay0kGmRKxLsTILdFVLVUnk9GZ/Hc525uYfEjSZRING/E9CePuEzlvyfdyP11c8W1GelJ1wMtzojACk2OHIlJjxJegJTEtZWrO/S8ddRKo5CyyjCaTm2iwCENzTXSCo4kFhw8tTQ08oibrICoWCEZ7dsJJjrVGR5By+XkZkZOVyIWHtVVFnHcvBRX+IQAUqSJZADo7rInrycjOJF2K6YaCmC6pKmLuPREBiig3seCIjPhkLl7iM6I2TQsEUxfnpdhjw3aZ8NoxQe8UmQqBOq5CMw8zKIReJsGZdDRGoBajcWp6ajB0FRFG2CxZxA1Jc7Is4Z8dMim06oYVMeBz64hZUTiaCtUTwJcHD6HGmT02t3/h8aOCIEds57c/c197bwZ85B8wK6MPsmFj/6EYWo0Yurjao7eXyOctv236K13atHu2Rp/eR5075ik47rmbMWTY7mnLl9ZNnl/nK8e9qGOTWEu3Dm9FIGwExarqJdur2MEXZhz931naSWnbdu3vr8nr3ft8re34PjsLOgJwCZa46tHlA8zHhCfOYvqioTgaR1E8Bl33QIuyGyF16WQalHzgZSrMz/8ZLpQ/PSC8V1msJdiKeDPpS0tSJ++CUil20raQDxTB8JBtIBQ3YcblHaqIri0blLKrzNSdN4pPUZGquZAJni9aFJryZxRJw3A0SwCwY7E+YiPfsBCNO/A4jAkY0ZlCdj5p60ixB5/hoH4gBTT84e+IYDYRxRIcBbeOUakoFcgUkH9Ylwu5FdGxzisoPGkyMMFMZUQr6DoMtVT4dBd8moZUpqU2Z7Al2VxGz7KWlfxDAE368yZrm0l+ZMk9x1E2Rh+2ipBpYJ9qoMhmGsbyhQY9KherMIf0XQoCiooURUOKSxPlFVqcEuR5jUV9ypGNJf6JKcDBcKTUhMOfQJKT/CgJxAHNjUxGcqaNQjOKoBlD3EzU2VhioF1rAgCTXXRRmSYI/klFa4eLP+vAJuuPGuJeBam6S4jUprAJp5giSIjEHUQsRzgxMjWX0WMi2+HCn4ASTVfh9ejw8vyzhERBYo2fcWBYJhxdh9ulw46akuhMAVsWK0wHlsePb/KLkHXuWR82XfZQl9+f0t3PPn3plhvvmt9c9cGiB7IORFkE0L1Qwm5ssR30P/jZEZh2fcv29r2b1x0zFT4mAL4364F/d+vZ/Q6lfbONJTej47iWV2xhtHGp0D1xmGpcRDssxHosLzZEQ+i74umO+umnf1J6598fcNH7oXXrz6hHeaJwBF7dD9v2CgqCCgNRk0TKgBDY3F1wCKcPvPDl1E5tXrAU5r8yxI/KlE4mR+KfbBFy09gIwv/hd1spE4Tfv8rGh23aimIbKft2b89+e+HScbUKgaxAJlJ0HYWHDiLNz6IwzbVtev9ISgpXL0UXBE1GrsUeFYU1KoS7X3/N6HgkqNo+nxIXstYaAvAiZEUR9XFw37EDphn7/KXXrit855PODQNpMIyIZMurdMIAolYQqs+DKH3NKlUItps44XLLNiSZTdEdgxrLmsa00uEMmerojudgUfprU2c9luX1w+fzIhIqFgAkVm6aYuu6ULmiKTu7qYZhCX5VPhxsQxDV2rf4ql2v3ouUFP9PbvqjMKWnr67YNGgaOVyHo7HSZ1jlfvCtlgWfz42icJFiOU7qwbx99T9a/sqk9O37lZyUSoLT6VimiOoohAnDEj4UFKQ1ueAlFhj5QMnfkouaTFep6qLyBlfd+LroAC6ce9uoULrHiNuKItLFiOloqoY8xNk0c9TioPnp4hfneL7YXacqa36cwbPjACNBzcVyFOI66RUKsnt2fSOtS5dFUbcuUNxJkCsVIQUu7zWL6HCsjdf6mK8dngj8w1sS3+21TWPX2rUDdrz30cDMA1Hofi/S2jfZUq/f2XdSWMzy+WCZIm9kkaPka/hfeuI6MT0lQf2ILfGcSPMWMXv4x43Xj8mtqjoRKwK324e4Ydtelyv68yebztq9fMXldRU3XIqNA0YEae1bbM8ePmhyk5FGtAAAIABJREFUYSysWl7VSVFcdjxm0tXdicPSLFtR0r26c+i7HXVfe/SpOdlaCtJCUVT2+1Bw6FfoKX5R7gqHo3CrbvhUt3ieuOuCt0uuJ0MhR8d30TDajbv8oeozJo4vveP7Fj976YbrZs9vrrihMGv0umDE4rBVN2wtDWvDxRhecKQlZ/iVN/tv2PDZ8K53Tu53tNNw1JPjfPdD1uJ/PfbYiPtn9/r9h15ufuYvjYKRGno4H14WbhlNGDYcXyY221Fc/OmbR9hTfnftLfftfuOt6zKDRahIUrBhQ3cHYLJtyk01YVpxuF0ehBUNexwDvSaOG6dMGPPIMW+uv+GFvNvnTlj1yPx7G6ZkIo2RSzQO3aUhZsdlzUVnkuJwd4WEOIG/IM0LI7fRz51fWMKZ/DK3p0eOfHj/v9++uuspdeEKhpGiatBMl0ihHTUuGgZhVYW3afZ3rVY+f2pZX8iI/KwcJTa+WSdkGg5cxRGxetN7wTBiSKF9qNhfB1HTgZYawJ5wBCk5WTvbzLqxp9K+/RG0pLJ+70Redxa+3O+FSdNeapiaiVR2/owIbCsuOKG83hoJ3qyDJrqbEvgksVd2hSUAOm4uJEDQtpHRpvnGpv9+qm1Z+/HG+Em37Vr82vQ2mVXghItRweuFEw0jI5CKgoICOH4vtgcP4dybr79BufHoo1ll/cZf9fqaWybPfO/Bx6cMymqNA/kFaHLZhQ9Xuf2Wa/6q7z+Z7/nu8aeHPTdu8pILGuXAVVCIfNVGlQE9X2p4311H9fYp/RvOF1+c0iM396cJrc9AjYgF58BBVAz4BDmatT+PyyPoPU7YECrwbI6w5u7164jHovBrHhTrOt7f+zMufXjeeO9lw0r8R5yPPsp5buDlX7Z1p8EVKRZTQbruRr7l4CdHQdVzz3kze8GsP0jn333uoH03zr03R2l8St7vz8dRAfCJq2/4dMzkCd2P5rPrvL2+65KRl/+npdcDf1ERfC4Xwj4P1ublodsN18w8ZeqEackfcZa/3O/1629+qYZpItXvETL1cNxQFR12XNbL4DJFsVWzPSgwDfxkmeg986ZxylUX/1cBkPu8f9Gi/i9PmPlix8q14I3GYTCi4sUzY6IhwnqUIM+y+6gC+zwq8hvV/eX8N1+mN0+Z2xPXX3/XY/fee1Pv2nXQObUaKodtBCg9H4vB69MQsWMochx4Wjb7tsWKpccc+yk5v46jV1SUeOPfzMYn5nRGlqUDwWJoVgwMahhpCRKq4SDdnYofOZPbtfknHZc/3bHMnf0L3uBs3Vr16c4D9zXxpKBCwI94uBiazpFGG16h6hOC5nKLUoEcWSzN95OqzRFOGXgD2BsKo/e0G69Urhn6WFm75mzbVie3SZPdl2W3QwdfBtR9B5DhdgNkF7h0FNtx7Ajlo8/dt09SLh85r6zv+ztfXzJj8q1PTZs169acnsjffwCtxg1/vMH0G6/4O3+zrO/+6NH5w2+98rLF45p1RZ2iuODwVR58zku5991ZJgAGd26t2jir2b7Ouh/nn9oMWZaK1JgJKxKSz7vbJYIIv8G0XoXiVgXflxNTTOlioRA8aakIqSq2xIswfMmC9kqXw0rTHwwe83pwzfreDRUVnkgUmi+AHWYMW1N0XL386Sylfe4fFvXolu+ynn/y6eUXPzS7XZkA6Gz5uvV7b719dY8brr30WCcquujV85dOnvJqZjgGJxiGlZaGnuPH3ZY55aoZJQ/ntm3V53c6Z09rrx9VdI7BmIixwOvyCTUX1i50jkzZYbhdrE15UGw5+DEWw1kEwHEX/dcBkPu+vP+IJfaW74Y10HwiSmMPzEMeG8HbMgWgaF43LJeKHXYUkRbNf+2zYkm5ZLrvvnHSXXfOmXsTFZCvqd8ULT0VkRm2oQaD8PkUxB0DIaaeLZrsaLFyacOyblTHcbyKrkTSTaALFFx6aifUUTT4IhGYsSA8HHNSFAT86SgsCOKzUD4uCu3+MzXzsnbpD687z644b/mN017LTsuAJxZHNFYMr0sRai7cP94Tsu535OC9lIdxQVE8CHs8+Gz/Hly26uU6Sqem9EUqc6sAOEJpOisXLf0ZqBCKwROJSeEFrwtb8/ei76xpk5SrL/tHAfBfc2ZMue/GaTOHu2vi1FOy0OzSC55pOmXSqDIP8G98wzsLlw0bffHQJT19FTE6qznC4TAy+/d6tdXcmReW9bM7duyo0rZBg30VAKWN6sHgpm1QNWohLWLAy+YlyyyGiRSFkSArExb86amIWAYOFR5CtUqZKA4VQfd6sDsexfYUHZd/+G6qUqVKMPnb266e/OSWF14enaI4KIwZ0BvUwcCH7ztN6ZB7TA+ipVdO/HDomKvHKa2yjhBk/sPDcNfQS7666cG5HcrDvnY2bzgdEceLWtU/VmrV4nx7ybai9dk/1iwI1Uq14tBtE9FIHKCTmMcjhqM9YsknCz2aiKzciCsu/ByO4kwBgEP/EQAM79haq0uDZj9el9MRjRQf7AOHUEHXoQu6BDtmvIQOTLeG3ZqDcPOcvD4rFlcq68bg67ffPm3OjNtm3ECfXPpYDKnWBN3SqyMzEoVjhgQARsgWbJWzs/nrS/mW427OT45PqaWF6d9GhZQWUHF1o3aoG7Phd0jKlvy5Qlj4ORJDv9m3XaWMGX5MB66yfu9kX7+6ct2is/3VU+s6Lnh1wIoGRYPEooIM3dsSIrXJ7xe3hmC5MZ3XcUAFvknRMPrrj8sN3hOvHvfggkcevoaWm+Nad0CbYg1VwxZ0VcGBaBgHdRNn3XTdJG38mH8UAO+5Z/r0eTdMn5YDKAOzz8Bplw58IffGqwed7Ln+Kz73/OJlwy6+aOjieoByZ1ZraIaFykPPW3nanDv6lPX9BMDsBg32ZQAKlQnaugLo06AJWisp8BUEwao+y0qc9PJ4fFBNF+JRQ4y9svxh23RrBIqiYXgyM7EvFEOVMzp9lLvo/s6lf9v55kBqdM/WVt6qmYVKTsvPy9ovZ9v3DR+aNmPF+BefZcJUsh1xQ/FNq97495xzJ07sW9YXHu/1/Q/Nn7Fu5gNT68ENhWM7muzk2aqKsEJiBOBXXbCNGDR2gVhPt1yIUza9OIyzp996jXLdkIf/zD78mc9WBhyyvsfndEB9xYcKcRtGfr7o5HrdLlHL4KjPHq+OgibZBResXJxZnt+bdMOkex5++P5JiEhJJ+rZjUpriE7VasAVKxJsqwi7cU0b7W7x1nNUej8+AO5yvK563gibOopmCqNwts5G1m2NLFJE4nHRfQ0FvPgqXIgRy1+sqHTMoZfRf3VbedecSa/dPPOefqfmIjUWR2Vdh1lQJJS9wxZd+ZIeLZLdx0RY0o2YJun4RVdQaXifB3LunHpdeXf87bff7tW7V6+3SMFgfWJK/RZoFNeRwp6wpuLrgr0YcNdtE5UrLjlCur283/9XvW/eQ3fPmHPNTVMaEACbdccZo4asbHH92DKB5q/6/aN9z1OLFw8bPfKixQ1MKLOzWiFgATWG9Xmzxezby7Sm3LlzZ9WsrAb7yC/1OrbwfD5DT8fwqo1Qn3hgUWzBQlA1RPmDBGqFWqGxGHQv7VAjSElJEZackTAJ2X5sjQbRb8HcwZ4BZz//Z457/hXXbRg++rIh3jbNvk9+zxEA+O7UO1acdsmQq/0NGhyhsOosWz3Y/OWn+q7KFX7BmW1fOFptMPmFzjff1Hi0U89f2nkrI9NxwYApTLBZkzLNuDgwTVXgJcGXtnskkbndiNDImr6jBSGcO2PKOOWqAf9IBMjjOL/bae9seP+TngzBRme3QlM9HZ5f8+EzTHipe8YoUAH26hrCTZsWnbXyWQZ1ZW4zpt52zx0zZ05ik87nD8AbLkJTANfmtEeFcAgZqg6FghBNs3fnvLmsbAB0HK+upEQ8ugshu0ioHnOfz/GnY3StZkjJCyKi28j36fgiHsTYn78tdwRV5sGcwBu2rnmr43ldz1rb1uXBmNad4Pl5P2q6AqKuGkuIOiRHu5K8RvIXmQaTf/alFULvxfef6zrnnFXl/VnHcdyKosTS/Ar8YQcNfgPWae16IHN/GHrcxgHE0H3S1RO0iWPuL+93/h3vm33PrBlzbpg8pQmg9G/aA6cP7ftW+8njzv47fqu83/n44oXDLr/k4iV1LeD+rFbwRU3UGtzn7Sb3zTqrrO8gANbPOnWf6mJzL4YAbGFaNT6lEbpVqQkzVACSAWyX1Az0Km6hJ+jL8CPKyNCgeIKCADzwqQHhLpinKfjULsSoN5emKjk5Janw7/fF2b49Lbxq7RC3qVR1Vam2VRlx1hH8v6J1m077+q13J7efdsN5fwBAZ1d+xvybr39/9HNPtywBs01fNXmk/4ivKgctuNjp9Wo4qBm4/KnHuinndP7P0U7GxiFDPol+vKVDdVcAiMRFrYwaYVKOiDXAhFNbJAq37kWUM6NeDyKOghhT4Pxi9L1z+jjlqsH/GACe07PL6v+s/qAHV6/T4MaQpm3R2HLDU1gsOGX0JXFcKvaqCkLNcoJnvb4otawbg69PvWnyPXPuvnuSUFtTHKQ6Jljom9m5F1L2/YqMuMUZdHhaNv+h8aolJfzLY303a4AeJSXCnrSl29AMQ6y4Q2vUwMW+U1CtKIaoW0GB341Pi/Zj3P4f/hEAXLPm3Y69u/ZYy5pcF7gwquXpqFQYgRYMQWFOLGgdh5365Kwz7xZOH+j4zAxi4EcrvErDhgktnfKcbaBl61YbN2/a1DrTkc5zoxs2Qw+lIgIxG1/n/YQLZ0+/TrnmkgfK921/z7vmPTBv+oxrJ97GjteIVufgtH5nv916yrVlAs3fszfyWxc+v2zYqIuHLakVdfBogzbwhmKoMfi8d049Civk9/uxa9euavXrnbpXTEe5SOaPCQC8oWJjdE6tCLcRhU9XEAoXwu3WoRikR7lREA9C8WhQ3R7YMQtp8MIOW3ArOoodEzuMYjQb2X9Z7QfmDDvasccWPz/4qZumLa/upECN2bDdLhzM8BSPWbWwkVKv3r7kZ27OaevM/nK9rijCBvEwEfrnZW9MSU9P+ya19+lCnsbZvt3z8DkXRpsqbmTGOZ5DCosF3ePGp4V5GLVhTW2lQc0jI8U1a7q80G/UmhaedPjdGoLCH4D8MklrkComkudF9Q5u1LsjKZUdogg0/BQO47wZt45Triq7CfLl99/X3rVtW67iclF+ET6PGzEjRk4xfSoczQTS0tOL2vXo8cGJ3DA9enZ976PVa7pxz1ncOyO1GkY2bomUvQeRwflkkwbsNAFXEcnJDvV6fUm5hBinTp5+z52z7pgk+HaKLcjCBMDJbbuiRkExUmOGIEcjN+fH5quWM0M+7iaaIIoeEQRqHr8DAYD9K9XC8Ao1UDUUFRL0BW4NX8TyMfaXneUGwB+++y7r+y3fZrvdfifqGE5Yidgev9vhau12+9Vzzz73Q0VRaPhb5vbJex+c3q37GR9Vgi08hC+qdSrOSK0IV96hhK0B519VMTzvcLJApU6dghgU5EVM+Dq33d3ylWfLjIh/vyPz7r7nuok33XAf02DWKC6oUgeXpNZDFdPC9sg+nD3l2muV8ePKlFkq8wD/xBvuffD+abePv+52On4PyOmKcy668PXGt0woiVD+xFef9EeXvvjc0GGDBi+tZwMPZeUiJWah6uAL3m58b9kRoATARnulnqecGT/FcXB9hbroXqk6dJHWstZng0pfNNySk0tSCSgptCrEP4ihHCiwLNguN9ZHDmHYurdqKQ0b/lz64JyNX7R/vE/fT1v6MpFKdiifI9tGnteFr1Nc5hVbPpar7G/+Mbvmv3QdfHDXG9Z/zhEAOG/I6B8mLn+q5KErfnDBtBUzZt7eLC0FlXUPCg8VwevyCk2vT/L2IXvaxEezb772qtI78uLZF3xd+9u92dUiJuJKVCg2059VekDIoX0hasAZTOq7iUkFTYzQkFxMJ68fwyH0nkkALJsG89xzL140bNjQRUJIQCBHYuOsLpUoaIZOnTXA2fnjN6fUrp29pzx3RfeeZ7z3weoPuzHa88FGQ6gYW78VSMCsFI5CN+JwfF7sgoFI85zw2SuXBsrzvZOnTr/nzpkSALnPaQ5Eaja5bTfUyi9EaiyGOLufzXN+yF21vDwRoE9RtDBb6swkSakmAPatVBfDKlZF5VBUEKALdQ1bY3kY/Uv5OsAr31h51oXnnPcmvTg45sgzG2NuTt8btwtGhOxqCr46HkVRjlDiONp5WPPumo5n9+i1ln5uDJXb/qYsfWuL01DxUFDcqLx0Lqb/lL4S0vq28IwLKwp+NA10mjjuppQbrxE37IlsWzZuyW7RrtXXim2Kc9PVl4EpDTvCv/9X/Gzl4ZwpE65Rrhv/j9WaeSz3P/zwrTPGjZvViAtDbjf0GnDui42mThp4Isf5V793+YpXeg0d1O+t2lEHD9VrgQABcOiFbzSdN7N3Wb91GACloCOFFmo6DiZUrI3ulWrAE6IhqiqyKCF1mJD1KiG+a1LYl5NM/GPGYwh4A2L64TsrhpSBvV7q8ODcI+g4q8dc/Z79zppuWZyUMMjvtuB3u1HgVvFZNIrh980dpgw+dxn3nc2Te6dcv33ii4uqlQCgs29fYPmDj7w+9M6ZZyQPcNs1N73/w4rXz6jJUaJoBGkZlYTBTHFxMQ6kpcDsdtoXPZ98pEXy/c57G9s/NWjop+1SKyLVjCNihoWHhysmAZDqH0IGig8rkxuuAGJoX854HgGAd0y+RrlyRJk35lNPLbhk9OjRz4inPyFTBSroSpK72BSa6DgOmuU02bp1y6bmZV1Avt71zG7vfvjOB90pNMTVilHL8JSa6FOvEdLyCuBlDdDrwS4rhliLZv/nADCzSsahYDCYSaDTnIBQ3DCUInlDx8VyBni8mDVn9vibr722hKh6rHP78cdrOnbt2H2tSjknxUGWDcxv1gG1D4bkzDTFPxMAyA4h1UUYzRZrKjaFCzH81eebKp3afVWea/fH96hOesALIxQGG1v3NO6GqsEwYq4o6vc64/VfG9V//mCVSsYvZtAxdY+jaW4Yhq34NB9gxTmxopiOqQYjEWf06FFLy7MPC59eOMx2KYqXMvEUBHUcR42bnHKEJYdOFHboFbfL9e9Vq4a9uWTZWUyBR+X2RJPWTffW6tj8nm+1SLDQ7TVcBgfKdE3hnJ9KYzFF4SKhWVExhjP84lHPlGef5i9cONLtcrlMM6a4FJfjUh0zbMRsxeW2PS6PmF6yHMeJu4FPN3za7an77htdy3TwYFZr+KMWagy+cGWz+6aX2ZzZvXt39ay6DffQna88AMhnMynoy5G/WEI/Uhf4IDRnoNEXyFZFLXCrEcWYVW/WUnJPKYkCF7fp6dT/NQ8VYxGkBgIIh4rhWDEEPTq+iRvoddPERypMGj8ueZ4e6DPk0PhFj9VXMjLyRUr03ftvX5Gm6vnVunZ7Lvmm72+7c9nXzy4f0tjlhhIMwdRIWIzD4/bhB7cCf9+zX+g89+6Sdv13oya9XvDBut6+aBh06rBcFOoBfDGpZswDIwBKQcpS4p+chT1JAHz++VdGDh066GmhBsLpJfJrXNJMR9qBiWltOTbJomws7GVhvKwbhgD4weoPulN6K6ApyLAsnA0fRuV2QOrBfATofaCq+EVzTigCnDLltrmz7pg18X96BCgFDYU4ImB5RNPKcsLwaUCq5UbM4QikjjvmzLppwo03lhmZrfn43Y5ndDxzrcfvQdSKoHIM+Fe95mhluoRYAsdBqCojxBsUzu6qSLGBfE3B534bF337RblT999f28tGjV604OmnLsr06MiMGbi5dgs0133Q7CgOOjY+Ny089/OX+JUq3b/VqkIcnGHgy86dkAqTI3q6S0fUNMq1Hy5Vc2y3Bpt2kQm9QYrTCrtPN2viHDlMFKAUoKIFJxtQCIBu1cGXv+zEyl93CR9k9sRMERtToIqwQtUYU5ju8ba3TEdTlFIM8mPc3I1zmuz9etu2asJlIiEhxnq8sDEVgoSi7iDIyFJOyEF9Gt5ntYU/ZqLmoP6vNr9vSpk8wBMBQKnGLTM3qSgurRQY0LjFCKYNVVcRiseh0HzJVrAvHEPnK0bdlTHr+luSh/r6OUN/rPzN97UqhqMi8KpQMR1OPCJGPr+y4zjr1ptuzrhi7N3J9+94ZumNSnogVr/vBQ+IC/rs9devvfiaa3oo9epxWRGb88Enpz81/NKP2kVdqOH2iqF/l9+LaDCKbYigx1N3n1uhz4WiK+fs2eN/vkmvUCtvGnSvg1C8CPBQ3cKBNybTXwJGUqjyMONf+mHQF+NkIsBFi5aPHjnioic59k8pfTlLxTstAXwc0vZ4YEcigMuFHd//ULtBzSPrlke7XwiAa1Z/0J3in5yFrOQAHJ24snknVMoPo4KjIGoZyPPpKG5yarhXOVPgvwEA/Yqihf7qFFgI4bA5QeECyw0XUw+YYvSIf4iN9CCcfdecySNuvvHOshaU9z96v0P3Lmd/QosAml3UMoHJ1Rqia0olqGYMSlyqHhMAKfjJ0kVK2MYe1YJ6fqfn2zz52AmLZSb36YUXXh4yaGC/ZSwCVQfQx5WOITmtkRmOwIjGEVb9opu/fMdGbEAQ+QAKE2Z3RD96c3DmmA9KqJzCK+L8SQ0LufGWlGOv0r+af5LjuwZQwYZTH1Cub9ED6UURpKWkYq/LxPJNH+JzxEG1Ya7ajs56GAV45dokxvDjTklB/3jXIbdli6++2Px5EwoVGDFD/LzAPaGuJP/D7VYRM2x4ObBhSee9WQ3aQItbqDmg76tt7p32lwMgpcv42Ao5rYQ4hpB3S7jSMU3ks6Z6/HDo6BjX8a1q4YJfPi1ZjH5euPiKDdfe8WhLfzriuo1QuBiZHjcOuGysiRdi4tq3aih1m+wtwbbt2+u/tnDpc31mTGsrvuSuAUP23Pzi8hq/P4HbJs984usnlo2pqXrgSvULcmJRNIrmgy94IeuRu0qiv8jiF8e8O3byEy28GTD0OCw31T9sMQTvsXVRzEy6sgnTIf5JRIJi5T9ZAHxmydhLR456nNRklxj9igmlkTRhfC0fVB4gq0pkaX+0fn3tZu3alWmi3L1nt9XvvftBD7HEKjaqOgD1ecbnno7qhTFkUk4pEkWe342inP97AOh2eZy4zUeO1oQaqkJBr2o1UF0osKgIhkMwvC507nP2ew06tFr+KzQjz+U3Ha/XCpi64zgxJ6JF4OiOajqOs23rjpwH7n54SpwRkRZDLcvGTdWy0CWtEtxUBRIy/RQuoB5dQoi2yMYORND9qTuGu/oPKlfqeTQA+Oabb2rkNmv+i2nEUeW3xZ6dlFtbdEHl/QUgU8EyNQQDHuxKBV77ejM+jR4COztsEfIP76GkUfsP5QRAj8fjxCxZMxVgFwMq2gA7ZYx3JB9CvsQGTRoAFqTG5ZyOuvAgeOAQnPQU5Ke48cp3W7A5dBAkb/KzSdxMOujtkXSfpOneMTGwQ4cOW9d9+mlToX5NO0uVmoOOqMlyUUsWcvkaf4PHzc755PptBHWt2oALV7Sdd/sFZS12P/74Y426tev/Up4UmIEKdSMJfIIFkBCsFTJqCUk0IVXG7NOykOJOh15oYUPBQfT96MVuymktS5goq3sN+qxo45ZWFSpkitqiHY/j+2gxzp89ZVLlkRf/gew+rk1756ENn6qKs3N/1ZefefKB/jOmDDnawTlvvNdv1WMLZv70+bYmjXIa72o/vN+swPD+80u/972BIzZUWr+rzSkmkF98CHq6B1GFSiqmmPtlrY/S5Dy5ohYoVjBZpOO/niwALlny/NiLhg9/XMKrCXYieJP3b5iDpvAi3XQQDoZhVkjFRwd/waNfbUpRqlULlXURu3fvvvq999dIAOQguA3k/hYZTGjTBdXywsikiolhYr9bRbBZ4/9zESB7byIN8eiwohZOgYkH2p6FCgcOwc2pGJ8bYSuOPdEifPTzt1gfM0CXrLgLCJheWuYgRrmIRJSiuzxQRPhvw9LiqPbbOOHMuvXRwZ0GNcKJFckJFR4o9JigcnbQwreagfPW/jv9ZE2vk9eZEZnLrQiDKHb5rm/WHi2CCipH+ZjaCDkmQn4X1LQ0FARDKAiFoKekSD8SXcV+M47twTw8XP4uuiwhMOyMAek2cFZadXQ+JQsVFZdoorHOyZEwmAYCHg+0WBTpmgt6PCac71SXjiLThJKZgT1FRWJfWFNXScEyooiEi/G1GcG0LZ8dIT5yrHu7fdu2WzZu/KyZUJwWHssq6tgaxp6ai1OETL18PqmYQ6UjliZSVQXV4xEcgom0wX1fazv3zvPLenZOGACpwZmkQSW0DRkgcSEUQrBskkBBxDThdwXgCjrY41FQeeyFj2TNmFxS1+N+5S1cOvGtBcsnFx8qyDylWZMNvS8fe4vSpdVRneQWjb36+4smXH+OYrz32Vn74qGGtc7uUmbT4VgH/0DlOs6ZqacgUBCC1+tC1IoJZIfPjSgFHzn5QUFFlhYSqXDSvPyoAFjOLvDChcvGjLxk5BNSXD4uaCVk/V/buBXaWV4ECsJwa24c9CtYE8/H+HdWpCnZ2Uf4kR7tmHp277763ffX9BBGjqqNdEtGgBPbMnIoYs1GzJT+rFgI5jYO9Vq5rFw0mBNIgX/MLR8N5m9JgYVIm2KJGphb1VDbtvBQg/ZooXhRWJgvIjWmLoZfRzDdhdd2fYOX84qQzDFolcl6FUeamPUqND8Xjr3syMcECN2b0wL1i2JCEl4KFkqFbKZ2iuYRktbfeiz7wu/Xn7zkceLiTps2bcaMmTOmsrHCNHhQ9ToYlFoXmYVBIcbBEUTSsViOEUKk9MbgqJ5bR8iliAhxczgP13+/tXw1QJfLMalZmNA/ZAbR31cTfeo0RkXTgisUEZqJPB+qS0EoEkJKuh/RWBiKYwoQioei8HsDEBjJL3Lrgg5imTGkeb2WHI7lAAAgAElEQVTQjBjWRYsw6GD5Ovvt2rT54rONG5sng1KCTue0Sri1YS4q7M8XKuSapgvBCGomkuVgU6bODOFnzURg8IUr290zp8wmyIkCINWkZAosszaeYN4OJPCL9qlhCCVqjs3FwjH44EGeV8MGXxRjvv28XNfjaM/45w88+mJuw+zlyo4FL8yt3bLJYnfLnDLn6Y4aIb79fpull4zZ0NxfCb5QVNBP2OIWsvJ0dyMZkuKKVH8RACil2ks29SgRYDkB8Jlnlo4aNfLiBZStilsxpCcA8IZmbdAqqKBCMC4ERgsyPPhQCeLKFS94fm+gcrRj6t3rrHfeeGd1T9Fc0WykWgBlJK5r0xk1DkWQHpOiCAfcKoqaZYfOfP0vB8CfclctL9Pf1HGcvwkA6UBMlzWZL2X9BhyPNzoN9YuiwkeWfodhIyaIq7QwjWVm4MMDeXh+z3ZQqYB1tKQznayBsa0hyA9i9psAeE9WLppaGpSoBZ0NMvr3JpSZ446GPcEwzphw5Z2e6eMnHy/qcBzRBCjFgfrju1evXn3aOef3/tgJx8UIYmfdg1ubdEFgzwGoHnYrpb8Kj1oobQu1atm0o69wvteFLZECXPXz1+V64AihNvsW9NAAwNrSAFcVXJjVFBnROLzsDCfmnwXhO2F3QIl5cmRFJCZodGyRawKco1SBpmmSHRfPGIUlNhoRDDz4U7n2qV3rtp9v+mxDbrIsRADs4A5ganZzVC8MClkyRt6MuOhhE2eHRDgchrBLM5E+rP/KdrP/egBM2hlI720pmissGyj9z1Rd0WBGYkJGSzhLOAqCfjc2RQ/ishUraihtDtf2yopOS79e/Mbqy8N797dS/nPL7M+7XnNzR6VG+Uitv/8R58nF171869T76qdkIhCXxjh8eKgaS5Vgei9wo/wNEV5e8MM+HtSE+0MXuJwA+OyCxZeMvHTkMwpdw2Aj8Bu9gsJ8VzZvjdaGF5UiUq/yi0N7UKNvz3c6P/vUH/QNj3bSenTt+u57az7srpCi4xhIs4H2rAGWAkDNcvCrBMDgma8vK9ckyAlEgP8sABIK+FDy5ChAHRt4NLsdskMmzFgUGqXMbUr4q/C7dQRtB3kuP7bGY3j8x40gP4H1s2Sti1GHIt1DhAxWDViY0+h0nFLEBZOCsQqCRlDUegJuPw7E4thpmhiw4OEuynlnfHi8G/uh2fdOuOaW6+8r8+YnAYELcWKRfLhFL1Q5VAiN1WE6EUpyD1wWDYIkAApfYUVDoceFz6MFGLunfABIVxRFtOWkYwcBcLBWBX2zmggAdBsxqAnMFmZcpWriPGvS80UCMusIBL4kAFqOIUCVpvAnC4DJkPo0dwC3ndoc1QuKRXeZ2RhFSgiAwgRJmFLFsFOLo8LQgSvb3HXXXxoBcvhB0GASiuu8hocVwaU6ECXoqL9J7UCR5zkWQrqKbcEDGLHgyb5KnyPH3cq8DxJvcNZtOm3z6v/co7w5YnzR2YseZB32iM1Z8V7/H9//eKQRiVSoemrdd1IuunDe0RRi8ibeNn/T0mWXVnH74KczMikNwldDuppxZedFlp66orGdcDaTP8e6z8kC4CsvvnpR/0H9FwlrRioOm7IGeFbtRmjoeJBhKMJXuEZu4x295s9rWVpS53gnSldUx+QDwDeppqjhEACvbd0V1Q+FkBEzBYof0FUUNW9UfObry/5w/o72/ScAgD/nrlpepsjq3xUB0teNSqoiBXEBNX/rVD7YtBXqF0SQplHXUdpUmowWKGdlq3CnVcSvqorV+3fivYJd2J8orPNhk5rXcmOoxuL67TU7oB4tTWEgbIThTnUjHItCjTuwK1XG6rw9GH9ge5nRTUDxOd/8+N0ptWrV+uV41/Sc3ue8/cYbb5zpUYHqFnBT7Vy0dqciEA/DJUzA5UKdBD/+NwGQFTMBgJECjN37VZn7I/dBeKuKCJBbDQcY7K6C/llNkB6Jwhun3wYHIgl31PIp7a8sI8ASEyneh4yO6dnG58o2OWEmlLg3GCEMOli+8UZGgJ99tiGXZckSANRTMaMRATCYmMlWqL8j7m1ZxOTCFcUPqoXMIQNfa3XPjL+0BkgApGuf+B1h00nnRdkbkC6CMv3n8QvrVpUK5RaiLmBXuBB9ptwwSR9/5R8aHM6uXRnFS1bc8uv3P3fOrFb1pwrn9XpEOb35EdNgzr7iKq9MnbpOefuS8fm9nn3wCDWT1ZdfteaHl9/vUs+dKkQ19xUfQrxyCkYtebaBcnqbEiUF7uBX/S/eEvns82a0v2OSwwKqrrKewpNIhykZCciTKflGQvE3YeN3VACcMeVq5eqL/nW8G5qvbd++3RMOhxsahqFQ79IwDDPN0tRTPGlhr2mRvUvl0pDSqXwTIInvrJ/dsOEOVfMKDwMCQQUnAYAtu6JKQQhpcfoZKPhVVxEkAK78vwaAegIA5ZWr4wD/atEWDYrjsIuj0qBddQlVZ076UE7fMhwh5qrWrortxQewjzqPqQHYhvRKZvzHxYi1YV+xgWa2H2lBA3ESn3VFep7E40j3p2FHPIp45zbrzlw+v8Px7oGffvqpZr1a9X5esnTJsMHDBgum/7G2p59eOOTKK0cvi8XiApCGpddCn5oNUJFWrAbNwJP3adI+IinQr6HI7cLmaBHG7i1fDZDLvaI4Cs21iKtVbWCoR0aAadEovCICNKSXjUN5d+kwmEwBjzgGGreL+ig9YxTYjskKhNCm3GBEMCivfOONSQAkrCW02NHRlYIZjVqiBgGQ4YqqiOYMiem0ueCmIYbdio2KQwa+ljvvtr8UADUaK5FrmQAIMQpHn2En6W6oisiXPiJW3BAAyNfYmDpgR9HkogFPVbnz9jGlz5fz1lsdn7jsyrVVQwrSVTcMTccPahS54wY/027KzCN0FudfMCKkLB91ed6Qpx+vmPwS519PXr1i5ryHT3GnweMogogYjUbETf9zpj987lcfHzH2tbrNGcGaeQUBjhZr7PBGTeH3QA8N1gLFRSul9itW2MSPiet/tAiwnABYFkCezOtdu3Ze88GaD7uoihu2MGwyxTwwa4DXtuyKqvlhpMSlfwEjwFCzRkW9Vi4rlxrMCYzC/ZK7anmZKtN/VwQIzmGICTfJ0aLCzOON26JBKE7irSiWixSNVzIx7xkLRzjZgGLLhJ4WKHHb4zWIkBIS0BCKh4U7WLrbB3eRgRSK4wpbCR0FoTwEAgG4FB++iBah830zxmYMHfDk8a7hC8tfGDJ4yJBlQ4cPX7ZkycKjDsknP79z5846WVlZuwlImTZ5nTrG5XZBnfxiZMRoS0qCccI4PWmgniDsBQmAkSKM3lc+AGQl0S2rWaIUwEmiQZ4qOL9+E6TGOUqZAMCE8TifCfo5i4gnUSNP1lDJxxPzsGwQ0TwdEgApTrIxHjphAGT0l2yEEABnNSAAhkXTit8vWzMSAAVAK4YAwMpDBr/WbN7kvxQAhUI0F82EiyGPmfJt/H+fIcEuTM8YtxtmLC7uN8psMass1gxU6Nrpg/rPHPYSdhxHf7xqvXiHjIrC0sKneRCPm4ilePF5PA8jH5g9QDl/wEvJe+K+dmc7ykvjJh7s//C8EkHPldltner7CpGRmlZiWhKgmVEwio+LD2Hguy91UTq1L6nLvFCjsdNcsPjZRdKEEgMB0KD6q2i5Sy/QJPmZD44IBJMEzKM1Qf4hALzzzjuunzp16jwu25bF8SwNlh0TKRsBcHwLRoBhBAyux7IGGM5pVHj2ymWsrZe5/W8BQOo1c9qADEoqldf9rbTwr6w2qGcpWL//R3grZAqlDsuw4PIw6o8Jj1eqewRDYWH16VY8gnDLbDAQ0OFz2wjoLnjZWVZ0RDkUr/tFh4+Rn8crXW6DYRNfWFGM+M8rtZTc3COG3n9/gvv26bv0lddeHcoaom0e0Vo76rXwebxOxIiKWjHH4iblnI5WYVsI0lKdR9TjxJiEXLS5qY5LeFRsjhbgsn3lqwEyAvSJhJVicDLlH1wKAN0GZW8t4TEjgIa2k/QFEu5/sg5G+OTiQwDkg89zwyKmBEDKhJnYFI+g/6HyRYBt27bdvGnDhhZJ8OPfHVwpuCMRAfJZFRaZonwlAVDU6mFgl2qj0uDBr+X+DQCYrAEm3R65APC4vfwPtswUKsS4JGXIdoSKOOuAYcWA0irnu5Yrnivxztn/9LIRayfdurCx5obX7xNCq9QuKDAiKPa54O/cZkPLRQtKZPHnNj/DUV68bHzegPkPlkSAyzOznPbeNLESuXQVRjgKr+4WJ2WzE0OTebdf2mjYwKeTd9iLmfWdFm4vTLcui6hROp3pCNPCkV2tZHybsNlibs8TSzoMz/NRaTD/ZQD8/vs9tW+fcfM9CxcuHJQozJA5lohUTXEDswZ4TQIAfaaMAPczOv47ALBZzp7cN5aTiH/c7e+KADXRypJzmLxGDR3gicbdkf/DbvTd/WkqDhyIIy1NQzRqCzkH125a5slEpkGclnMAmnCEgh6UjvX5qz2X3XTr601S0qAHi+FjeqXK+QrDiIuals+rorC4CLo/HevNEEb8UjbYpHgCDpWFTTOGz9etb9qi3fHnha+/ZsID9z5y3/gMTQG9qS86pTHO8qehYoTmivJY2UxLGgoK23cSpXU2QYowct+xPa+PuFCKy/Y4EgDjCgSRfrCnmqgBZkTD8MUicFOxWxpCCuoPLUrFgEBJMybJupb7Q1aF9PC1RKlJM02sNyLod6icNcB27TZvWL9eAGDyT3t3CqZl54oUWKiz0FeZwYkYEZExrK3GsVt1UGnQ4JWt75n2lzdBpDxycvJDAr/4f2GKRcyTgRVXB9M0hLMgGQhcCIymDX5s/c6rJQIuP93/xLTNs+benpuSgUOFBcjIqAAjaghRlpARw/cpLvT7dkNJHfeB1j0c5d+jr8u/8Kn7S2qAy+o2d5pTi8M0QDEAP4VKTfq/a/hCM9Fz4ZOdKnQ/rcT399Uq2U5zzQvTowmU9pDsz+6ZRtNi1gFlgZe8Z6bR7HDx35I+sUedBPkvASDnFp+ev/Cq22dOnyJ2MBGasrtJAHScuFiNmMKwGHVNbldkFskIkCuXSIGblj8CnDJl+pxZd9xxQ5mzwP84AMqkizcnb8i6DjC/fmcUFxfiwl+PtB0sC6T5+rZVqzqM7d37k5tbdkOl/CjSqQQkxrVpbq0IxfBouACBjDTsK4ri1IsGPlRh3vQjLBF//zvbtm1rmtOk6Vb5wNh4ZN69k66+/vrjytuvfPHfZ10wuP+bFGJlyH5uRnWMrFEX1cIRebS8Nx1HyHKxj8sOJJ9CkQJHizBq747yNUEUl+0SAEjXRBtVWHP0VMGAek1EtEkApA05nSnpWslggyaJkoojU8BkE0BEopzFFuaXClR2RBk4mDbWmeUHwLbt2m3asH59yyT4scLXXvdjcpOWqFlQJCgmDEbYlhLUFOEFy2fXxE7NQcXBA1a2mXP7Xw6AyVlg8VPi2GXkJzrjdIRNEKHJ0WR/wefzCABkhmk1b/BdyzdeKokA9z6++JJPZ8x+phEnlhQ9EckqsNwa8uIhVOjafl2TUnXlue26Osrzl44tGLTgiZIULvzUggkvTZ91b13HgxqeAJyYbJBHoeBbn24N2PFpsoYqdnR1q27FtfJCKaRHkGXOm9mtETQTncKEtDkvKBVgCIZS8FIyvTmAzVrxEbPA/yUATD5UjuN4bp45fdrdM2beyrtRJBycGidV4beHv5YN9HWnom/D5qgQs+CJmqJms091EGzRqOjM18tdA7z7zpl33FgWACrNc/Y2X/XH0cTfg8DfFQHyNixNg2lkA4sanY6DBw/i3EMnrir9/jurOlzU67xPyCe8Kbc3qhQF4TaL4GWBm6RypjhmBFEV2FkcxQWPPdJbGXjWG8cD17vm3DXp5ptuvodNNY/qQv3qNfZv+2W3kDg61kaV6IDqiZlOXGQ11Yw4HmvaFbWCYRhWFJZlwO/xwwjH4SUZW86uoMCrYmMsiLG/lDcCBH2bOdBVMkk0QgBgNtLCYfhJaBaAy5qbVtKAIZMh6TSc7AIn6+QSmMlPZwosDd8ZAQ7MK18EKABww3ohdkyrZI6/nab5Ma1xS9EFpooUQYawLZ0P5SLFSIwpcObwfq+3nDO9TJ3CEyFCk1JKR0h5nuWQtBiHY+ItBMFtOHTy83pFECa6wDGaq7sRdbvg79JybcNnH+1U6jnWn62RHW+h6kij+ySjSAeIpnuwMbwPI+6f21cZ0LdEJfq2jm0dZcXl4wrPf/zhI4r4/7n8yvf2rl7bLTVMzhFVYBzkqw4u+ffL9ZTTGu8ufYNtG3TZ1uI165tW9qUIP1rBqrcMQVxkwdwmw57kUkcR4ghC8lw1xcooCr3/AwAweTwfbtzYvnubjp+y0uLoqvDr5XQJpwcm1WmClv4KcPILUcHrgxKO45BXR36zBuWmwUyeOv1/BwAycE/GOhqQZQBP122B4sIgzssvZxRU6ib5z7r/nHZGhzM+ru4o6IWqGNgoGzWVKNyhImiqTy44ZgjRgBdbiiMY8daHKUru8UcW69TPyv9h984M8gtVy4YPKop/+sH/e3Ou34NhxzYdPvts06ZW5DHWho0767RCjgXoCtWLHPEAiujPcYno1EQc+QkAvLy8AMjgRdEUEUmpNqrZwAhPJQyom40U0mBs6SvNXIg1UBH9JPXbEn8naTkiChKcatmgIA1GF51a+4RoMAIAN0oAJNOEnczTVT+mZbcURGjqULKOr3BREgZgEoxdtgs7VRsZwy58vcXcsgHwRNRgSgOg4DtSB4h/J7iRgogt0mBT2FBQico2bMShoFBVUH9QnwXV7p1+Welr7Kx4v9MzY8Z+SBHnCr4UxBwHe9UYWoy4YEHzu+464r2PXNAnorw++prQuU899AdBT/ONdwd++e4HlzpRI7NawzpvVuvZ6c6jTVHkT7pjweZnl46q4QvAw8aHRV3/KHz+FFg0QWeBQ7DqWVh2oIsCgymGnQmATDT+6Qiw9An8atOmJrmtWgntOZ4Upr9n+ytgWFYuMopCUE1DyuIrEE2QYM6pwV4ry0eELi8AonnOvtxVy4m7x90cx/lbBFFFEsa7X4QAQL04sCCnPQ7+shcDC34sXxpYas+lHFaPtWSLM0TrrmZgRMNGqBSJQVHdwh84w6vjh3gITsvcnV1WvXRcRzzh96EqFIyWigIkBpvA6nfeOa/LmWe+fryTdt8DD1wz4dprHyTskGh5aWot9KhaHelCNFVBJCynDqigoWnUsTREBLg5egIR4FEA8GJvZfSvc+oRACiIvomm4N8OgO3bfrZhwwZOdP6PAUCKFjASlkDLyI/NU9kbIG+Y6bemq4hRgZ0jhB6v4JxGFRX7wlGcNfn6G5QJl879/fV2tuel7Xr1uTv27tx9WpXaNXc3aNv0IeV3qvDOjn1V3rpjzufKhzff9m2nAdObKm3KVpQ42o3lPLRgwlt33XtvBRPIdLFxYIuCLVvX3GlfXKI6R4osUiZEsEtTIcn0/jMAuHXr1uYr333/HDiOqjmWWEOSpTxLURxHdRzDdJxTatfee+agQS/XKKeE+71z5k6YduOke1kX6O2vivPrZaNOXIGroACpPg/iRlgQgffoCqJNs4O9Vj5XrkmQ/y0ASCI0x7JE/q8C9U3g8SZtUfjLPvQvLN/oVel75d23VnY877x+ax3DgAeOUGSZ06AF6tC7gTagLJNEg/hZMdFs0lWTKk8qo5b3zjtn9bvg/DfjsYjYP6Z0mSYwb+bd8y6eetOk4wHghi++aNq2Re7WZG33DGgY3aIjKheFkWIriEbjgpbD7FVSuEwUeVRsjoQwdk+50/8/RICX+KoIAAyEIyUR4P/rAMiOC8sEvBa6RUI4ewdyRfNQQ8CxBS+QMoWa6Qg73Rj/JyWAL/fsxZBn5/dV+nY7wviorKChJF1e91XnHW+9/6iybeGC+Y3bdXxAyc7eUt4PHxFyvvtxu6UXjVzXyJOKVBqciCF4BRyuYR0jLa6LA6QgKhsjBD6B7Gy7C57RyUeAy5e/MHzI0KGLxf4kZihLT86LRzipE6i78P6a907r1qHTMc2TSx9XAHCGNW6J8/01Ub0oIlSx3U4cLisOn4fUjRh+9egopifIyufKJYZwAgC4P3fV8uPWs8Qh/00RIK2ImJ7x5tQ9KmrFbMw/tQ3svQfQfdVbNcVoh9froHIgWB7/6I/ffbdj5x5nrmUG4GgO6pnAI9ltUC8/Cuh6gj4Vx6ZwHga+92pjpU2bb453L/YbOnTZy8uXDRHtTAVINYA20NChXhvM3rWuzAjVk+pzzLiFQCwu6DA3t+6EugfDyIwnar9szCi6kOdnvZoAuCUUwui9fw0AeiyWgGTH8/+PAGX3XTQdE3VABjEEQJ570l1cbg1uUxK0g4qGeFoAm/fvwei3V570LHD0/Y8m7fn6qx5K9KP3eu/Ky2/c+IL+J20Q/WjtU50O/srwFRTDwyhPA4oTfKVA3CWAkG1+StwIVSTFFPwmEfazW/N7PcByNkGemb/o4ksvu/TZJIdIdJFK1VOIr2KESHfBMYUJFHbt31W9XpXDLlHHetBmTJw4e/G8eTdfUa052qZVRooVR8Cx4ISL4XUpoGDQXl1BJCfn/yAA6qJ5TxoHNzpJP5bdDlVCBr4IhVFAP1+3C72vGDOj4Y1X3FbWwrl+zZqO7bt2WysafG4bNaLAk43bITsoG2GRWFSQoGl6M3Rv2eNvms/nWFEqPErJqSpx4GLUQM4pDTDylYfrK22b7zzePl0waMDiV//9ynB33BL13auatECXuAeVQnGoLk3MOVPCy6BYK+9l3YWt4WJcVn4AdITQb6ka4Eh/VfSr3UhEgP8MALbbuGHD+tb/o1JgUuES02KCBsQmCDu4FktnUhE6qtuwHQcew4Hu8iHkAPs14ED1VAxc958yF7tj3Qcf33/vu6e1b71QcXZurfrJOx8+0/Hyq45qeuy8+k6/df96YuqeL7e1qFo/a0fHy0bNVi7pt6D0F789cOingfU72lcJG9B1BYYdheOWzWLd0AQAkvdnajZidIWD7KKya+wo+h9ngcsJgEsWLb945IjhAgDNxIoq9yvJLi+xBgEfaT7Vc++fe8t11026q6yHdt3ataedc/rpH7NONLBGNk73ZeIUSxWD7CYVUNw29lFBt3FO6JzXyhcBlpsG0zznH40AJQ+Q54ucMwd14WBhs05CCadIceOAaaJAt9HtqtFTUm+5clZZ5/Ljd9d07HrW2WsNi/LKDmr+ZrLzaMO2yI2rsAxDyKAfiIdRu+/ZS+o8fu9Fx/u+rd9sbd6scbMvUlNSURwslmo1NnB3lU7wmwpaTxlzS7XrLz7u9X1m0dKhI8eMXErppwrU6ktNx/haVEWJiZoUAdDl1hE3aN6tCB7gl6FijNpX7gjwqADIFNgfCpcAIOkt1ELk9vfXAP8cAGYOu2BV7tzbzy3rWp9YE4QNJ0vQgMKUWFNVMc/P4CgJgHGdqa8NnRNDqhe2pWG7HUOdK/o/cuqM247QAzQefvqGD5ctvCX/132ZWW3br28x9oopyhkd3jnaPj9+6Yhfx06c2E2c/Tv6Dyqa8tLzfxjo/+qehx9be8/9l7em0ktRRJCdt1kxNBnWf3nT+2YOTX5xweLFYz687s4nmqg+uCmRFC2G+/9j70vgdCrf96+zvtvsi8EwhuzC2GsUWUNZSmSJpA0pSUpSdioSStJeKEn1baW0EcmWPWTfxm6Wdz373/2c9x0zDDNK9fv8P87307dm5n3P8pznXOd+7vu6r8tF5jIaJM4ObW1HOLvhmdb2shnmgvFFeIKUEADnvju37z39+rxHwMbmERMTs3sdI9Lt7I0X1qakeOb23t2/eH3+wmKVbTds2JDerGH9fZJhsShhSHpd1ObciAspiCJekZINb3w0fJWrBtp/+VGJXOEuQwzhPwVAMkG1tUyJrGuCDHtm12yC9DNBqJoEKTYOm47tRcfxI0Zxwx4sEQBmtmptc0c5DZXP5uxmVL0OVfJUSJYF1Slhe8iLzjOfv4O7s1N+q1JRE/eFaVNHjHjiycmUX6bsBiE10ZRGp2QixhDgz0iz+n0/P9LQW+Tzuuvw4XJVKqQdorSJM9wV8nLNG5Gep4KUoxkpg6TjLY3RQnyS/P8DAK5du3ZNw78aAf5TAEicTBsARUYIp+KHZJAniB0okUAuJwrsRcERRc2UsENQ0e79l1pwbVqcU4Tu0m9N3so1jdIkE25ZxEkd2KXp6DL22ZFJA3pNPn8iPNKwgTVj7TpmkYJPnn1u1e0DnmxVUBLL+nFt05n9+q+o7ZRRStEQBx6KosPLS9gBC3e8Pu1W8daWrOJm7dvnXNCgfbCBFAuOVyE7eChBP0sm07rdBj+7vM3I0AR+4XK/+TcAcP78D/vcc0+f91VNB+8g0yMdzrA3LqE5paoi4EcgSVLQrbvdvnzax582L+5Ndvjw4XLly5U7RKBKYgiUuB9RvznKZQeQpNHSXUWWAISurRlo+1XJAHDkqDHTJk+YMJRYJmReTDqDZIf4RP1muMYfhDsQYIRzq3bN/xQARcllEes+4uhDEvavZzRBxdNBOHUnQhywXzmDNqOGjRGGDhxb3FguW7Yss3lzGwAFaGwsX66eyQRRPRyPbAFYoebgwZVL4rhrrsm91P7ef//de/1efzk9pCZC4mINS+NTLCl4g5AS5dYRzOJVrvaQu/sXd06pZSucyso6lEgSXdRK8FzlRqilCtQECIM4rU7RlvziLHjlvwGAnInSFkBL4NvKV2FLYBdJxRHVg3iz/xINpmHjRmvXrVvLAJBAhp6NGwQPnqmWUSIazD8JgMwLhrjDJJUX7gpx6bRCpH4PKpRRTdVN4tkwFB6bRQXdjp8zyjr+5rxBy8ZMn3WNAcQ6DJimBr8pIOiJwRafDw98+Uk6V7/SgbE7bVMAACAASURBVMicCO0+VPmr2W9/3HXqs/UZAG5etGRwuTKlcxKaZtgFBcqVPfnc/G2fftarNKfBoyvg/UE4BAdEwYMdhgFH1/b/u/HlSbdFPr+337CvTiz++ZZEpwjD74XbI9sKttRTwJMUvr0ktg2Pbcs72oq0xSxhBDhv3gd39e3Xe65JbEcREFWbttKtQVPUkWOQQH3JhgGJ5xBUFRwVTMS3zVzZY+oL+eTJiz0oBIDlypc7RPuVybiGKsIJybinbE0knspDtIPHfj2IYL3aJQbAESOfnf78pElDbJccW2iVGaM3bolyZ3IQo5KdqAWxft3jtb/64D8rgjBFaNZ+ZINgqgm80SgTFU764dTIFc7E3tAZtBkxZJzjiUeLzQFGAJAmGwEgAc7LNTJRKS8It2HhmMThaM10X+dvPytRNT1yz8hekgWV5/oti8O9/L8/8ciICa/MnP60ghCL8AcnVEK75HLw+AIQqdVRAjQqrPEW8mQZm/9qDrAAAFIOkJbAVwHQ9gWm6j9FgMzQglJk560QWaGUunJEEUqA2godyNEsXHtfzylxLwx/InIzP+3Y/WDKzqzyKSENgdAZON1OyJILx4MKskwLtz71+Cjp4b75K5WtC74Z6+QlX+XubabYClWnT8csmDhzac9pY6nllW1HBz+7fOPChTcmOC0kuCXmq+qgJnfLiSyHA6eur7fjlrmvU36cbeQLPLdb798yXDGszShgBFj4RUx32owwANLyl/F+wgBYpDH6ZQDgXX16zY307xJpmQDwkfo3oVZQQEy2n73pGPnaIWOXoCD2jla/tZjy3PXFPSlsmVQ+7RCx7i3TlvWilrA5tW9C6gkvYmQOh0wF/oyagTZflywCfGrkszOfmzTp4YIASMboo69vg1LHTiDeMCIAeKL2Vx/QpVxy+6eqwPlytbTGhIHy1AvcuCnSTvjgUCXmbLYneBJtn3h0vOPJoc8Wd54EgC3DESCJ4hMAzqpJEWAQsmZgt6XgmmGDJlZ+csio4vZ1pf6+5dctmY0y660kKdREmGgLGQPq3oDYU7lMAJck/yPGPASARIO572jx/cmRxyG/CHIRAPy3idANGzdas27d2kZMpt+wI8DLIUL/UxEgSaXZ+HCeV1A4SKJCEvGE3YIbftmJ1YFc9F38VSpXPy0rMhdevbaxVSMQZH3WTpeL1RSC3jw4YhOwzxtAs0ED34gbM+yByOcnt7vNGrHw02QuhjuVX0WZ1fOeIw99+E5+A35wysuTlr70ylMVnE64LQOK34doTxSCQQ1/qCFkPD3szUrDHimkxbWkY+8/Erbvq+HO8UKOpnY4yvFQEYQObbe4UCGEfqYyN7twXmCqMYVa4UqoCD1//vzevXv3nse61iyA2lnobT6s7k2oE+CQ7FfhJg9fnRLtwH4XD3RptrL5jKnFRoC7jxwpXzm1wkFiJxF1x3QAySFgRsWGqK9KEI0g6xDIqVWtxJL4I0eNfuX5iZMfYuwnTmcPGgHgM01aoczJ0wwAFZODeW31ExmLF/5nAOhyuK2QYjukEhmGlqxzGmSi3AkvJN3B5Ij2KafR9omhE4XhDxcLWgSArRgAWtA5HeUs4LVaTVE5L8heTusDOej59YcNuOuv//1KAVxJ9hMFpxUkwx/oLBXxZP0bcU22gpiQagsBhO12cx0y1oeIB/jXAfAeT2m2BKYIkDpB/m0azN8FwNhenRfXmzq2Q3HjetlFkDAARlJkLDjIVyMnZ0kTDsEFU+ewI+BD2t1dP6szY+LtBc9j4+Dhq04t/vK6NIoiKVdI3yEpLVa88uPO6VPv5nrc/j6bzwcOxM978tmjfRa856Sf8wFw+/y5I9PLlN7vatmGWRBSXm9K5k3BVo4klFGpo8diVpfZULHRCKDvz0tSueqFhUatH5a1fL/XAz80ik4EOfWRHy9TrqDChGmHuAFbZxFuskK8GACWMAL8YN5Hd/Xv22cuSBEEJrP4o3XjgOqNmel2qaAGQQux/mRFt3AmJR6+mzKWtXll5k3F3cgju4+Ur1A5/aBdCtBhOYHSIeDZ5Bpo4UkEgnnweiTk1KxaYlMkAsDnJkx6iPZIfY4RABzZ8CZUyPUiWlFYDlCpVvlkw6WfkLj1fxIBkq2joVAxgIjrHKsCv1m7KcqdyoNgOaGKAvYHTqLV8EcmCk8VH7UtW/ZDZqvmN69kxSrRQBndwpu1aAkcgi5a2GKF0Gt/icGluGEp8d87tOiw9NuflrZ2Q2OKPw/WqIWWVgzic/yMm0gVYdoIANcpfjxYAoWai0WA/aPKMAB0+fz/ZwAwk3NhdI36JcoB/pMAaOcAzxGgCQSJM8wk9FjhgPJQbiw/lYX713xXnqtSpZBMmvXzihsX9eq9vBZRl4ImogQnPLyAI7yB32IFPLTtXL7w2DtzRzpEXojv03t8IQCkZfDsp4ZvHPT628QNtd/+mzbVf6dNz/VJXh1RHhfyjBB8Hgu9X3+5Fdfh5h+LmmnLuvf9NfTbxutL8yJkTQWJZNmFj3MASNfk0m3/17+TA5z//od97u7b532mpstZcFoWyEloUN1MNDBlxOTkgTcVyJIIzeLwh6ag9H3d5zcZN/aSVAu6rggACjzxwkIsx1hGB56Kr4aWcSkQdR/OiBZ8tagTpGStcE89Pfrl5yZOHBwRQyATJ4oAnwwXQVx+P+vJ5Opce7ru4gX5Go0Xe6L/sSWwrULOPOZpWlIESICVlk3cOycCMLA/cAqtn3hkgjTy0WeKQ5wfl//YtE2ztitsW0wTqQbwVs1MVPAFkM2rEOrV+aHJZwtaF7efK/33ue/O7dmv330fyMxS1UC75HgMSKmO5NN+siexLRw4GwDXKn4M+IsAWMYC7ikAgMQDpE6if5MInV8EKbAEvhwAjOvVeUnG1LFFUuUK3pfLjQBJeIHGOGKeRrjApNioSMTEIXjk6QYOKEE0Htj3tXKTxgwsah5YH3x094JHH383Bh5IpghFURAsHW91+2Z+WkHAHFqvvvXSht/zA79CRMJPxo3/uf29/fu4U1MLmYerH//Y98CBPdVS0lP3RN9Q/6NLeetaO3emvtG6w+HrpXhEBUgQM6x3Tf3AJPvDkN1WhrEz2EUYo5cwApw376O7+vXtO9duFtfgMQ3mZv9QjcZoaAiI8/ohijqTttc5ATt5E7fMmtLB2anTJZVGIgCYWrnCQUEkpZIQUbZYLuyJ+Oq4MS4ZEhfCMUuFUqumt10JJfFHjx730oRxEx6l5m56uxEAUtMrRYDpeT5WBfaGNJRq3eJoxQWvX2BUf/6N/6cAkIsSLcuv2/JEsM/xLQLAHBUKZPg4HYeD2ej47BNjuCH3F1sFJgBs1az1Cnb+nMkk9t+ofh3KBkLYp2XjltGj+nMD7s/XmLzSQHex/R05cqR8WmqlgxTrEeWi9tkizfiaDVDJZzLVFdsVhke2kwAwiEGHS+oJQg1IYSI0Z4IAsH90WXQpV5lFgP9XAPB6ODGmZoMSRYBxvTp/mzF1bLvi7s3lAGBEEZrAjiI+2ogHGKkP0AuTxHVP8Ca2ygbu/u3nmEt1Hlk7dkTnLd/cPy/Xn1quXt3fudb1FxQ838CGLZlLvvx8wu3PjmoZ+X0hALR27Ki25LvlE9o/8kC34i70Un8//dKMx9Y+99qLlQUX6/qIqNsyPiBpI4Rzdux5IPAi4iOpznAc9gWDuHXc0w9xD/Uq1hOEqsB33dWXmSLRP1R8oXXjoHrX49oQj3hFAS/oyAsFkG0YKNuy+Y+N573dqiTXZleB0w/Z7bBESrIYAD6WUAU3xadAMkM4wekI1armbfflRyUyRZo4cfLQCePGT6O3k8kZiLFsZeIRmW2QkOeFS9NxIs+LjK63L7jmlcn5PMtLRoACufkxyQxQPx4JO96WlI4eiako5Q9A5zjkShy2KKdx35GSeche37rpt6uWr2xLjSAkW0rXPatuc5TJU6BYAvJ4C1mcD73GP32H2OvOS/L26Nx/XL68actmLVcwqSUYqEjFpGqZSFE0rPUfwz1LvyzHZWRc0tSoJPfsr3xGICIKx0HlNMYnnFatEeroEoxgLmTy4uCBXNmJdZcDgEwGU2Jy72SqRZ4gDADLV4bH62UASG9UNvfD0tPntzREfHTOV4MhxSU6XwJo0gMsqSlS/caN1v6+dm1DOo5Misskh3W2FDKmRj2UzgurwVALILk6Mp1CO0fPmyL28ToSenVaWm/KuGJdFQkAK6dXyaIuIiYsDQ5lLQtDktPQOqEsnH4FDgqGmBakLYlv64PaLnQUGDGWCHWIkGCuJeJPPYROL43pyfXuUQjQLvd+v3rvgB33jhraxVGxWn6r5QWtJHN637v/gZGTr+VqlfIVdwDrx1+asObOquW3nC9D9E2DVgcST+ekuXidlbopMUmcJ6fkQSAQYkx7g+SxiOio03SREOB57CEAnPjkIG5gj9nFHX/uR3N79unR5wPOHkfqskKaADQpVRZ1HXGIJel6Q0dipTSjTb/ejyQ8cF+xoBo55q5du8pVqVLtkE3eMZlUeWkDGJpcCa3iUuBR/DjDA97aBIAflwgAaU89e/T44MMFC3sKogy3HmJL9l61GkIPBiA5HKh6bZ1tXadNaFScrBPt65BlucpLXIAxgnWLWT6StHeXxEronpSGJH8IFqcim9exQTmDQccOl6h1aMfBHWXbtWn364Fd+yuQfDzLj1WojWTFFqzMlS007HPb+zdMGnt3cfeI/v7d8h+btm3eYQW96Sg3TAD4WrVMxCgGdia6cPf6v97SVJLjX+ozjz388MszXn55sCECpXVgZOm6aOaJgxzKhlMESCo11+HARr+GQUdK5gkCgUx8RXtSchqSLeD+uHK4pWw6YkgMgXxBKMdIFBCKFPMDgjB/m0lT2WdNQMSUoMk8iJ4VQ/9LAJjRsP6aTet+b0RyJSR0TCJkjc6alI6vXp/pMwaZN70Aj25Lb+X37kPAPl5DmR4dvm/w/IQ2xY03AWCV9CpZRHeiLWIJ8HCKDYBRXgUu6gyzbFtV1rtAeqBSFDRTAy9oUFQfOOLLOTw4GrCQ2qbFL9Xfm96s4LGtTZs8OBlsDJeRzTVtWqynufXHniqzJ074edD8c4VeFoCdf0HW+s0NVn//8/Drnnykx0Ujj6+/bzfz4cGLYxW6kRKyQgq6DB82psrwIfnLIWvbvtKv39T66LUxsXD6/YiP8kD1huiFCNnhQtCyILkkGLptXi5CQpATsT9QcgAs7mb8nb+Takjjeg22EGmbyQKIQCkdeCy5ElrHl4Yn5EM2b8Jfu6a3zZcXdtH8nWOX9LtsCRwBQM1iVXCKADsnpqNbUiUk+0OApSIYLWCd93iJI8CSHr+kn7MjwDYrSHKd1NxIGPXDhjcj+2AWSvXr8Xz9F54ecal9ffHNF217dO75bUJComlwlmVyClTNT/LoHHm3kGZBrCcGp0+fRnRCIlN0OXXypDD22dHPjx73zCX3vfirRTd37tp9iWqJSFJVdEMK+tWsi6jcE3AJGgK8iRyHA1t9BgZcDgAaFDvTykFjROh7Y9NwS9k0xAbDAEiG30SvCucCz9lg2q/cCwAwLKFP0s1/RRC1biMbAKnJkQBQCgPgBFYEyUMwLE3nNuylOwGgTnkfi8d+XkOpnjf/2OD5ycWuniIRIAEggUvEFOqhiwAgmWSRCO3pkz54YigTGwTnsFgO8Lhl4E9DwP1LP47hqlf3RubImuFPzV/9waJeHrIJcfLQoqMx4PX3mnCZtdZcbB7NHzJ8fa97+w/m6tRYVfAzRUYErz48dOvAp59sUlSuz/p+5fVv9uj7a5XoOCYWKpNopChhv8+Ppvf1mVhq3PB8WoT1+VedFvQf/nmj2HhADcJUAoh1eZhAwfGgD6LHBWZqzvwIHFAsCVm+IDqOGTGIG9y72AiwpA/gX/ncokWL7rqjW/e5LAtGISr5yerA40lV0CI+GS4lgDO8CW/NKt5233xS4gjwr5zLxb6zb98+Z8XKFcnZG7JhsSo4/dMpKQ13JlZCii+EkO6H4pGwIe8U7jt1+Vp+V+J8N2zYkNmwXqOVlGejlU55HXijWkPkHjuNzovm1+faZG641HHuGzLk1TdnvD6Ql8iqQbGrM4JOrRT5zd6cQFETa6+AJEog43oi26r59kZFH4HUwDknFyKVjgTTBCmGjqx/M2IOH0SKS4SXU5Eru7DFp+HBrBLmADlYokUAaGtfEjXr3ug0tA8DoENVmXWsRnQYwS6G5FvnhKXorzQAXtuk3uqt6zc0DrNMWGqj4dnW1Um16qNcdh4bSiaIGsldWraIsazbABjTp91PGVMm5efOLna/CADTK1XJgqWx8IrEZcvCwiNJ6WiVVBouX2QJbIJWwBTV6qoGSfQwMzWyRuBcMgKGhW26gp6fLqzDZdbZEjne5j4PLd79xZJ25ROTmEVAQNWge5zY481F/y8+q8w1rFLItpe9TLZvT589bebng96YXff88y4SAP0HD5b9+NXXPuz33KQLWsa+a9p2X+KBE+lxghMgg2fehKKSgrIHK7wnce+B9XFcQkJ+O9PJJ6c+v/r1d5+o4BQRQzqBhgqTGp89bnhDfjio4YCiLN7BEuxHfCo6jRsxiBv43wJgg3oNN/2+aWMd5m3N8iEmypnAY4lV0Dy+FJxqEHmiiT89Mu7esqZES8srASYF93Em60xaQtmkA5Rbky1a1oDlATuXKo9e8RWR4lNh8hqCTh6bsk+i76mS5QCv9Hl++umn7bp1vWOxIFpMJZwI5W/UbIzsU9m4/ac/HVwt5sF58U2QLRg2f4pUmim/JEs070hyjdpLeObnAUkENIMtF2mpx3M8Nm3fVql69er7LrX7jOsbrt646vfGsTCRDuCB9Aw0czjg8eZCkTjkyA5s8SuXxQOklA4VUUhdnADwHgaA6YgOBeFQQ8xalJTTyXqhREtglj6gJTAVBuwc4OVI4jMA/N0GQPqHxEEaCU5MqtUAZXPywGi5LC/JNOvCGn08nJqAfYKGqL7tltWdMqlY+hgDwGuqZDFFWfbocEi1bABsnVgaTr9GpqvQqQgaFkZRdc32liYFeWp/c7qwJxhC+yeGDpQfu/e1yL2zfvu95mcdem6rK3lAToAE2JLohFcL4YgvG9V6dVmSNnvKBZXqFzt2P/3YS5NqcJUrnygRANKHvhg3YXHHTreN5DJq5b+dLcsS58amajd4Elk+j4jOpEbJCyJEwY3ftQA6zpvelGvV6teCB1refcBS4+eVrSuSKCqnMvd3wemBHgoiisCPcFF0II+XsTeoost/DIBb1q+v06DhdZsoR0mFG5rERLWhsuzQxGpoFp8Elx6CnzhsgQD6L/sylqtSJe9KA0dx+/v2i2/bd+7U/htGMGbLmjAAlimPvnEVUdobYr4mQcHCfjWITu/Pqcu1bvaXdB+LO5dL/X3kqFGTJk2e8FREwbmCCsxpdCOSYkvtbPj9J6S1cNFtx44dFatXr73XI8XA1EiNG1ARYFfMWHrUPkUg6JYARWOBoSxyCNIvOeCNObMfv//+gZeUeps2bdrgMU+NeZlTfIiCidtSyqFfUhoScnIZFSObcoCBywVAik9oyW8ybuo9MWloWy4dMcEgBF1lAGgZrPM7LL5dWL/hnCS+nQMk7ih99q8CYEajuqs3/r6pMY0JLWioE6TxWZbuuGsbsRxgKJxrdOsC4/zSEpSW5aIp4ABnIKF3u+W1p14YEJ1/4/7Yv79MTQJA5vVBFhg8yloGHi6VjlaJpeHxanATvc/UQYrQuqlCdDqQ7fMiKi4emmpgW242mj76yOtlxzz2YMH957w7/97fho9/M8MVBZ8agqboiBLcLA2nCwZ+1fPQ/URh3xb96x+7//zjT31avzi+SEOnS0YuE27rfnTUZwvzpdktyxI+TE7Xr3fEQQmqiE+IhaoEEFJUmJaEzZyOLgtm3SC1bJnvGhe5gOWtb9uG7btqxosWROL+MBlsCx4aJFrLCw7kChJ2aAq6jn3qIW5A8VXgv/NQXuq76ZUqHT6092AqtfERBNoPm8koNkOTqqF5XCm49ACbJPv9IVqyP8gN6vP6P3U+F9tv2xbtflj+0/ct6fFQQZ4W9hK4S9lU9ImrxKq2tGRUeAu55O/bqe07abOmFisUcOWvg7fglJiABFQLZQzgifJV8OjIZ+7hBvZ991LHmz1z9iODHnl4RqSpUobJHl5HOMKgwIUeNTvesK+ffkchJdlt1mpYb/3SNRuYCMDFtm0bt9Wql5GxlSqPJI7Q+KyIx+gq9ZDmVcEZGnIdEtYowZIrQrMlsBC2vTRZe2b/MABGhcgYXWNEawaAFrmaUHdUSQCQGBM6RMrNGbYxeklNkTIa1Vu9cd2GxvTAU/RHY9jorNjZ6DAABsMA6CEANGw3QNuoiIogBkr1aLei7tRJNxY3N/IBkCobnMWMicrCyI8A3T4qgtDp2xEgcwaUJebylm0aOKqpqNSh7bI6b75yQbR58p159/86bMzrNTgRTrcDTtmFkFeBKMgIaEH8EjqDe3yFC30DqmZYr/258aI4d0kAPPrjL30PHtyX0aRf38ciF76uS+8N3OY/MziF1vIGPNTqxovIA4d1RgD9Vn3j4ipWtPuoztvev+HGg1VPhMon+FSoBhlmu2CqQfutBifyRAE7VAV3MADsUeKKbXE35XL+3vP+ez/88J33ejip/SbcDsY8vASTVYGfLFUNLWKS4VQCrKdSswRs03zouvqrYpVMLuc8ivvsZ1980b7rHd2+sVTbLpF6bInaQFSgLimp6JlQCWW9IUiWwXIruWelgTb6c9Bz6afXco0zmOfJv7E9Nvixl1+ZNWswmVmzNx0ZhVvAyLpN8egL0ypxNze55PK0fZs2Py1euvQmOGS2pBVCIVboaSR7EKNSGxv1cVDEwiFoBZAoRrPlYcDyww8ehyXg1z93XHRORsbACY+lQoXsspAS1DGnzo1IP5HHXtB5sohV2mUoQhcAQIIRAkA7B5gOAkBZtQGQFKdZBZ85sF0+AK7VAuhewrRG3UYNVm9at76xM1wEoRxgfTgxtlYDpOT6oIQBkIokBIAEDLaMnYjdgo7EXh1+bfzcpKbFzRlyhUurUPmI/Roi0ycgDQaGxKehdaJNgyGjoyBvV4HJjo6lA3hgezAHznaZ69vNnVvkC8v6Y3+ZhS06ZNWBDLfAIRgKwXTbnUlHTuegycC75ye98Ex+k8PXYyYtbtzsprnJLTNZd1tRW7G5q3eHjVh193139+Rq2G5w1op1aW9073MgLcqNWIuD0+AQ0DUc1DV0fWbEAHlgnzmXGqSv6zU/GH/cWz5OpBxiCKJkl/Yl6jAgsrLqR5cxT5WIB1jczbicv1My/JY27b/95ufvm9PrTyDxUwhQmfazxjpBUqkTJLkqWkQlwaEGmEijYIo45RCxM8Wpd3//1XiuVq1i6UOXc15FfZaIxS1btVphFwEosqKcDXUzUGM/0Dk5Fd2T0lHaq0JglXrSWhNwShawTvfi/rlv1uBaZF5Sdv7vniN9f/oL04c+/sTwadROR4tBkST2YTFlnW7V6mHqzg2XnH+WZUkix6miU4Ci221p4tkCCkXiLzRvj/gzfgiqCJdM8aAO3bSBRQ2GkBgVg9PQ8VteFp55/+1MrmmTQtW/86/v7r4D5773/pt3QdBQ3gAeT6mMNlHJiPIr8Es8VurekkvihwHQluC1l8D3hQEwNlgAAA2NFUGYHaZpU0IiW1FLYEaH0U0W2VKP7DrNX2IAzGjYZPXGdWsbO6hgxoRuOQaA42o2ROncPJAoBOUjI5QbZkpEdByI2C2qSOzZYVWDF57LLG5eUA6wYnrVLNbGRkbrJlDuLJVoKAPA0pACCvM1JgAEL0MyZYRM4EgwF9HX19nY9OuFzLnuYlvWs1On//zynCHV4xNhmRp8DuDM2bxtVkjFoFXferiyZQP0XW3F6hs/+WDRiz1endL4UvsrFgDpyyNv63po0mefkDgy26iq8vnjI7/O2rytJpEZtdgY9Jkw+s64TrcsLG6A6O/fNL51d/S+U9eUlSWYpNJnGZBMAaooY6/fi5vHj7ifG9znzZLs6+9+ht5Yi+YvvHPkUyOm8RBZmxcllshmkfIulBth3B3qiDCAF69pyHTjBD3A+I0SZAQ4HiccArZaAVTt3/Pp5g89MJMrVTyP8nLPnc71xRenPj1jxsxB9LQIggxDp0lLT4SCGJiMCH5zdDL6VKjJjH548jKRJIRI4snhQs7ZCHGj/wwq9uz0cssH+03hatcu1PVzuedU1Od/37at5rCHh778048/taSojYRHSVnaAZ1FbzXiUvDII4OXtRs7qsWlpKyoh/im5q1WijIHjZUpAeIlNnW7MDS9HsqHAJWMs4l2HJZQj3QU0O+IynGSB2re2eXt9IlPFbJEPP+8v17yU7tbOnZYDCOIUibQXU5E7yq1kZgbgN8ysQ4+3Hd4O18i6S2OtyiiozZK01LCNJhy6JBaEbEBBTxxPml5yRP4kfHSuYapwiBIGGTz8pi8Pmey71GRR1UUbJeALkd3lOicGjVuunbt2tW2IKpFffM8GkDC+BoNkJrrZ/4vlNLRRY4VJUmsRLAECBqP4x4Brk7N1tecOa1Rcdd/cMfBshVrVj1iEPJRjYC4ucQjjSuNlsllkcBLMP3EeRURCtIxorDHm4drurT8rca8GcWqNNH5H35r3qMLxk58KZYDfJyBa1veuKL16Gc7cRUqZEfu65CM680ZG1ddUhiXPlsiALS2724w5+05rwyYMqXQCVrr1klk1f5Xop6NXR5av/+Hn+pXTopGDDVD5wYguFzw08BUKae/8udabb9LOGJ5YgUfFfYoT6BqVrTsBEwVuhKyZKbae1YOmJbh7MZSFsdWnbHCJHue5y1D1SyqFtJCUeJ54h9aZ7LPWDt37aqmqxbzGzXIuOpd4gAAIABJREFUgFlywq8pLIogJWgWVXDkRwo4FOBGScLTVTJR6rQXghBuldItOF3R8OoGsmPcWO47jnmHtuMogEoZdXaaTifn1SjDwVsuwcGsAIyQxrHKnyxAY9UsWyGHEeeJ78pyQgzWWNXT58uzdu/eW4WMmOyrsOB0OBFkggUSBJH01TRm7UgJ27vKV8VNrgTE5QUQLQkIhcjFToAoypDhRK5DxCbLjzf2bQCZZ1RpnLE9hzcRMizOwzug+zTEy1EkCc9pDo4t/0lkg0BFIFok03EknhhliThomoIYh8vK8/usbVu21uBEKkhQ7MCzyIKoIA4eiGfRAHDHtdejbLV0fLt+LQ7LQl7I6cyzeIchOxxQggphusl7RHP33p1puadOO9k7KWzmTVzHjsml8UBKdSRk+xESaGRNOFkPKbVU2T4jzGeW4+G3OJyMcWKlEMxe5z8dCETHeH2CYAmiyySmDAMESeJ8gZCwfdOGGhxvINEwUQvAY9feiAo5KqJdTvwJBdudZu4y30k9NynuzMmAIkRHx4nUhyMKghlQA3BEOw2Ts8zfVv1WhVq4WMtjOALsF1UGHVLTERfS4CJ3PNG2gqD5eykApPOjv0dAUBI4COQVbFo44pTxe0pi9uKs/fE+B7db8cimT+TAS07LCGimh5MsWYcpSpK5bN2qOpFJRlVkp2Egk4vC2Op1GACSFzAdh81Hi3J3BmRTgKRzOMYZ8FZPw1dH92IzpxzzRUf5dEMwQtQx6HSQbYAhaarF6N+C2/pt9W+1LU4HJ/GwdBNlTGBEelXc4EkAn+09S78WoFBVOzoG+3NVNOx6+/9SX306X1u0pC9ha9MxT1H+0WM6d907+pkJnbmGNfLpMxfbZ4kAkL689q3578ckxOypdlvHYns/8yPFffvijFVrbhKcHglp6au5htceLHgiW4aO/mj3Bx92r2ByKO2JYxL6p7QQAnHRrP1m1o71+PPsRMwTAYPksMkEm8E2tdQR8NmRmf1I2v+2L+gc8FMEYlomexvTTSYVXsZPYvQbhjDseyI9+JrNXWIbRX7kRVBAZuvROk1wbZ6JsgaHoO5jwENI6/MFEBuXhNPBIBAXz7xCXt/yC7ZCB8lWKCJYTyNLgxHnEQIDB3o8NLZUKHwN9NqMnAZdidMhQ1FU9jAJ5FbGKmx2ktpOoVMrjYko045Sh1RviKoKUIYTEAp62duWqEeUghMCVIDigOR49lC/+cdabIDGlhG0dqBxksj52CSY5RAiTA63RdE4UcsmWx0xV+vw02lakHnK5QgIaipcggTJsHV0VFq2ucluUkcpA+jCudClZiN4BFKU8WPW7jU4CRHETwhAgCTJUClycJKKLnH+CD+pRcomedPy+e60GmjjSIAnNw+Wi51EWGjXjgZZJMMiKx4OwYNT/hDM5ES8tfUXfAuFvZyoZE4dafa8YYQ0iKIAwTTgNuwXyeMZTVHrmIKyshNH1QCCZZPw0Y6N+CFwAqfPtjCG2NhT2YSBIFRLg2oarMVLtOg+US+8yVrh7o8vh3ZlKiAmEIJT1xkPMBgMgpcdFwBgRIQhf1rbwu0MMAn4SEiU5OP8khNHZDd+OnUEH53ejmN0TqywQPxcajIwIEpOKBpZiZOwqMAaD+iMHawI4sKEmg1QPtfLjIfYtKf2PyZbRvk7DiI9Ep4oHLFUHIqSMWPrr6CHOIcDAuwZCs8DyWSVKGK6OXiZVXcJUE3B5s8OTUhFu7hURAVsG0w1SsaavFO4/vFHX6z85EOFrEyt9X/WwLatddlaveUNiy9nNbXh1bcXOmR3bs37ehSS6vvbAEg7ePm+QTsfeOThOxx1ikfWg5NemPjVzDkjY8NcnWMBFZl9e7zV8KUx9xU8mdCMWY9/PGbylJqxKYgm9Wh6azoc8ArEP7IwcdsqnDrryUGxLRkoMRALdwpKHhc0hYTuzxFJI8nkCLGUwC+CkSzxbDCzAZrvsAjASPZEo7DM7qdlDnJhYCWOYrRii6x2TUxF63KVkZAXhCMQBO/gmFs9TSqe3vaKAYfDA68/BCM2GsdinZizfik2wMJJ9rDYhyBlHIpCCXypcsmAJB+wI1ah4X+zv9hv5Mh1OGQHiDdF35dFwW4xlDn4dR0JBtCed+L+hjci6mQ2onQTuqnAHe1GTl4u81VIiYpDyB9CyDChJMRij0PCO5uXYzcM9lAT3Z69F+h/nAiqDubn55l/qx2RGISEtMwzOFaVVE2CA9uPhUXj4ZtMGEM/k2kK8V2G12mMND8QY8rI5Xls5TnM2rUMh8HhNEUG9Gaip4ipZtM9oQPabY5lwSMFJh7PaInK3iDidA2KqYI8jJmHO73owgpKtrwSB56YQJYEpyMGR6NlzNy9GsvUPDanVMm+HwwIw+9M+j5VSAlsu6dWRO+4SkjMCTJgD3hkHI2S8PmOLfhNO4PjDLTpJUGgYUu3C2FgJRCje0cBs02DKYNbylWC2xeAk3hvosSASaAlYYElMJ0PAzu2HLAjP+I5Mo9iuulkF0kRGgMqCbwnAQc4E1/n7ceS43sYuJPzIvH6IhVye5cEVCYkUYClUQ4QaCK6MLp6PZTPoQjQfnnQfgkMKZXAiDyqCcnhgk/X4YuNxv4oATPW/ghiGxPZl4aO+fHQjacAhF6y4eGkeUNzvPTZ1fCoslVwoyMeMZoIWnBv1XJw54sTe3B3df2oIB58f+fAVVnL11wn0KpFMHBGVPDI9OcHcD16XLK2QPvwff/bXZ8t/Gh4n9dfuoDwfEUAkHbyase+hwc+916lS5FXs9+Z13/JsLFv1YmOByfy8CohOKIT8fvJY6jbp9vrDV4aU4jfY/3yy01v937gp2ssB5IpugsqcMbE4Jiu4ahLxswdv4IE/U/QyNrBDyReQsikAkX4CWOE5QKXmR/J0ewiswEqGFBUR5PUBiBGng17y/L09gpHD2ztebYxnsQKSAmlQ3wZtC9fFe5sHxzUqK3bHCZGwA0f0lTpbS9CjopBUNPgVy0YKQmY/vu3DATpranIQDQBnw7mq8EeOhufC29FxOWySwR5n0Su335KwDxQaDITB5B4ihPq3YTyPh18bi6iHQ6onMoiEjIRoqiB3u6saCKICOgWNNmDvLhoTF//Dag0TG/1MwbglAX4VVJFLhRQs+PTQxo5fZr3dA9U2aadCOH6f8h2VYLnrJAC9RLXAdCnbj2UDwLJOo/gKR+iE0ohz+nBRsWLKftWgpKR5A9CDxNrmFdttz/aFUXitJ8mEPBQRivEnDiBeOolZ7kDG3wozxEJpql3m6JzN++CoVisMSHglHE0xoF5O9diseHDyQhKR24ii+RAdRBGp7lOduLh9Ayk+w0IRFqWZJwReQSS4/DB2pVYaXnZOQddAshnOAKiDIxJ1SQ8N5NIDiu2NDqUrwyXP8AKU0T8ZZseFh0In0NRAEh5wIh4gn25lA+1fXJNjUPI7cKJGAnfHdmFz7KPsGiaWTtRmpFIzxKPAGX5GELbqOUwgUY8h/G1mqB8TpABF+MbhnOOdlTBQXAIyMv1IdYdgzxdRygqCoc9HGZuWIbdYZ8dWjkQ6DLvDnrMaE7KQFBj2SnWY/1wbCpalaoAQwG2+7Jx76LXM7iWN24qOPEXd+27MvTL1syynARXtJ3qEg0dG/JOoNdH77Tm2rb84WJAZm3aX3Hq4Ie3Dv/lyxIZlEX2U+IlcOQL1jHLM7Vv943Dv/uY7CyK3KZXqWW14mLhPu1lPeGmJLGozed2Y7Pmx73fL7yAMmJtPhC/9KFBG419+9JSaAAMDi53FE5bHLYjhBf2rGVvbZon9LDbnr/2P7Zokb2xt2b4oYxgi81msh/a8zGSnlcPy7HYn7FLIMQzA6i/rXuZCrgxpSLcJ3KQ4nQjx++F0ymzVyzL8UgSI4RHifQN4FSAJLhkRMtRyDEM5CR5sHj/dnydfZRFsQRWtFHcSscqeF4FVvIRfGPXGuG4Rf7OACH8fcqJ0T5JVabndc2QsP8MrnFGQdbo/FQYsoCgEoCbl+BxupAb8LGnXJBE9hLgDQmHlQDyUuOxZM82LMs7zc6NHqDI+BYcR3qoGfaHx4nOgz4Xaf2hJSqdJ/1M50W0nPaJqWhXIR2xubbcvKQY8HCUwzSgiiLy4qOxhVfx2rZVLGVAqoM0i219EPv66Tiseuwsj/YVKyM6FGAdFWFbkPw3CYkH2GrO9jgrAQUJ0YnsJPMUFQFZwulkF17b/ivWKcSePDdfInOHjkt3k14ok2s3R3KuHy7OgKkbMEQZR1UFetnS+OLPLfjae4zd18j9sKNn+2e2eifaD4C+nhS0oQhQN2Apit3ry5MtJJGFzxVBzgdAWrVQyxxFkswfI5LkoaUwRbhUTHW7cQYaDjuB707sxw+nT7Dxj4wbi9LC/0ReXHR99FIaWfM6lMoLMDCNACATXggDoClYbNXEKyaiomKQE1KQ45aRlShjzprl7MVOABiOS/Kfz8gxKWtN0fTA1KoozUuo1vD69U1mT2h+fputtWJttXfvuGtHhpyIGJODQo58po5EXsBuNQ8nr6u2t/OXX1A8UmhjvjA5ObEjbmif/dwP/4u6lFRfUWB12QDIQGb//jLTRoz7cdiCt/M9QfIBct262Jc73p7TxJWMBKKJiBxCisIeuDOWie1BH+758J2mXKvmhbpFIt8/NHrcW9/PfrN/Bh+DOE6G4XLiBG/hsJPDZ1t/pW5SxvtSYCIWboQQyn8g8/NTLPvEvNcgg1rsaJFCVpn0kwQ/Qkzlw+bqU3XSZtJ5QCQBHgnOKFROLo2K8QkoS14m1Crk9SEm2sOqdv5gAPGeaOR5vdAlEQ6Bh6ySgxiHEImASALL+Xl9pHrjgup04KARwp+njmFv3imcYWdNDwhREuwHpmAwaAsE2RWRCJjb7nYSNEbLIXChPCJQVo5DjZTSqBlfCly2F6VcLhheP3NbUw0VKrXJEd+SHl7KIyoa3G43QrR0ZAogHCSPB9mw4BV5HFFC2Jx1AEeCXgRJmTccokYAjwVW+Z5+dNY6nIiCF6RmrcEDIgDTtblQKbo0bihfEVEkhuGwIBkKLF1h5F8370au3wchVsaZQACyKw5nRAFv7lzFro+AxAMZQWgsDylCZtL1HeOqo4rLCQoQdI1yhA5wJg+JDHTYsBEA2oUFdn2CxJZ21DVAhSDB48EZXcUZJ4efd2zCLgQhsvtv5/IIdukKaJbJUNA9sToqxUTDtEJQqXNJcIOTnPBBxGmXhJ/278HW4GE2r+hc7QCWfnIgwHpWTCTDQntHGdSLT4Kb5fNMKOHqLy2SSwqADJOImmIR/cqOuCm0peW5FB0DvyzhDM9h87HDWJlNSm4sg4w8BJDAZr/d10T/I+hPhoEHrmkCTzBon8/ZiJB5+FhEX6HcNPF5gJCqINbhhtfrZ0GJJojwixyOw8SXu/7AKais3EXXZWcbOUZ5kuHBKfbE8kiLjsLTk8eOTh08aFxRQGS9+d7dnz878d1UzgUPJ4KnIpGugdf8CMW6sE7Lw3379hTCKwZ+e7NjHuvULmfa5x+kFNXqVnSIdu63fwkA2cO5+UClmS88/8mQea9ewNuZlVbZyuCjkWQJ0HQFIqtS6gi5nNjk96Lf3Lev5VrecFEyrrVkSetFA59YmhTUESu7wIsyvBQOx8XgjKaAd8pwSg4EfBRtUdcnq07ma6+avA0cLAogl3lRtNntBrUV2ctA5jdKFWEqkuh0s+xlIgGCSE70IY3ptklktUl5E8tg6h0EKJLkgBYIweUhICF3KzDnelUNgYtyMla7z+9HQkw8OD81fQsIiiIzf/aTZaiDh8bygDqrtFHuKgKBkSZ45sbBOLIWeEmETm1egmATaEleLMwJc1FxJ8eLeFq2SSK8ip/ll3jqGKDmcjpvzjaWIb4cp6p2Al0LwuF2sQouRRcWUTYEGaosISQKCEo8VLbEt/tCBXroWIhk0zbY0tji4RQlZPtywEU54HA4EMrOQ7QzGpIlQw4Z8HjJBc2AaviI9mXTLej8NR6eGKqe5zKajiMkIWACuXEuhFwSW1Ly5EzHpOmJa2rAY1goHTAZCZ2TNJYL5TgnOEtgXUX2OIZzvmEQJNCj4ppDdISX/wI0WjoLPFSHAwG3gwEs5UepF9URFYWcvDxEuZ0QlQDigiFwaoDlfDnDgNPgmUG3L6RBdbrgcztZvzDJO8kyFXBo3SeC52Uo5Efj4CGFQkinCCoQgqEp4EQOFBmZAo1t4SVwwQcykgNkvmkULVIqh/X+2d9hqtUgwV8q7gGCw8k8ZYJU7Ij1IIfmq8DDKcks6qbUktvhhD8UhOCR4VQ1JPn87OUdZHxEgj/KK9tjSWV/isQoiKE5YGp2PlALaSDKmO5w4oRDgu6RoRshJj0X446H3x+Ex+XEcTWEvaoCrlQsHp82tjrXqNHOiwGStWhRl/ceHPJZo1LlYBIth5PYvJANEycFDRsQxMD9hdvcaF+jMttZ4994pQpXqzKtyC97+8sASEdSd+6tO2vCc/OGzn2dxHTzt6W33/O7Z/2f9UqbHLyGD7KTyU7iiKlgiwg8vOecRv9FB+TkyeitL0z/ZOPc/7Wp7okFJUWdpM5h2Q9sFOdgRikGJRx4kU1omoT0dqT/Zt2TqgYn/a3AEoOOx0RZKebLLxaHlyHhtzE96EyYMWzhyQYprNFmtwfx4BkQWGHnMOIz2VcSAd5IgztZAbBjkjcy9T7S/GXRiZ2tIj4MbysuFCgF2/uKJMcLJsnPHy9GTaGcC4E7U/SwH47IjY2cT0SYmy2BwlLv7JTzK7y2bzNVTm0bU/vnyBb5fuRn+2907vQdu3WK/YaNtf2DbXJt22HZi0HKS4Uf+Mi48HbFm8aJxogUw+kczj+OLR9PZlqR6ETPp7vY94POpnBCtUBqr8D+7H3T/my/ansuFLjScBGI5NgtyFR5JVdBoiqFX7QRgy/6vkrAYU+QAvuwF5qsCEF5UcuEW7PPm34bKXBc6r6ef5+L+tm+lwXGKnJdvMlsJm1ZefvMzl9a0xgTdzJK1dl9MjmRjQfjZ7H9WjB5ooERuNKLhmMvcnpJSJILEu9CIEB8PgEhXoVfIEUnES5DQDCkQYtx4/fck2j26IC3M0YMuyQHk43evn3OaTe2CN4oJyJR4+DjaIkvwukH9lkqUh7ourjOc6MKmTJNbHGrMnL2jKZc9WvWlWS8LjaGf/W79kTa9mfGS89Nnv/Y3HeIOmX/bu/xlNn1mx+r4nAjIc4DRQ/Cp2vYowYwYO4bzbjWN/1S0oNan3/fYsHwUT/Ip45xFRNiIVNERPI5Gg9ZoDetiJBGpkhUwZXtHksmYmAwvpRFUQIRRgrMT7r5tBg494CHHxzO/lykgsymcP4EsydaBAAjgGUDTlGVjJJe4dXPXR2BvzoCZDh2DgAjqkWR+RhRdT4nrcWgLQzVdo06snJiLx32kreBOzLbSe2J5rhdjRaZ8hPLHVsiYhxOQAsw+g8pDuki0ackZAV84CqUPdp+ysTWXLPr/ijp1Smfft7tvQGPLqzsjmGrCUPhEDoVQig1BR2/eyMBaWk5ESL2uBta5z4z7aX2XOPaRabSSnrMvxUBRg6ibttV741JUxY+NP/1/MKItWtXzPbZ7328Yv7HbTlRQMU2TX9vNej+e7nGjYtUb7U+XXy7f8eflYTo6NPOlrd+fL4i9YHnpk5fMnPWkDqcGxWkKLZEMnUVvKnBRXkvTkQgpMM06E0lsjDHFEjJmST5dZbji0Qa9G6hz7PcEbuZduKcgXcBO0QGboxQW3A47alhv3mvgl9JJ9rVz/1TIxCGKjZHz73II0fLj/zzV0EU5dm5RMJOVr1lUXkkb0oVddvITDR4mEEN0a5olrYIEpvD44Q7yoXjx7IQ7fZAV1QmcKxKAvb4c7FfsnDbk48OTxny0NSCV2yt25qG3zbcohtGglgu8Q+ua8fPihoR7efvb/xq1pzXjq/bXJM3eHTo0fej1IEDBnAV43NYzu9s5DGmSUtlzNzX0rlq1f62jcIVAUAGHPtPlhn/8ODVz375EXW+lHizVq+uOP3u/nvLnAkhxhKhyw4cMnT0mTzxtph7bvtf4UHccs26Zyd+unvp8jo1ylaEy9Qg6UHKhrMqliy7IQtOqKqKoK6Cc/DQJcql6XYOi7Un0uJYZEsEes+RCQtNEtu/IMy/CueP7IR60VyV/CixqHVWia/+6gevjsDfG4HIy/lc7rjw/s7NUxv4WIEqAoAceXGE0ybhlYwWSVEwKSweMYKLcQF9eV4kli6F07mnoZkK4uNjWTHQkDzwCyJ2nDqOel06/FBz4pN3cuXKEaU0f8ua/faDX45/6bW4oMJSU3qsDL1yyoE+b7yVwVWsSN2ZxW4M/PbtK/X0HXcfm/jR21dMfu6KASADQctyjulyx94xM6fVKtiXd6mre79SXauazjEDc4qtLYcL2YaO4yaHbq/Nqsndev32879vfftzxw8fG/OB49jJqIoxbniorYYIs5rBWngoWUyEZk6W4Vc1Fq1RnoNuKN18yvtQdwblSFgESIFegZE499/nihORXFmk0hj5ODWxX92ujsB/NQKRnGo+hapA/vRc+obOzp77kS3y30yOK5z2IR4layUMgyDlPklZmwIMSi2xwpFpwel0wu/3wk9KMYEgPHVrH+g4ZVwP7rq6v13wrH785U0fPTrip/KiG9FMcdqCXw/BZwWhpqXt7fDr9xdQW4oaS2v9+jpPD35806RVP11RzLqiO4uc+PM97jpy34ihjyVmNCjE8j7/wrI//KzfigEj3qkliMwHgCpTOYEAHO5Y5PoMVOzcYWHynAl3XmxyWXMWPvDa2DFzEg0D5RxOJAk8eE1lFpkabyGkUZ9vFERDhGxwLF9Cb0ydLY3t5m82NfInRuFJUmiyRHJ9kaJBeLlBrllXt6sj8J+MQIGVSiS3x2gybF6HX8zny2zlz1973kuGYK+A8tM/bB1kF9OYRBYJMZhwu1zI9nrByS4okoCD3myYScm4bfTYO7k7211UBGVli8475a17qkY7RThkEQHyRHE4IGgm1uZ5ccf/Ft3Atax3gX5owfHct+SrR7+ZPXfEQ59/RE01V3T7RwCQznDRs89tq1O91uaqvTpe1N5x54uvv7l77Mx760VHwWuegirrkKOdyD0dhFNPwOkyZX0tNn9NpPxLbvsmv/Lktnc/eM6VdQyJDg4xUQ6oLpGJBTh1GZIuQ2atATb4kSUl0QcoSWxQl0T47Wi/CamiaE+ewoMT4ZdF8oXhfEvYw6G4c7z696sjcMVH4DwAPDd/bQAsqDHIuJEM5Ox5yyS4WJ5PZICp0nNAKyLW6WObk9PzoQjkWCbADFG/uRN7zuTgVIyMbs+NGhjd9658ufqLXdsnibWtBpIDPi4HkovaKyXknMpD2bjy+N0fQKMZE+4r3fvWty72/WXTZ32dm+st1Wn0iEZXfPxKqgbzVw+86/0vF2zYtjWj+/NPVSc5fY4LK2KGd7h/ztxpm0dOHVqDaCseDSpHvrMaTEuGgysNrXrVzfUWv1mivj4qo6tvfvzMkvlzR/qzTyIlJRlucIgLinBpPCRyD+MsKCL1tlJO0O6vID4eUVJs+oY9aex/RygdFDWe45YVLJLQ9yO6bX91jK5+7+oI/J0RyKcVFZivNIftJW4kPWO/tG2CeDi6C+cCWS800Y/CCxlmTM4KgzYlyesUkMdZOJ4XYPzQvk+XzLM7ck0LS2VYNXQLsUkSvIEzrEHALUcj4DWwxTLR/O3pt5Tq2PKbosZgSq9+e7t0uv3zKj06Df07Y3Sp7/5jEWDkoNaGXTeNHz9+6TPTp9dD+fjtHMc63dlm7clKez+zxYEmjijoQR+io6OZy5PicmHjyWzcPXNaX67vLXOLugDr0CFXUd659PvjXy99dNHkGZNK+1XUjUqC7POzvkJnlAyfFWIN9FFRbpzJyWbtPUHSaKM+XlFi8j2UbxWpSZ1ZEEYasuyziDS4R+SJWO/kP3V3ru736ggUNwKsH9puY2OdTedVQ2ieMvkQqvhqCiQHSawQOZ9npGymSyjw8OtBOF0ucAr1m/NwydE4ElRwWBRw2CXiztEjBqb0vb3IiI+Cj4upwHvHvTL+55dfG5UmOhAvkqRdyKasRTnxs/cU7j++28FxhU2xrE07Ko4c9tjOMS9Ore+oW3NrcUPwd/7+jwNg5OSe6/dAVr/77/26dNMmhWRqrDlzn3nviafGXROfDJkX4NU07PHnIaNHj1+avDq5kBky7cv/7sIHFr4y86XQycNuS5RxXZfe79V7cuDgoiRzrJkLHvzkhRdnuPw+R2pCNBRfNuLcTrt9KOhHTEwMgkEFkkBy69QbS+BHzeN2X68S0ljXBCNX20UeNslostEWkQ66CoB/Zwpe/e7fGQFSb6FuoXzNQMaujsxPi/URyw6RNQXIsgiv1wu328VoLYxrR77c1HFELaumjiDpmIoOHD7tQ0KVGsdaPDT4Ee6e9h+ff44kT//zcxPnb/n52xbUi5VSsfah2x9+bAB3x4XR3JJOfbafWf179QrOKNaTnqf6cUDJRp/ZL3Xgut22uOC+9y74eOriL7+55aH571zQZvt3xuli3/3XAJBO4Ne5c7/Yv2pL1V6vvlDICcz6YVnbdfM/GL9nxx+NxZT4P2/o1v2V0r3uevn8k856ftaEH1+e9XSqySExygOvLwg/JOwVDDy49tuLNkIri77psuyDec8fX7OxallFR3p0rO1FQu1m1FlABE6SADIoL0j6gXZnA+uTPWuQw0igrE2CJIPCy+MwCOZr5f0Td+fqPq+OQDEjEMnzUXeUTYmh9Wv4Jc1zbG4H/T7WDkqtnh6XG35vbv68pta2XG8eHC4Pjvh9OCwZqHFzm1UN77l/ONeyUZHFCWvXruRZ17c9UccTC7dEgrjUbunAn34f+r86vSfX7eYF55/2wbe/QTQoAAAgAElEQVTfHLXyky/6hw4er5jZsvWSqn16DOYa1i7k4ftKj157Mm9u80v9e+7p92/d+H8VAOmirD8OXvvCE09tGDx21O2eBjW+LOmFWlv2psy4qdWxlqVS4crx276vFNeLZPp9AvWG3z+9wsgRl8wVWCu3XHP0owWjl77/QZ9YSUSS7EKC6GAtStQvSpvDJbP96jqJG9hKGHa0J+TnVSLaaSwyLMgtKOnFXP3c1RG4QiNAS14mlxVekUReyOylTa14hpHfHUXeMLpu2j/rFnRZwGloOO7Lg8FLuH1A/xfFTre+yDWsyTRjL7Ytu6f/z9YPa5uXYW7OJhNI0DUOR3kLaxDC0APFt7oW3HfWTyt6Txsx8o0pH7xTnbvmmkKiyVdomC66m38dACNnsmzyrJWmqlktRj96Q0kuUn193oCvRj8/+xreAQ/dRNl21SJz6VOShZ0xIvpv21yi66E84eklP/X/dd6i0aENO5LTPbHwOB3giE9o6Ew1BSZJ4TMpaltPL2xgbXdzUsaZOE20/DAKtdmV5FqufubqCFyJEWARH/MdoQoHMRuI02f3LLNlMfUek8AveCiGCV4UoZLoA8cjz+fDUaiIbV5/d/v77xnDdbx5fknPaVqpFKtz+WrQsk6CeqyoAYFXBaZL+FvuCdy78M2buJaZy0qyv4+HPLWubGrqkaZPDO5cks9f6c+UCDCu9EEj+7N+3dz8xVde/t+dA+69r3yz6z651HGMOe8PW/jk2KnXeuIQRR8UiPeswuVw4pAewh8OE/ft2nbZ12Mt31Ine9H/7vvuiy8fDpw6iQpJSUh2uSCq5KimMl24SJM9eZlqESEBXrAJ11cB8J+aHlf3W8wI5AMgayKwFVyoqGGrxtjk/oBlMjE4UlI67vPjVEhl3Vade3R7MbrH7a9xDS5PRYUKHq81bR6sL8UgRjHhjHbBlxuEpImwEhKwxnsSfWc/fyvX9davL3X6Wct+7TV9/OQ5z48b34zLzNjwX93sywaMf+JEV7717pf79u4u03vC+CYFq8QFj2X9sqrJuz3u/q2eHIU4XYfX70d0bBy0ELDf1JHStd3SOq8+37bQd7Ky3KfnzJ+8+edlXfhoR6heuxazYwcPnn6xa7AW/3j76oWLHt/6/Y/XR/tCqBKXBIdiGzmTlR9t9MajKha9RSnXQu11V7erI/BfjQDlrJlPCBP0tX08aBlML+ogdTy5ZOw8fQLZTgmZXTt/W/fWW17i2rf8tqjzJXDLef+LJ7euXHW3JYha/VvavO25s8OrXHIyOSXkb583u+VkqUNnksqQ857qZXJxpO/l9biwTMvFoK8WpHB165Iw9QWbdeJE1IsDH1/XumPbtRn97urzX41b5Lj/JwCQva327EmbMWHKyna3dP60+h3thxQ1MIvv7Ln2zI+/NqwWmwQHeARUHSonY7euoN+nCypxTarnm2xba/+s9Fr3O/eU9vqRSoKWvI7dOWcQKls2597vvyx/KaMVKyvLje+W37Hh68VD/li2sn4cJyKOVJ4Fkrm0xROohY611RFTvgDfqtB55xtek6uaTTQ9X5rrHFeLvmkvXwpKatFvmZoN842lxbft7XC+So193LAjWv5JnGvTO9ftck4u63zproKSWZFdRCrckZ7T82Wx/q9M4Hz9xwInZEtkFd7OH9tCair5Hz2nhxL5VX6BIdI5FJEdC5PmzxlHFRDPCH/Gbpe0i2f5cmX537PvW5EbIy/bUl8EcEyHMXxB9DO7vnAxzpb24qGQsK2hI0dXkW3pqN+m5dqat9w8ietVuK/+/ONZO3aUfaNNtyNJeQGkxychqOs4EPLhdJlEDP7qw4SCra3WFz/d8O6AR3+p7HAhirPTRuBEJnVfpW/XtxpOe76Q70/kWOvf+eylHz/77PbHp73QiKtcukiA/Lfn0/8ZAIxceNY3vzz9zhtvDBs2clR3Z6Oq358/ICsGDlu64fMlrclfNGhoOOMRMfy1GRdIbC28NvN0ep6eQA7ypq7AJdHkAPadOIU6fXvOq/Dq8yV6+1j79sVpa7Z2W/3V4ge3fv9Dg9IGh/KSA4khA24SOaWIMKy9RsDkYOKpFvyKH25JYv3HZPRECrqkuCsT057ELVmLJfGxZJtmQxOaajphvUCV05llIhNohQWJPFotEwbjeYVFGlhF2rYhoj7OiBx8RF2wYC9oQYkvWx6MumAiHQAkq2Q/UOzfYZJshPRt6xfadyIC4JGJc3EKULib5m9yhC5VZadziETgTMMwPHZ0niwiYnqO51odmSohfU6g67a7fhw6tYLZghf5un5MFi0iCGVft61DYqumRMaPCcUadn9rfmul5QiTjkn/MCxcakkQTIlFajqbhXReVGwToegh8GRlSQK5tH8SO6XjM+tCi/XeRjldCJ7KgTs6ignVUoGO1LI5TWNzIgALOaKAXXm5zFGxboebV9Vo0ew1T8smn5bUUW1J81t3xu0+WDWK55jIrTeownK6kE0XWafqylafzyuUqz+z4OMebz47/sN4nwkXJzCV7WZ9u8/LmDL2gucq56e1rV+cPPWLocOHDUto03j2vw1ylzre/zkAjJzsT6+8tWjLrm0VHh49qjWXkBCxnLAn47qdSdi7rwmSSx3nWtS/QAzRWrWqxhed7/mjLu+G5ZaRk5eNOKfMFKEF0Ynv807h3twDl33t1q5dDqz5o9ORn5fduebTL7u6WIVNQmJiPAOGkM+PKF6Eh1SaNfIZFmGFVIhOB3Ilk1kmOpmRjS0OKjvdTIGXKtCsskyPlqVDNwxYsgCJfHIVxfaYIM+GfLXjyEMpgCPfQaZiU1ia65xQpq3vFtmY5zCLK3T2/5pAv7HFIgqCX+ShZ6Car5JzTiuxoABsfkRaKDINA2aBYxeUfY1EupHe1Uh0xGgdkf2Ej33B/sN/p+ugFwwBDb2EyKeYpSbCAEbVfZJ0iihu07VEPmerAQEOXYRgkjiujdSRcSw4fuz3DP3DY8z+TcUvDpJp06QMQYNB0ZjpDH/WloinFxh5TxPgEe9OkFQYmg5LI+DkITll5tnC7j9T2SZ7UXrp2VYSpBpNOh9xLg+CpomTUMB73Ezd+fSpMxA8JHkPXN+54//Kd2r/HtexdSEFpZKAjbV3b8pHjdsey3TGQtUVmyNIElgcj5CuYZuko9uaD6K5UrV85+/PWrziBpCTc+VaG7nqhZfK1qFDlSePGvd5y8xmv1z3YJ8BJTmXf/szlw0C/+YJWseOlZo7ZeYXacmljjR/ckj3i+UHL7gpy1c1/fTWnisaRScg16RcYTS0nDxbFUb2YJ2h4Pbl/yvSQ8BauS0Dhw8lIS7mMHdz5o5LXa+1/NfGWatW3r5s0af352WdSCjFu5iabRnRhWiNA6eTLD2PgK4i5LCXy6Jmwu10MZ/e03lnbDl9h4N1nJDNJseLNhFbs8gknClvsMgl3JTOIrmw8U+kv9OOKEiV2lamJjVfpsocNge3l07nZL1sAAx7aFikmB1poD93tSz6y3/oz+kdF9ZGtHWPbVl3e/+2fFjR2/kK1+znsEAFU5am/lTmMxte4hcSnrD3b/Pezh2PAVV4qUhe0cz1Ipx6sG0yI8Kf5z7HBD7DaYvIkp6ObffK2nw6Gr+CbZEFRUXp+5GlKDmA2DJTuj3elotRpsgTg8wXiIjMy9R9IUBR/eCsAFySxFwziJLiDQaQmJgIjmTp/QHIToetsq0YiHK5Wc7ZEHjkBIPI4XUc5kMgE/vUyhWPterVbY67du3vuMzMS4qCWt/+0gAhPRmi4wh3S+YFZuHW6tUNP2rba20jdwyzWiUAJEk54hDyDgm/5B3DXau+SOWq188qyfNvbTsR9dk7rywO8TB7PjzsNq58LNlO/5/c/k8DYGTErD8OVXnjpec/r92w3m/XP3hv/+JG0tq+PfGztneeqkJqMC4ZIX8e4p1u9sbN0YA1qhf9T+0udO3WtkOVZ93Vb4Vz/6GUcrGxOOw7jQo3Nt7cevrzN5VE2svatKkUduxtu2/pis6/fv7NHfGGCF4JITEmhkn5m6Yt2RXDCdDJG8IyERUbhaBOzmZkr23niRSLhF4tuEyRGUzTRuAXIp8TBhg21NgPu/1vAgSRPewkux5uZmdAQVRvW2o+Io3OAOz/tXcd4FFUa/Tcne09jRBISEIIEAIphN5BAalSRemgIKCAPsHybCg+fSoqKgoWBBEbiID03gMhJIQSQghJgATS2/ad3Z15353NJhs66LOy38cXIHfunbkzc/av51QzX1OLT+Jyu+P09x5Xt/bl9lhxtTak2y12A2KtC+p2Gd3WkxuAvGWebspZdxVbiYC51Tf4mrillztdA4NehLVXn5vnOfG49p55a+KwXnKaNe5+NX6743YeEKQz1RKPeixioWieuPdPwjnd+wiFsKyEllRRFRIqO81zcAh6LiLIqN4e54BDQFQRJIxIsPKFhJpMDhfDwC7oy1DNE6DcZoNFIoJVJkbvh4evDurc9ifEN99GIiLqeEXXeyf4s2fD14ydlsJm5/soeTGsChnkbeOyhix8pytpHEhljYUPf/Giz/L4XuUdVL7QMAycdpo3ZgRtm0reibMyF8ZeuHWFBc/nKbYu+Omz/KzcNo/NnDmItIqsU+h8q/f2j/j9XwIAPRtTcSyt58pFn33ZvWPHX2IeH3/ToufkMTMSizfv6dhQpoKfVAreaoeBZ5HjMKPzzEdf83vjxXk1D0BhoerD+L6m9io9NKwFPGsDJ5fhot2KMh9d8aQziVQb/Y4+/NHjcaXpGb1P7Ns/7HzSkQ6uK8UIU2oQQOUpWQ7qakuJpbFB6vI4qfi5E5yEgZRhIKaavDZWqNinAGgX3hcq2CRxt+DRoDct1BbuoNv6EyjOqwWuPdDlsQI9EgDexK/URZRVs38IsbFqEPRopdAX2v2nVvPEbSXVyk5SC8vDQuJutq+2BKuTNR6w9Lag6mzkVQDosR8FMgovKYOrCWhrk0W1Fqd3wsbd/F83vXC9uCB1m2sYUqoXcZ+ru8fb02nhzRLkAUNh72kplIuDjKPKaBycvKRaP8QtxUCtKYlUDk4kBss6IaLCWVToSSYX2ipVVERJQnDZYUEZ4WAWMyikqn6BQYjt0XNdRKcOO9Sd2m8jkY3uCEz4Y1eUn/bvbW6mUCCYPv8mm6BrXOjgcclHgYln9tZ5989Pm7MpZ+3G/sG8BCKLDVrfAJTzPE5bq5AwY/wnka8//+SNXgCe55nUj5cu3rZn1+CnXn9lmLJV1K+iqb+jF+1XDv5LAWANYCWnD/5o0advte6QsLPr9MnXzRjTYuftj809VZqWHqFycJCLCIxwIH7EoM1NliwY4L1vp99e+EH2wuVPtaBKVFRmk1BRZxdYjQ4ZZisGz/v3Y9JpD92Qsud27gF/8Gg0Uk92yUlJ6Z2VfHy4+UoRNDKFoDRH25N0ND5E1dNYCxjOBT1hoBKLwdkdAtCxhLLZULlGt3YDDaVTrkpPzRd1Q93RPgGiqgP6bivDnQzx/Kxmv6YZaXACIzb96QZAd2LEAyQeC88DHLUC5B4ApLq21Uq11a6o27WstQCvb/1dm2WttRjrurpXZ52vzerWAqA7juhh9a7W+60W7PbYcIKcZHVyhP6fy0Mp5cWT5+bGcydF3Ou7r9Pz91rFDMHpdyepOBYU+ym9mnAEcdSEBmgig4ps0q4lMVXdA1DisMNkMUNiZ2ETOSELb+hs2qXtqibtOm9CbMsDpFUrqrl+15+yVz5ZkLjkq2dC5ARa3gkJjVdz1MOQ4LjLhl7LFkzRD3rgS+8FdvYdkl6ZeqaFj0gCuwso4JyIHtr/QIelH1zTky9YjoWFqj2r1i9OPpjYY/aM2Y/Le7Su09d71yf/Ox74lwTAGovw/Pmeaz5a9FFkUKOUbpNGP3E9UWTD7t2Dc46fuF/q4Lmozh2/J107Jl29v/umzMhit+5vEuqkcSArlLRJnGVgAIN8IkHUIyNXNl7wfJ3sFp+Y3C57+XfPFVy+kqANCEiPeXjEf8kDdyD2dOZMkDUju0NF9qVO6YlH+2empbaQUP1VRgyV3Y4AJxAok0PscAkuK6Uup3FDqoBH6btovzLHiSCm2USeOizVarrEWa0GRstz3KBJAdANYrWZ2dqSHHfZBv23R0XMsz+C9VftUntgRgj/0ymr3WDP2KuTF1RvpSbO6EXMJNhWNTFD7ztR7Tp7xfTcMcVaQPMe7Q3SAvhflW32viZvghS6D0L2VihjcocH3BDncfPdwOfRyRAiBl7ZcY9F7TlOYCKvJg6ldGuOailThnZecDQEo0SpyYwyF2CUMCh12sBqVIjs0D4tvmfXtfUiww+iSdjx2wmz1BgAq7aNOL5x09MVl/NDo1q0SA6a+MhckhBdRxby0PAns61JxxrXY5zQiZxwWKqEGkElo8FZGp985IGtXd5f0O/qd4H/ZVuvixmZjzh48E3aJvxA7uu8+5oxVwz+Scu+/CwlM73DQ08/OTUgPv6mRc+/I57d8VJ/aQCseSCOH2/73Yoflsh0+ivDHx07jYSE3JFYyq7Hpp2S7UluGWS1QSSnVpgNUiq6LlUgD2KEjRz8cdO3X5zlWc/4xYonfn7p9UVhEjnEIgZ2EXChwoA+s2YsDJ4/9665y/jDGWG4nJNgzMxJOJ94ZEhWcmqU3OkSAuqQiCCXiiGTSCEVV+s7uIjA6EvjeFTikFqQQq0gcbrdWcGac7/gNBsq2INeQOF2T8XXVqFVZ1HdwFKdlPCqVnPHHd2JE/d0tfDoAUJvAPR2awUArKO2V/vMuoGqFgjdZT3u2KKn/vFqC9MNUNcCYK2LXFfuoBawq8+72gX3ZLUF2UoPcSipDi0ImsjuHDz9QqFau+7SJ5HgLbiICzbiLkcx8xysVKOGdQrJUYaRIrpN25TmnTptFTULT0RYg9OkTcu77nc9MuHpHdnbtt9fXy6HUgRY7Q5ccFgwacnC4WTYwJ8913d43Kw06+HU2ADWDKXLTOWVBTIEJdEg2VCBiH9PXxH1wvMT7gQx7JmZzdd/8e0XnMmoGzVx0iTSISblTo7/M479WwCgZ2OtublhO39c95m1qDRgaL++MyV9ut2UattzXO6ylU+dmPvmBy1FEvBKJ0RiHqzNBatUgTSDEZO+X9mT9O64l47nMzLCFvUYkBuv1MOP8LA6LFBJVRBZRDhpMWHYz1/fR+5rf8235t3efEo7hMLyFldOp3auyrvYNjMxqUdBdrZaLZdAzDrAWHiEaP1A3XypnYW/RgO72SSUL9A2JSoZSuOIdqtNYAQRhNV5J8RSRshAiuUKIeNHqchoszxnc8eyKEUYrW+jfaaUT47GH2kwXyjXoABMgYBmChl5DQedmxiC0odRa5SOcXPVCftW3Zzvpha7ngtcnVghtKyHlo+4fwrN/l7z1Z2fuDkbKdOJyx1vo9cnYRhB7J62hwmAS+gcVOfWbeW6W8iIW3idzk3HOXghlqeQKQXePJlEIrCoKKUSsHYr1Aq1kM03UHdWTUtPXCg2G0FogoLnYCQEwXGtrjRoE3/EL6JxYmBQyHF5aIuzpHnAbWVOb+f5MCz59tFdr779ZaRECjFjF3j9HDwDi1KB45UVmHFgU41YUNXnK2du/c+7H7UkIqgddrCEhVSpgdnI4ZTDjofWLutNuna8ps72eudh23eozxfLl30eFBF+ZvjECVNJcHD+7ZzvX2HM3woAayzC9GJ1QeqhN1ZtXDuq6+hBHyQ8OPKdW92Mg/3GnS89cDiiYQM9rA4zpDIVMstKEfXgwP3tvlzU3XN8/vwFCw4u/uqZVko1pDYLIAFgdUHrUCOXmjqje2/q8OGbA69e79I7S+bs+2ntG6aCEllARKO83tPGP6t7eNg1tEG3Os+aazx2rBFKK0ORXxRblnMhOi/1dM/sEyeb8UYzdColbKy74JaCH3V9AnQ+QuGsSxC4IbA7bFBplLCydgH8RJRgwsVDBZHwb8ofRwGONtNT0BDRdicRgZMG7em8THUBNrUgBe/RTbJJP07BxXUDj9PDN0dBqJqmyUPg6X2tNQSztN6RozoUbg5GD1WZ4I5Xz09Bj37cpJ601MhNZ0b/n84t/KTnSOsxXZwQd6PnREtSXJREg16/ywlHNXUUxUCFWC6ELp0uWqxMYLRbKd8FzBajILtKefScIgb64Abwb9L4VMOWLQ76N2pwHEEN0hGkzyTt29dRQrvd+0jHFX327fSti5d9BLNdLK3vU9Zr/Kh/B04Z8/nVc2zvP+aS6vjZkIZwgeXMEMvE4HgxDESCbNaOEe++MZOMG7rIc9z3PQdelp4+2yBCrYVd5AAlgMsvNyJu1KgDLZf897pxvZrnq7BQdeLQvn99t2TZvCnjp7zbpEvreTciPb2Ta/2zjf1bAqD3JhccPzbguxVffxysDch+aPS4maRZ+A1r+67896NPVy9ePJ1mR61EhCkvvfCybur4N7zny3j2tY1Zq9cPCHaw0Lo48LSQjxeDYWW4opTiSoemOQ/9uLSO0tW2viNOWE5nxOhp4ataKnSwlJiq0G7sQwuavPvu3N/yoeDT06VwOhuisjK8rKiohaGgOLwgIyfBkHO5SV56RkNitcFPp4bRYoJYxEHOcVBLGCjAQMkzUIskYFhassMLdWh2p11I1FCwEboVqGXl4iChPaiEWoW09KOWlVjQY64GKNAuFprIoa4y7y4J8QAdPcb74yGa9dCO0bmFbhmnswYMBQCsBkcPOS0Fa4HLUYjFudejYOdNA0XXsrkccNCMu4SBwWETAI6TSWEVUFYKh8UJltb+qbQIi2uVrw0POalo4H/Op2FgToOQhukICrpAmjbN+S3vFZ0rddLj2zM3buvdSOcvCAVJiQQZpnI0f3TkmoS33xzhvd57QS35blp/6KwWwGWGhNaViqQwQIxMkwn3PTNzvu7FJ17xPubsi2+tSFy1dlxlVSmgU2L8yy+84T9+zMs3ug7++OnOa1at/PRiSWHAxKlTJ/u167T1t77mP9N8f3sArPlGyy0I279u/cKktLSufQb3Wxg3/MH5N3wIjh2TkDZt3KbOVZ+8dxfP27dw0autxXLoOResVDiGUogTNc6LePhPHfZl/EvP1LBemz9dOm3r/AWLm0rkkLlY2GVEsCw4oxWZBBixcVUsSUg4efU6/MmMVleS09qp1XqLNiFyF2nS5DfpneTTeSms57QwloShoqo+V1TQ0FxW3qiioCS0qqgo3FhUFl1eWKyzVBjAOZ1u1mCHQPwmuJY0/EdBhyYRhJYstbv1i6HxMKrtUu3yChZatTVW0xJWzaZNRNS6Y7yyrLXA6KZw94BjNehWu890TuH3LpdQR0k9brvVIVimlKmHAh+VbqRkFRS0qcVJ2w8ZqQQipQz+DepfDmsaecq3vn+WVK3KF+uUldD6XEZExAWIfYpJ68iS3+rl5FNzQouOJd+n1qttqlYtEklU+IWr5zb/vOnBX6bMWNdO7ysAu9NshRwSOH188EtxLp765ZvepGvPGjd1/9gZJxxHjsf4mCzwVYjhslrA2zk4NTqk2s145IMFo8noft9f7xp4nhcR4pXq9hrEV1b6nNi0e/62dRue6NQ2bm2XocNnkci/j5t7s3v6jwFA7024tHfv9EMb1/9L4uTtQx58eJ64Z4efbvfB58+WaD7t28vQ2UoQwBNUSVhBLUvKK3CkvARjUjdFeFsKRx+efIpPTm+pstrAOFnI1HKYDUbU1/rgSGUFwufOervlC7Oe914/ZeKUrec27+5L43oOFw+XToN+s2bM08yd/trtnudvMY6WEsHM+8DFKlFpCYCxSmU2GgMdZpsfa7XJ7RZjkN1UoXKwlnpOq11htVq0FqPJz2Ko0tlNFjnncslYs1XGUyvO4RTcavqHdzoEt9nTAy3E42g9nZgRwIr+EXSdxWJIVQpWxDA2mVppU2o1RoVGXaZQKgxSmdwilqpLGJnarNT6F6g1ahsjl5bJlZoC+KjM0CtLoJaUgeOsv7frljNrzidHv1k3w18ih8llQwFnQafJI76Ofe+jOkzHqc++vtn4w9p+IXa6H27eSdoRZJaIkSviEDNx1PLg116Y5LmX9l82PfjD5H+tS9DoIXfaIHW6IOMVKJQw2Cu2YnbunRGRmnYcGL9h3Q+vOgjE3YcN/09or17XuN2/xXP0Z57jHwmANVZhZaVP/rb976zesGFCeNuWe9t07/5SSFzc0VvdMH7Ljh7fTpy9R2uzgfjIYXU5YTdxGLvgrbHk0ZF1iCV3DxhdLDp+NqCRUgHOahQsJCHGZrQjVypBvZlTlkS/9MR0z5pnZz29ImfVpnFBLhcC5WqYrBZwWjWSi4sx9oN3HiNTxlxTj0gphi5v2TnGWFwRFBrZJEMR2Wctia4rNHOra7r3+5vvgCC2tffIGFuVMVTjo7vgO3rYN1eL+dAZKua989re9xa+Eu8fBKfBCCKTwKGV46ShAD1mPv6fei+8+pJnpb1T56Rh487Y5gwj9P1SXQ7aW26ECMUiEQL79djSfMk7/b3PzP7pty999fyL84MVEqggBusguMwQTN7+UziJj7rGyrz6qkqTknol7tzz6qljJ+IeGjr4kyY9u8y/nrjYP+V5+EcDoPdNZvNz4w5t2/VqamJSzw5t2u7o1LnDyyQm5obxQloEenHr9qfshvImYJgLTfsP/IyEhxde4zK//N7SY59/PbmZQgWFywmjzQKtSg2xlcMJqxntP1kwwX9c/xWCe5eZ6b+y6+CStmI15BIXWIcZaq0GpZVGSBS+OGApx9SirDr3jP9mzeDv5z63XsWKIBPJUG62wuqnxeRVy6NIp+ufP63cR2JaK7AuG+nZ5qb9zn/3F4Hfdbg1lGor6dgq40bXyq/b0verGU9v1VpY6GRSVFiMMEqBR9f+lEC6dUyt+UJNT5f+0HOIvb1CDbPZALVOCwfvgsPlguBCoqwAABIPSURBVNVuxymOxaTiSzX3L/3dJe9e+GDRnEgnB7FMCplYApvZBhMRIdvlwtA3X55Lpo5acPV58bm5YXk/b5oq4UTB8NEdrd939FISQqw3PP+00112bN7yUmLS4b59Bg9Y1bp79xflTe6MCPXv+hzcA8Dr3Fk+Kyv62O59r+5NPNi3TceOu1t36PKWLi76lpbhdWMv6bn1F/UbWtBSooDW6U4m0PgVZYC5rFZgRGZizT3gExM7re0/6VA7mRZ2xgJeTIP3dsikKrisBCeJAyMPbtB7+kD5o+nRqx8cfjoWUsiEOj8xnHIFiiUEx21VmL4+TUrakDqxzJJPlj6zasEHC8SVRig0GpQrlJjy6suDVaMH3VCfhc/JCaX+6u+t13C3Lx1/JicUEpeFRN44plf48TezV77//kI/WmjO8TDJFXjs1RfHKSY8uNJ7XT7pRPjXo8bnRHKMEPKQ0VpLqpfrYnHUacbE9FQd8fOjhCzgU1Ki1vUZcSZBqoJTKoLVyQrZc97BQc3IkcbaMGjX6lDS0l0HSL9EF7fuamqv9YO9ygSFRAq5TIFilwunnBY8sW+94m7d96qklL4njiY9v2/37h59+vT5qV2Pri+SqKhzd7unf9fj7gHgLe4sm5MTm3TgyKyjiUceDqoXcHTAgIHv6jrEX1fI+UZTOXbt6vXJ48/uCrDyIHY7rFSYPTywasKKL6JJs2Y1Rdt8SkrChn6TjrUWqWCwlUOlV8IKB2ysAzKpDocrCzG5staCOPHc/FWG79aNDGYpOwkPTkqzmgQOmQy5FZUY9vpzs5npYz7ynJft4+VPr5n35vvN9HrIiANOFwsbxyDLbse4RQsfICP61WEK5rft67T8iecOySqNUIKHQcJj3AevDyIPj9x4XbDfmNipOC2xL62Lrtelx3rSrU2NdXSNFbNuWyc28+x9cHKQNm+2mwzvf8OaTX715n7leRfasjYW9Vu330geqLW6vOc1LF4x5af5b36uYwVWKSgiQov6L3r7PtIuLt17XNXCz2atmffWh62DGgqdNlarDU6xAudtdoxdvHAIGdZtvWd8+bxPFm9fuGhamK8OaokINmMl9LSPl3XhtNOCmNdfeC708clCmRWfcyb0m7g+Fzpp/EEYzl2OQztPOAYSkQKJtgqMSt5SnzRuXEtEkJYW/cGQR043cEiELLAJHNggP0xdsagxiY2tIfi9HQDK37ZzRHJS8pMnTp/q3n/ggM/bduzyEYkMrXPttzPPP2nMPQC8g7vNXylvdO7AwccTDxwYo1OobK06tv28SfcOq4if320VhvJr9w/hrhSGihoHnyb9Ou263tIf+TXle+rqQ+FkwbE2gRfQKmFgZBioEprvaP39shra/3WDx1XUO5aub8QRWHnWXdZBS0IkMpTbHYgZN3JJ0H+fE+KLlMvw865Dbe1lGihoCYzcBY5noZYokWm1Iic4CJOP7a+1Rjdu6/T1tKcPxUr08GFdYJx2WJUMEg1FGLvg7YfEk8bU0YrdNmTSucuHEiPra6UwmKpgIjI0eaDv/h7La2soPde765Eph4qPHOgkrqiEQiQDq9fCEROVOmrdqoSr92R9n2HnjWfORnBmk6DjXGGxI2bwoHUJS98f6j025/UFLyUuWTq/tUoLSZURYkaKSoUUiaYqzNixvjGJrWUL/zSkKd9JpoXaaBLa2MQSGUQSLXJtdqSBxewrteJaR4c/nulITW8qZ3hwVhNUlKeRig0ZbbgoIfCZOmZ9/PyXhnjOZVPXPlXavDKtzsFBwUGw6iqsNphlMliiwvJ67VjV6LpfHluOdEF+QQsEBWSQgV0O3M5jyefnN03Ztm/UqaPJE0xWi+v+Pr0/b96720oSWMv0cjvz/JPH3APAX3H3y5KTh2/b+MuTlSXFsZFhEWndOnT+Statcx0X6k6n57ft6/XphOm72ol94MNyYAmPM8ZiXPCV45kDm3xIeHilZ87N4586pzl4MDKUijdJJCirqIJCp4NRLMbpijIMfmXOv9VPT3tLAMBDx+OWDxt/vJ1aD4XZBE5Cy4BtsFtYiOrXw87Scszavj2QxLrLbVY2jeejWAY6Kp9oroJCLRMympxKjUMWA6Zdzq15dnZOmrGuaseBB8PEUvCsUXD7iFQlWJbtZj32adjc2U94zvnirJe/Sf/x57H+GgZS4oLTwsIllqCUA5qNGPZNkw/eGO8Ze3TyzB15W7bf30StBUcpo2jJnkKBU1Vl6PTMzPlhc2cLNW+Utfvrjn0rOmt94LCWg3OxkCvUMNqccDAaILbZiXYbvo0Txibui182cnJqG5kaKqsFjJR287DgxWqUiyXIdLKYvGVzEIl2x3Nzn3h204X1O/r78YCGlgLRPlqamXc4cZ4C4OOTl8S9NqcmicUfO9nq/cEjT7YT6dCAl8FmtcLmo8Z+SxGe+uXHCNI25q5rCfmSEk350ZRR+5MSJ5zLyerSMDxsZ58hI96rl5Dwt67Vu9N36E7G3wPAO9mtm4zlc3ObX0xKnZO4/8ADpUajX0zHjseatY//OCghYdWdLsEfOZmQ/t4XX53atT+G9vP2mfzIloA5kx+6mt68cs2ux9Y++fgXCQoFZBYnZEQCXiRBMcMhxWnE9C1ratwofl9i/MrxT6XGERnkZiNcYjtEEkagPy90cUjhHJi242ctad7cyGelBvzY5eHiBLEWDM9CxPBwcVaBwp1wYhxz2TB844oo0qbTWZqBXtL+PmM8L0YAVdKjheECywqDAsIjhbNidt454TmjVujqDgNsMYwcVsYKsYxAKVHAbmaFuQ+bDZiYkSQI3POpWQFL+/cvTtBoIK4wQKVQC/V/To5FhVKKZHCYnePmqDPt3PTAzlGzt7SWKGHlDZCpZTBaaexUA84qwXHGjkeuuMfyh/dFfTXisTPxcq0AgBDZqUYBpFItLrMuZDBOPLZ5jbAPwvitW3sun/DE7jZqf8gNVI+ah0vMg2iV2FNUgEe374kn7Zqmed9j/syZoNP//fKHtC27utFOlB6jhm4IeXLSVA+o3u7zQPe2NC+vZ9axtMmHd+15oEG9epc6d+/2U0hM1KfeoZPbne/euGt34B4A/h+eCpovMJ3PHZGemjbl5NGj8fZyg2+X2NapcbExPyAscikJ9xGsODqO/iS/Ql09Zc6cvek//tQ9Amr4gjaB8MiwGdBj/jNv1Xtyxr+9L++jkDi+A69BgMsFB7G6uzTsHErkUuQ09DWNSdxEjRzwV674/9C6T0lLTgqRnBY+82AcLKQQgXGKcZS34oEty1rIEjpm8HsOxS1/ZNLxtko1NBYbeNpfS9vhnE4YVAqkOix4dOOPAhDzp083+qX9oIvttb6wqnmhI4NnaYO+GGqIkWSpwpCda1qQhIQMfvPuzivHTjoYo9NBYXNCzigEHWixAihwOZDOM5i48fv6pFWroqrdW/rvHvn0pjZiJViXAUqtHGaTHSKZBjYixwFrJR4vOVPzrC8Iasq3VfmhnouqqLlAWBfglKBYxiCnkd489tBmQXnV8zkyZ86qvG82jGwm11LiMJTwNpxzlGPQ3Gfea/SvZ+f8Vo8Qf7HSx3UmfcCpzDP99yUl9Zfq1aUdevZcH9EscrUutsWR32qde/PU7sA9APw/Pw20Al9QMT6Z2y87JWna2ayzzS4W5oc3bBx2KSK2VXrTDu2XSQPq/3yjKv3bOT3XmlVTT6zd+Wxp5oWIFpHNUxoOG/IKGdHrmkQN/8OGSd889dJXEQol5BJeYCJ2cWKcs5gx+Zdv25HO8cme9b5onMDHQwGVywHebIavQgarjYVDocReWxmmFrsZtfkTJ4I/7zcir4tYBa3VDpZhBFp/ymVdIRfjgMOA6VvXykh0NMtnZWm39RheFcECDqmb6koulgttdw6rBad4FsOPHAqkimH8/iMtvh8zIb2pi0GIUouqKhscVNxKwcOolmFXeSWeLrkgIYQ4+bw832Vtepd1V/uBmKog5VxQyBQosjlRqlbCFtc0rc+6FfGea+O37B368dipPzfX+ELudEKn0sBkdiLLYcGEH79sR3rU7kPNMau3DDu1ctXbFwvymjSIa3qy9Yh+/yJ9Bl03jns794yOKc/J6ZqXcWr02dTkDufSMmJbR8UkRTVptiu8VZvld6rXe7tr3htXdwfuAeDv9ERUW3ue/SZsRXF0YVb22MupGfedTk6L5EW8rUV0dG7Lpk3P6BuHvU+iIq7RbvgtTtW5YcOQpW/850dHSbGUupTBUbGXhz3/3FDSo3MN+AnAtm3nwC9GT93QTeaPQBvVGOFQqRJju7kAIz58Y5LP+PHLPeezvt/g0tATl/waOAgqBVESBionwUXYQQZ3Otrxy8/ae8Ye7j8yzZ6SERusUAus16zZColejVKxE4bGDc7dt+OXZp6xP3fpVRV6oVwbYGdgl0uFbgm9GDhtKoHfuBHb4hYueMAz9uK8d946/PGXz7dX+0JhtAg9tQVSHntFFsxYtbQV6dz5tPf+8dv2DFz2wrwNpLIKVRYT9E2bFU14Y95g0q3tXZU73ere0NKckjOZD2ZdzBmQlHSsEyWpaNmxTXL91pGbQ5tF/qD0+2e0nt1qn37v398DwN97x2+yHn/uQlTF+dxZ53LOx6afPxddZTZpG4WF5jRu3Di7RYvoNFm9wNUQ82fh70+bc9lf4zrzJ06oEBiI65HI1lg9azYOWP3ECxvVlRZIJAyK5AQjF/1ntGzUiDr9pnxqaoNVAyde9jc7IfJRCz24hvIqsIE+GLlxRQ1FkwCs2dm65f1GV8oKyxHhV08AquzyQhRpCGbs31wnycMnn2z89cBR2X4soPDxEVrnrOUlQHCAbdCONX6kQQOL93YaPvxyzpo33n43gCquOVxgwoJsfT95q9vV4F4HCI9dUSJYRG62D3fyiFAhr4Ls7K6XrxR2OZ91rn3WyfToQK1Pcbvo2CMRjcN3a0IbHyYxNybkuJO17o399TtwDwB//R7+5jN4YoNUORPFxQnlufkTiy9ejMvOyGyUm3EuUKFWoVnLqHz/wIDssLCw3XKt33LSMuKuSTZvdQF8VlYwbISQVk1uSNPOHzsmubLnxMLkQ/uGWHnO2mXYoJUhE0bV6K7UAR2eZy5+vOKdpO07HmR4kahd317rQ/p1fp5ERrpTvV4f2oJ28rt1H2amnOzLOZz27r17rgyaMf71m50zf+pUFIjS/H/dkzMXgizGsoT8jMwely5c6JBzPqepzelQB4U3OtssNi4ltHnETp1ev5+EhRXcan/v/f6P24F7APjH7f1drSy0sRUVyWFydHMUFQy6mHchJi8vX30xKzfYVGWQ+/jVrwxpHlns2yy8QOHnl1KvftAWjVp2luj1FXe14D/0IJ7n5abCwsYFBfmx5oLSziVZuQlXMrMCq0pL62l99MXBUY2z6jVocDY6JGwvo/JNJrGRt1UL+g/dzj/tZd8DwD/trbn5iVUnVzz3r45EhjO/5P6C/Av3l+YXx5QXFfqUXi7wK7mU5+tkHS7/en7lDRuHFPoE1y+Xq5Vn6geFZOlVihRoNJdJgwalf9HtuKPT5vOqfFFRWM9qM8XkFeZF242GJoa84uBLFy6GlpZU+IllcntAo5Aiv5CgK7qGDfP1AX77G4c0OoWQoJRfE3a4o5O8N/h32YF7APi7bPOfaxH+8uVm1vLCFuVVVV2LC0sbWSqN9Q35edqCggL/UotVKxaJESTVumRKWbEu3K+UUcrseqU+T6XVl8o0+kqtXl+pUUnzeBEKxXpdOaRcCewNWRJAhNq5//eH1sdBIhHDYPB12DktcTl1BmNFfavJpKsymbQGc5W/3WwLMVZUhpmKy7Q2oyXQYDCIHS6XUqXTlAQ2bFAeEhhUqdXpLukDfc/56XxPMzq/U6RJSB1hof/3ddyb/4/fgXsA+Mffgz/kDLyy0t5WZF2a5mJzPTir9E67JVRUZWnLmu0NKy3WhlazRcdVlmlYY4UPz9nsnMnE2MvMChgsEFmsVBncaRHxvIuAyCh1Ps8RwlPOOw5Ozi3LJCHgxIIgr6ARx9upKCeV6SBiIhKJCMcI9UO8mAXP8CJB7VgQeVKLzUQu5aRyOSfX+7KcVg8iV5XLFAq72kefL9Nq06RqZbFCq6IuaRH8/EzQaMqo5eYVW62z5/esuj/kEfxTLPo/hS8c6Y54G+kAAAAASUVORK5CYII=;" vertex="1" parent="1">
          <mxGeometry x="-160" y="550" width="124" height="61" as="geometry" />
        </mxCell>
      </root>
    </mxGraphModel>
  </diagram>
</mxfile>
